<svg version="1.1" viewBox="0.0 0.0 600.0 371.0" fill="none" stroke="none" stroke-linecap="square" stroke-miterlimit="10" width="600" height="371" xmlns:xlink="http://www.w3.org/1999/xlink" xmlns="http://www.w3.org/2000/svg"><path fill="#ffffff" d="M0 0L600.0 0L600.0 371.0L0 371.0L0 0Z" fill-rule="nonzero"/><path stroke="#333333" stroke-width="1.0" stroke-linecap="butt" d="M45.5 332.5L581.5 332.5" fill-rule="nonzero"/><path stroke="#cccccc" stroke-width="1.0" stroke-linecap="butt" d="M45.5 238.5L581.5 238.5" fill-rule="nonzero"/><path stroke="#cccccc" stroke-width="1.0" stroke-linecap="butt" d="M45.5 145.5L581.5 145.5" fill-rule="nonzero"/><path stroke="#cccccc" stroke-width="1.0" stroke-linecap="butt" d="M45.5 51.5L581.5 51.5" fill-rule="nonzero"/><clipPath id="id_0"><path d="M45.55 51.916668L581.45 51.916668L581.45 332.45L45.55 332.45L45.55 51.916668Z" clip-rule="nonzero"/></clipPath><path stroke="#4285f4" stroke-width="2.0" stroke-linecap="butt" clip-path="url(#id_0)" d="M75.32222 96.05391L134.86667 97.17604L194.41112 103.5348L253.95555 87.45089L313.5 94.55773L373.04443 100.1684L432.5889 88.386L492.13333 89.32111L551.6778 93.68496" fill-rule="nonzero"/><path stroke="#ea4335" stroke-width="2.0" stroke-linecap="butt" clip-path="url(#id_0)" d="M75.32222 112.51186L134.86667 109.893555L194.41112 110.2676L253.95555 99.42031L313.5 100.1684L373.04443 108.02333L432.5889 95.39933L492.13333 97.42541L551.6778 78.72318" fill-rule="nonzero"/><path fill="#000000" fill-opacity="0.0" clip-path="url(#id_0)" d="M78.32222 96.05391C78.32222 97.71076 76.97908 99.05391 75.32222 99.05391C73.66537 99.05391 72.32222 97.71076 72.32222 96.05391C72.32222 94.39706 73.66537 93.05391 75.32222 93.05391C76.97908 93.05391 78.32222 94.39706 78.32222 96.05391Z" fill-rule="nonzero"/><path fill="#000000" fill-opacity="0.0" clip-path="url(#id_0)" d="M137.86667 97.17604C137.86667 98.8329 136.52351 100.17604 134.86667 100.17604C133.20981 100.17604 131.86667 98.8329 131.86667 97.17604C131.86667 95.51919 133.20981 94.17604 134.86667 94.17604C136.52351 94.17604 137.86667 95.51919 137.86667 97.17604Z" fill-rule="nonzero"/><path fill="#000000" fill-opacity="0.0" clip-path="url(#id_0)" d="M197.41112 103.5348C197.41112 105.19166 196.06796 106.5348 194.41112 106.5348C192.75426 106.5348 191.41112 105.19166 191.41112 103.5348C191.41112 101.877945 192.75426 100.5348 194.41112 100.5348C196.06796 100.5348 197.41112 101.877945 197.41112 103.5348Z" fill-rule="nonzero"/><path fill="#000000" fill-opacity="0.0" clip-path="url(#id_0)" d="M256.95557 87.45089C256.95557 89.10774 255.61241 90.45089 253.95555 90.45089C252.2987 90.45089 250.95555 89.10774 250.95555 87.45089C250.95555 85.79404 252.2987 84.45089 253.95555 84.45089C255.61241 84.45089 256.95557 85.79404 256.95557 87.45089Z" fill-rule="nonzero"/><path fill="#000000" fill-opacity="0.0" clip-path="url(#id_0)" d="M316.5 94.55773C316.5 96.214584 315.15686 97.55773 313.5 97.55773C311.84314 97.55773 310.5 96.214584 310.5 94.55773C310.5 92.90088 311.84314 91.55773 313.5 91.55773C315.15686 91.55773 316.5 92.90088 316.5 94.55773Z" fill-rule="nonzero"/><path fill="#000000" fill-opacity="0.0" clip-path="url(#id_0)" d="M376.04443 100.1684C376.04443 101.82526 374.7013 103.1684 373.04443 103.1684C371.3876 103.1684 370.04443 101.82526 370.04443 100.1684C370.04443 98.51154 371.3876 97.1684 373.04443 97.1684C374.7013 97.1684 376.04443 98.51154 376.04443 100.1684Z" fill-rule="nonzero"/><path fill="#000000" fill-opacity="0.0" clip-path="url(#id_0)" d="M435.5889 88.386C435.5889 90.042854 434.24576 91.386 432.5889 91.386C430.93204 91.386 429.5889 90.042854 429.5889 88.386C429.5889 86.72915 430.93204 85.386 432.5889 85.386C434.24576 85.386 435.5889 86.72915 435.5889 88.386Z" fill-rule="nonzero"/><path fill="#000000" fill-opacity="0.0" clip-path="url(#id_0)" d="M495.13333 89.32111C495.13333 90.97797 493.7902 92.32111 492.13333 92.32111C490.47647 92.32111 489.13333 90.97797 489.13333 89.32111C489.13333 87.66425 490.47647 86.32111 492.13333 86.32111C493.7902 86.32111 495.13333 87.66425 495.13333 89.32111Z" fill-rule="nonzero"/><path fill="#000000" fill-opacity="0.0" clip-path="url(#id_0)" d="M554.6778 93.68496C554.6778 95.34182 553.33466 96.68496 551.6778 96.68496C550.02094 96.68496 548.6778 95.34182 548.6778 93.68496C548.6778 92.02811 550.02094 90.68496 551.6778 90.68496C553.33466 90.68496 554.6778 92.02811 554.6778 93.68496Z" fill-rule="nonzero"/><path fill="#000000" fill-opacity="0.0" clip-path="url(#id_0)" d="M78.32222 112.51186C78.32222 114.168724 76.97908 115.51186 75.32222 115.51186C73.66537 115.51186 72.32222 114.168724 72.32222 112.51186C72.32222 110.85501 73.66537 109.51186 75.32222 109.51186C76.97908 109.51186 78.32222 110.85501 78.32222 112.51186Z" fill-rule="nonzero"/><path fill="#000000" fill-opacity="0.0" clip-path="url(#id_0)" d="M137.86667 109.893555C137.86667 111.55041 136.52351 112.893555 134.86667 112.893555C133.20981 112.893555 131.86667 111.55041 131.86667 109.893555C131.86667 108.2367 133.20981 106.893555 134.86667 106.893555C136.52351 106.893555 137.86667 108.2367 137.86667 109.893555Z" fill-rule="nonzero"/><path fill="#000000" fill-opacity="0.0" clip-path="url(#id_0)" d="M197.41112 110.2676C197.41112 111.92445 196.06796 113.2676 194.41112 113.2676C192.75426 113.2676 191.41112 111.92445 191.41112 110.2676C191.41112 108.61075 192.75426 107.2676 194.41112 107.2676C196.06796 107.2676 197.41112 108.61075 197.41112 110.2676Z" fill-rule="nonzero"/><path fill="#000000" fill-opacity="0.0" clip-path="url(#id_0)" d="M256.95557 99.42031C256.95557 101.07716 255.61241 102.42031 253.95555 102.42031C252.2987 102.42031 250.95555 101.07716 250.95555 99.42031C250.95555 97.76346 252.2987 96.42031 253.95555 96.42031C255.61241 96.42031 256.95557 97.76346 256.95557 99.42031Z" fill-rule="nonzero"/><path fill="#000000" fill-opacity="0.0" clip-path="url(#id_0)" d="M316.5 100.1684C316.5 101.82526 315.15686 103.1684 313.5 103.1684C311.84314 103.1684 310.5 101.82526 310.5 100.1684C310.5 98.51154 311.84314 97.1684 313.5 97.1684C315.15686 97.1684 316.5 98.51154 316.5 100.1684Z" fill-rule="nonzero"/><path fill="#000000" fill-opacity="0.0" clip-path="url(#id_0)" d="M376.04443 108.02333C376.04443 109.68019 374.7013 111.02333 373.04443 111.02333C371.3876 111.02333 370.04443 109.68019 370.04443 108.02333C370.04443 106.36648 371.3876 105.02333 373.04443 105.02333C374.7013 105.02333 376.04443 106.36648 376.04443 108.02333Z" fill-rule="nonzero"/><path fill="#000000" fill-opacity="0.0" clip-path="url(#id_0)" d="M435.5889 95.39933C435.5889 97.05619 434.24576 98.39933 432.5889 98.39933C430.93204 98.39933 429.5889 97.05619 429.5889 95.39933C429.5889 93.74248 430.93204 92.39933 432.5889 92.39933C434.24576 92.39933 435.5889 93.74248 435.5889 95.39933Z" fill-rule="nonzero"/><path fill="#000000" fill-opacity="0.0" clip-path="url(#id_0)" d="M495.13333 97.42541C495.13333 99.08226 493.7902 100.42541 492.13333 100.42541C490.47647 100.42541 489.13333 99.08226 489.13333 97.42541C489.13333 95.768555 490.47647 94.42541 492.13333 94.42541C493.7902 94.42541 495.13333 95.768555 495.13333 97.42541Z" fill-rule="nonzero"/><path fill="#000000" fill-opacity="0.0" clip-path="url(#id_0)" d="M554.6778 78.72318C554.6778 80.38004 553.33466 81.72318 551.6778 81.72318C550.02094 81.72318 548.6778 80.38004 548.6778 78.72318C548.6778 77.06633 550.02094 75.72318 551.6778 75.72318C553.33466 75.72318 554.6778 77.06633 554.6778 78.72318Z" fill-rule="nonzero"/><path fill="#000000" d="M33.05 332.21564Q33.05 330.6844 33.3625 329.7625Q33.675 328.825 34.284374 328.325Q34.909374 327.825 35.846874 327.825Q36.534374 327.825 37.05 328.10626Q37.58125 328.3875 37.925 328.91876Q38.26875 329.4344 38.45625 330.1844Q38.64375 330.9344 38.64375 332.21564Q38.64375 333.73126 38.33125 334.65314Q38.034374 335.575 37.409374 336.09064Q36.8 336.59064 35.846874 336.59064Q34.6125 336.59064 33.89375 335.7Q33.05 334.6375 33.05 332.21564ZM34.128124 332.21564Q34.128124 334.325 34.628124 335.02814Q35.128124 335.73126 35.846874 335.73126Q36.58125 335.73126 37.065624 335.02814Q37.565624 334.325 37.565624 332.21564Q37.565624 330.09064 37.065624 329.40314Q36.58125 328.7 35.83125 328.7Q35.1125 328.7 34.675 329.3094Q34.128124 330.09064 34.128124 332.21564Z" fill-rule="nonzero"/><path fill="#000000" d="M26.05 240.68889L27.159374 240.59514Q27.284374 241.40764 27.721874 241.81389Q28.175 242.22014 28.815624 242.22014Q29.565624 242.22014 30.096874 241.64201Q30.628124 241.06389 30.628124 240.12639Q30.628124 239.22014 30.1125 238.70451Q29.6125 238.17326 28.784374 238.17326Q28.284374 238.17326 27.8625 238.40764Q27.45625 238.64201 27.221874 239.00139L26.2375 238.87639L27.065624 234.47014L31.346874 234.47014L31.346874 235.47014L27.909374 235.47014L27.45625 237.78264Q28.221874 237.23576 29.065624 237.23576Q30.190624 237.23576 30.95625 238.01701Q31.7375 238.79826 31.7375 240.03264Q31.7375 241.18889 31.065624 242.04826Q30.2375 243.07951 28.815624 243.07951Q27.64375 243.07951 26.89375 242.42326Q26.159374 241.76701 26.05 240.68889ZM33.05 238.70451Q33.05 237.17326 33.3625 236.25139Q33.675 235.31389 34.284374 234.81389Q34.909374 234.31389 35.846874 234.31389Q36.534374 234.31389 37.05 234.59514Q37.58125 234.87639 37.925 235.40764Q38.26875 235.92326 38.45625 236.67326Q38.64375 237.42326 38.64375 238.70451Q38.64375 240.22014 38.33125 241.14201Q38.034374 242.06389 37.409374 242.57951Q36.8 243.07951 35.846874 243.07951Q34.6125 243.07951 33.89375 242.18889Q33.05 241.12639 33.05 238.70451ZM34.128124 238.70451Q34.128124 240.81389 34.628124 241.51701Q35.128124 242.22014 35.846874 242.22014Q36.58125 242.22014 37.065624 241.51701Q37.565624 240.81389 37.565624 238.70451Q37.565624 236.57951 37.065624 235.89201Q36.58125 235.18889 35.83125 235.18889Q35.1125 235.18889 34.675 235.79826Q34.128124 236.57951 34.128124 238.70451Z" fill-rule="nonzero"/><path fill="#000000" d="M23.01875 149.42778L21.971874 149.42778L21.971874 142.70903Q21.58125 143.0684 20.95625 143.4434Q20.346874 143.80278 19.8625 143.97466L19.8625 142.95903Q20.7375 142.53716 21.39375 141.95903Q22.065624 141.36528 22.346874 140.80278L23.01875 140.80278L23.01875 149.42778ZM26.05 145.1934Q26.05 143.66216 26.3625 142.74028Q26.675 141.80278 27.284374 141.30278Q27.909374 140.80278 28.846874 140.80278Q29.534374 140.80278 30.05 141.08403Q30.58125 141.36528 30.925 141.89653Q31.26875 142.41216 31.45625 143.16216Q31.64375 143.91216 31.64375 145.1934Q31.64375 146.70903 31.33125 147.6309Q31.034374 148.55278 30.409374 149.0684Q29.8 149.5684 28.846874 149.5684Q27.6125 149.5684 26.89375 148.67778Q26.05 147.61528 26.05 145.1934ZM27.128124 145.1934Q27.128124 147.30278 27.628124 148.0059Q28.128124 148.70903 28.846874 148.70903Q29.58125 148.70903 30.065624 148.0059Q30.565624 147.30278 30.565624 145.1934Q30.565624 143.0684 30.065624 142.3809Q29.58125 141.67778 28.83125 141.67778Q28.1125 141.67778 27.675 142.28716Q27.128124 143.0684 27.128124 145.1934ZM33.05 145.1934Q33.05 143.66216 33.3625 142.74028Q33.675 141.80278 34.284374 141.30278Q34.909374 140.80278 35.846874 140.80278Q36.534374 140.80278 37.05 141.08403Q37.58125 141.36528 37.925 141.89653Q38.26875 142.41216 38.45625 143.16216Q38.64375 143.91216 38.64375 145.1934Q38.64375 146.70903 38.33125 147.6309Q38.034374 148.55278 37.409374 149.0684Q36.8 149.5684 35.846874 149.5684Q34.6125 149.5684 33.89375 148.67778Q33.05 147.61528 33.05 145.1934ZM34.128124 145.1934Q34.128124 147.30278 34.628124 148.0059Q35.128124 148.70903 35.846874 148.70903Q36.58125 148.70903 37.065624 148.0059Q37.565624 147.30278 37.565624 145.1934Q37.565624 143.0684 37.065624 142.3809Q36.58125 141.67778 35.83125 141.67778Q35.1125 141.67778 34.675 142.28716Q34.128124 143.0684 34.128124 145.1934Z" fill-rule="nonzero"/><path fill="#000000" d="M23.01875 55.916668L21.971874 55.916668L21.971874 49.197918Q21.58125 49.557293 20.95625 49.932293Q20.346874 50.291668 19.8625 50.463543L19.8625 49.447918Q20.7375 49.026043 21.39375 48.447918Q22.065624 47.854168 22.346874 47.291668L23.01875 47.291668L23.01875 55.916668ZM26.05 53.666668L27.159374 53.572918Q27.284374 54.385418 27.721874 54.791668Q28.175 55.197918 28.815624 55.197918Q29.565624 55.197918 30.096874 54.619793Q30.628124 54.041668 30.628124 53.104168Q30.628124 52.197918 30.1125 51.682293Q29.6125 51.151043 28.784374 51.151043Q28.284374 51.151043 27.8625 51.385418Q27.45625 51.619793 27.221874 51.979168L26.2375 51.854168L27.065624 47.447918L31.346874 47.447918L31.346874 48.447918L27.909374 48.447918L27.45625 50.760418Q28.221874 50.213543 29.065624 50.213543Q30.190624 50.213543 30.95625 50.994793Q31.7375 51.776043 31.7375 53.010418Q31.7375 54.166668 31.065624 55.026043Q30.2375 56.057293 28.815624 56.057293Q27.64375 56.057293 26.89375 55.401043Q26.159374 54.744793 26.05 53.666668ZM33.05 51.682293Q33.05 50.151043 33.3625 49.229168Q33.675 48.291668 34.284374 47.791668Q34.909374 47.291668 35.846874 47.291668Q36.534374 47.291668 37.05 47.572918Q37.58125 47.854168 37.925 48.385418Q38.26875 48.901043 38.45625 49.651043Q38.64375 50.401043 38.64375 51.682293Q38.64375 53.197918 38.33125 54.119793Q38.034374 55.041668 37.409374 55.557293Q36.8 56.057293 35.846874 56.057293Q34.6125 56.057293 33.89375 55.166668Q33.05 54.104168 33.05 51.682293ZM34.128124 51.682293Q34.128124 53.791668 34.628124 54.494793Q35.128124 55.197918 35.846874 55.197918Q36.58125 55.197918 37.065624 54.494793Q37.565624 53.791668 37.565624 51.682293Q37.565624 49.557293 37.065624 48.869793Q36.58125 48.166668 35.83125 48.166668Q35.1125 48.166668 34.675 48.776043Q34.128124 49.557293 34.128124 51.682293Z" fill-rule="nonzero"/><path fill="#000000" d="M69.29097 349.45L68.244095 349.45L68.244095 342.73126Q67.85347 343.09064 67.22847 343.46564Q66.619095 343.825 66.13472 343.9969L66.13472 342.98126Q67.00972 342.5594 67.66597 341.98126Q68.337845 341.3875 68.619095 340.825L69.29097 340.825L69.29097 349.45ZM72.32222 345.21564Q72.32222 343.6844 72.63472 342.7625Q72.94722 341.825 73.556595 341.325Q74.181595 340.825 75.119095 340.825Q75.806595 340.825 76.32222 341.10626Q76.85347 341.3875 77.19722 341.91876Q77.54097 342.4344 77.72847 343.1844Q77.91597 343.9344 77.91597 345.21564Q77.91597 346.73126 77.60347 347.65314Q77.306595 348.575 76.681595 349.09064Q76.07222 349.59064 75.119095 349.59064Q73.88472 349.59064 73.16597 348.7Q72.32222 347.6375 72.32222 345.21564ZM73.400345 345.21564Q73.400345 347.325 73.900345 348.02814Q74.400345 348.73126 75.119095 348.73126Q75.85347 348.73126 76.337845 348.02814Q76.837845 347.325 76.837845 345.21564Q76.837845 343.09064 76.337845 342.40314Q75.85347 341.7 75.10347 341.7Q74.38472 341.7 73.94722 342.3094Q73.400345 343.09064 73.400345 345.21564ZM79.32222 345.21564Q79.32222 343.6844 79.63472 342.7625Q79.94722 341.825 80.556595 341.325Q81.181595 340.825 82.119095 340.825Q82.806595 340.825 83.32222 341.10626Q83.85347 341.3875 84.19722 341.91876Q84.54097 342.4344 84.72847 343.1844Q84.91597 343.9344 84.91597 345.21564Q84.91597 346.73126 84.60347 347.65314Q84.306595 348.575 83.681595 349.09064Q83.07222 349.59064 82.119095 349.59064Q80.88472 349.59064 80.16597 348.7Q79.32222 347.6375 79.32222 345.21564ZM80.400345 345.21564Q80.400345 347.325 80.900345 348.02814Q81.400345 348.73126 82.119095 348.73126Q82.85347 348.73126 83.337845 348.02814Q83.837845 347.325 83.837845 345.21564Q83.837845 343.09064 83.337845 342.40314Q82.85347 341.7 82.10347 341.7Q81.38472 341.7 80.94722 342.3094Q80.400345 343.09064 80.400345 345.21564Z" fill-rule="nonzero"/><path fill="#000000" d="M130.41354 348.4344L130.41354 349.45L124.72604 349.45Q124.72604 349.075 124.85104 348.71564Q125.06979 348.1375 125.53854 347.575Q126.02292 347.0125 126.92917 346.27814Q128.33542 345.1219 128.8198 344.45Q129.3198 343.77814 129.3198 343.1844Q129.3198 342.5594 128.86667 342.1375Q128.41354 341.7 127.69479 341.7Q126.92917 341.7 126.47604 342.15314Q126.02292 342.60626 126.00729 343.41876L124.92917 343.3094Q125.03854 342.09064 125.75729 341.46564Q126.49167 340.825 127.72604 340.825Q128.96042 340.825 129.67917 341.5125Q130.39792 342.2 130.39792 343.21564Q130.39792 343.73126 130.17917 344.23126Q129.97604 344.71564 129.47604 345.27814Q128.99167 345.825 127.86667 346.77814Q126.91354 347.575 126.63229 347.8719Q126.36667 348.15314 126.19479 348.4344L130.41354 348.4344ZM131.86667 345.21564Q131.86667 343.6844 132.17917 342.7625Q132.49167 341.825 133.10104 341.325Q133.72604 340.825 134.66354 340.825Q135.35104 340.825 135.86667 341.10626Q136.39792 341.3875 136.74167 341.91876Q137.08542 342.4344 137.27292 343.1844Q137.46042 343.9344 137.46042 345.21564Q137.46042 346.73126 137.14792 347.65314Q136.85104 348.575 136.22604 349.09064Q135.61667 349.59064 134.66354 349.59064Q133.42917 349.59064 132.71042 348.7Q131.86667 347.6375 131.86667 345.21564ZM132.9448 345.21564Q132.9448 347.325 133.4448 348.02814Q133.9448 348.73126 134.66354 348.73126Q135.39792 348.73126 135.8823 348.02814Q136.3823 347.325 136.3823 345.21564Q136.3823 343.09064 135.8823 342.40314Q135.39792 341.7 134.64792 341.7Q133.92917 341.7 133.49167 342.3094Q132.9448 343.09064 132.9448 345.21564ZM138.86667 345.21564Q138.86667 343.6844 139.17917 342.7625Q139.49167 341.825 140.10104 341.325Q140.72604 340.825 141.66354 340.825Q142.35104 340.825 142.86667 341.10626Q143.39792 341.3875 143.74167 341.91876Q144.08542 342.4344 144.27292 343.1844Q144.46042 343.9344 144.46042 345.21564Q144.46042 346.73126 144.14792 347.65314Q143.85104 348.575 143.22604 349.09064Q142.61667 349.59064 141.66354 349.59064Q140.42917 349.59064 139.71042 348.7Q138.86667 347.6375 138.86667 345.21564ZM139.9448 345.21564Q139.9448 347.325 140.4448 348.02814Q140.9448 348.73126 141.66354 348.73126Q142.39792 348.73126 142.8823 348.02814Q143.3823 347.325 143.3823 345.21564Q143.3823 343.09064 142.8823 342.40314Q142.39792 341.7 141.64792 341.7Q140.92917 341.7 140.49167 342.3094Q139.9448 343.09064 139.9448 345.21564Z" fill-rule="nonzero"/><path fill="#000000" d="M184.41112 347.1844L185.47362 347.04376Q185.6455 347.9344 186.083 348.34064Q186.5205 348.73126 187.1455 348.73126Q187.8955 348.73126 188.41112 348.21564Q188.92674 347.7 188.92674 346.9344Q188.92674 346.21564 188.44237 345.7469Q187.97362 345.2625 187.23924 345.2625Q186.94237 345.2625 186.48924 345.3875L186.61424 344.45Q186.72362 344.46564 186.78612 344.46564Q187.458 344.46564 187.98924 344.1219Q188.53612 343.7625 188.53612 343.02814Q188.53612 342.45 188.1455 342.075Q187.75487 341.6844 187.12987 341.6844Q186.5205 341.6844 186.09862 342.075Q185.69237 342.46564 185.583 343.23126L184.5205 343.04376Q184.708 341.9969 185.3955 341.41876Q186.083 340.825 187.09862 340.825Q187.80174 340.825 188.3955 341.1375Q188.98924 341.4344 189.30174 341.95Q189.61424 342.46564 189.61424 343.0594Q189.61424 343.60626 189.31737 344.075Q189.0205 344.52814 188.44237 344.79376Q189.19237 344.96564 189.61424 345.52814Q190.03612 346.075 190.03612 346.91876Q190.03612 348.04376 189.208 348.825Q188.3955 349.60626 187.1455 349.60626Q186.0205 349.60626 185.2705 348.9344Q184.5205 348.2469 184.41112 347.1844ZM191.41112 345.21564Q191.41112 343.6844 191.72362 342.7625Q192.03612 341.825 192.6455 341.325Q193.2705 340.825 194.208 340.825Q194.8955 340.825 195.41112 341.10626Q195.94237 341.3875 196.28612 341.91876Q196.62987 342.4344 196.81737 343.1844Q197.00487 343.9344 197.00487 345.21564Q197.00487 346.73126 196.69237 347.65314Q196.3955 348.575 195.7705 349.09064Q195.16112 349.59064 194.208 349.59064Q192.97362 349.59064 192.25487 348.7Q191.41112 347.6375 191.41112 345.21564ZM192.48924 345.21564Q192.48924 347.325 192.98924 348.02814Q193.48924 348.73126 194.208 348.73126Q194.94237 348.73126 195.42674 348.02814Q195.92674 347.325 195.92674 345.21564Q195.92674 343.09064 195.42674 342.40314Q194.94237 341.7 194.19237 341.7Q193.47362 341.7 193.03612 342.3094Q192.48924 343.09064 192.48924 345.21564ZM198.41112 345.21564Q198.41112 343.6844 198.72362 342.7625Q199.03612 341.825 199.6455 341.325Q200.2705 340.825 201.208 340.825Q201.8955 340.825 202.41112 341.10626Q202.94237 341.3875 203.28612 341.91876Q203.62987 342.4344 203.81737 343.1844Q204.00487 343.9344 204.00487 345.21564Q204.00487 346.73126 203.69237 347.65314Q203.3955 348.575 202.7705 349.09064Q202.16112 349.59064 201.208 349.59064Q199.97362 349.59064 199.25487 348.7Q198.41112 347.6375 198.41112 345.21564ZM199.48924 345.21564Q199.48924 347.325 199.98924 348.02814Q200.48924 348.73126 201.208 348.73126Q201.94237 348.73126 202.42674 348.02814Q202.92674 347.325 202.92674 345.21564Q202.92674 343.09064 202.42674 342.40314Q201.94237 341.7 201.19237 341.7Q200.47362 341.7 200.03612 342.3094Q199.48924 343.09064 199.48924 345.21564Z" fill-rule="nonzero"/><path fill="#000000" d="M247.33055 349.45L247.33055 347.3875L243.6118 347.3875L243.6118 346.41876L247.53368 340.85626L248.39305 340.85626L248.39305 346.41876L249.5493 346.41876L249.5493 347.3875L248.39305 347.3875L248.39305 349.45L247.33055 349.45ZM247.33055 346.41876L247.33055 342.5594L244.64305 346.41876L247.33055 346.41876ZM250.95555 345.21564Q250.95555 343.6844 251.26805 342.7625Q251.58055 341.825 252.18993 341.325Q252.81493 340.825 253.75243 340.825Q254.43993 340.825 254.95555 341.10626Q255.4868 341.3875 255.83055 341.91876Q256.17432 342.4344 256.36182 343.1844Q256.54932 343.9344 256.54932 345.21564Q256.54932 346.73126 256.23682 347.65314Q255.93993 348.575 255.31493 349.09064Q254.70555 349.59064 253.75243 349.59064Q252.51805 349.59064 251.7993 348.7Q250.95555 347.6375 250.95555 345.21564ZM252.03368 345.21564Q252.03368 347.325 252.53368 348.02814Q253.03368 348.73126 253.75243 348.73126Q254.4868 348.73126 254.97118 348.02814Q255.47118 347.325 255.47118 345.21564Q255.47118 343.09064 254.97118 342.40314Q254.4868 341.7 253.7368 341.7Q253.01805 341.7 252.58055 342.3094Q252.03368 343.09064 252.03368 345.21564ZM257.95557 345.21564Q257.95557 343.6844 258.26807 342.7625Q258.58057 341.825 259.18994 341.325Q259.81494 340.825 260.75244 340.825Q261.43994 340.825 261.95557 341.10626Q262.48682 341.3875 262.83057 341.91876Q263.17432 342.4344 263.36182 343.1844Q263.54932 343.9344 263.54932 345.21564Q263.54932 346.73126 263.23682 347.65314Q262.93994 348.575 262.31494 349.09064Q261.70557 349.59064 260.75244 349.59064Q259.51807 349.59064 258.79932 348.7Q257.95557 347.6375 257.95557 345.21564ZM259.0337 345.21564Q259.0337 347.325 259.5337 348.02814Q260.0337 348.73126 260.75244 348.73126Q261.48682 348.73126 261.9712 348.02814Q262.4712 347.325 262.4712 345.21564Q262.4712 343.09064 261.9712 342.40314Q261.48682 341.7 260.73682 341.7Q260.01807 341.7 259.58057 342.3094Q259.0337 343.09064 259.0337 345.21564Z" fill-rule="nonzero"/><path fill="#000000" d="M303.5 347.2L304.60938 347.10626Q304.73438 347.91876 305.17188 348.325Q305.625 348.73126 306.26562 348.73126Q307.01562 348.73126 307.54688 348.15314Q308.07812 347.575 308.07812 346.6375Q308.07812 345.73126 307.5625 345.21564Q307.0625 344.6844 306.23438 344.6844Q305.73438 344.6844 305.3125 344.91876Q304.90625 345.15314 304.67188 345.5125L303.6875 345.3875L304.51562 340.98126L308.79688 340.98126L308.79688 341.98126L305.35938 341.98126L304.90625 344.29376Q305.67188 343.7469 306.51562 343.7469Q307.64062 343.7469 308.40625 344.52814Q309.1875 345.3094 309.1875 346.54376Q309.1875 347.7 308.51562 348.5594Q307.6875 349.59064 306.26562 349.59064Q305.09375 349.59064 304.34375 348.9344Q303.60938 348.27814 303.5 347.2ZM310.5 345.21564Q310.5 343.6844 310.8125 342.7625Q311.125 341.825 311.73438 341.325Q312.35938 340.825 313.29688 340.825Q313.98438 340.825 314.5 341.10626Q315.03125 341.3875 315.375 341.91876Q315.71875 342.4344 315.90625 343.1844Q316.09375 343.9344 316.09375 345.21564Q316.09375 346.73126 315.78125 347.65314Q315.48438 348.575 314.85938 349.09064Q314.25 349.59064 313.29688 349.59064Q312.0625 349.59064 311.34375 348.7Q310.5 347.6375 310.5 345.21564ZM311.57812 345.21564Q311.57812 347.325 312.07812 348.02814Q312.57812 348.73126 313.29688 348.73126Q314.03125 348.73126 314.51562 348.02814Q315.01562 347.325 315.01562 345.21564Q315.01562 343.09064 314.51562 342.40314Q314.03125 341.7 313.28125 341.7Q312.5625 341.7 312.125 342.3094Q311.57812 343.09064 311.57812 345.21564ZM317.5 345.21564Q317.5 343.6844 317.8125 342.7625Q318.125 341.825 318.73438 341.325Q319.35938 340.825 320.29688 340.825Q320.98438 340.825 321.5 341.10626Q322.03125 341.3875 322.375 341.91876Q322.71875 342.4344 322.90625 343.1844Q323.09375 343.9344 323.09375 345.21564Q323.09375 346.73126 322.78125 347.65314Q322.48438 348.575 321.85938 349.09064Q321.25 349.59064 320.29688 349.59064Q319.0625 349.59064 318.34375 348.7Q317.5 347.6375 317.5 345.21564ZM318.57812 345.21564Q318.57812 347.325 319.07812 348.02814Q319.57812 348.73126 320.29688 348.73126Q321.03125 348.73126 321.51562 348.02814Q322.01562 347.325 322.01562 345.21564Q322.01562 343.09064 321.51562 342.40314Q321.03125 341.7 320.28125 341.7Q319.5625 341.7 319.125 342.3094Q318.57812 343.09064 318.57812 345.21564Z" fill-rule="nonzero"/><path fill="#000000" d="M368.51318 342.96564L367.4663 343.04376Q367.32568 342.41876 367.07568 342.1375Q366.63818 341.6844 366.01318 341.6844Q365.51318 341.6844 365.12256 341.96564Q364.63818 342.34064 364.3413 343.04376Q364.06006 343.73126 364.04443 345.0125Q364.41943 344.4344 364.9663 344.15314Q365.5288 343.8719 366.13818 343.8719Q367.18506 343.8719 367.91943 344.65314Q368.66943 345.4344 368.66943 346.65314Q368.66943 347.46564 368.31006 348.16876Q367.9663 348.85626 367.35693 349.23126Q366.74756 349.59064 365.98193 349.59064Q364.6538 349.59064 363.82568 348.6219Q362.99756 347.65314 362.99756 345.4344Q362.99756 342.9344 363.91943 341.8094Q364.7163 340.825 366.07568 340.825Q367.0913 340.825 367.73193 341.40314Q368.38818 341.96564 368.51318 342.96564ZM364.2163 346.66876Q364.2163 347.21564 364.43506 347.71564Q364.66943 348.2 365.07568 348.46564Q365.49756 348.73126 365.9663 348.73126Q366.62256 348.73126 367.10693 348.2Q367.5913 347.65314 367.5913 346.73126Q367.5913 345.84064 367.10693 345.325Q366.63818 344.8094 365.91943 344.8094Q365.20068 344.8094 364.70068 345.325Q364.2163 345.84064 364.2163 346.66876ZM370.04443 345.21564Q370.04443 343.6844 370.35693 342.7625Q370.66943 341.825 371.2788 341.325Q371.9038 340.825 372.8413 340.825Q373.5288 340.825 374.04443 341.10626Q374.57568 341.3875 374.91943 341.91876Q375.26318 342.4344 375.45068 343.1844Q375.63818 343.9344 375.63818 345.21564Q375.63818 346.73126 375.32568 347.65314Q375.0288 348.575 374.4038 349.09064Q373.79443 349.59064 372.8413 349.59064Q371.60693 349.59064 370.88818 348.7Q370.04443 347.6375 370.04443 345.21564ZM371.12256 345.21564Q371.12256 347.325 371.62256 348.02814Q372.12256 348.73126 372.8413 348.73126Q373.57568 348.73126 374.06006 348.02814Q374.56006 347.325 374.56006 345.21564Q374.56006 343.09064 374.06006 342.40314Q373.57568 341.7 372.82568 341.7Q372.10693 341.7 371.66943 342.3094Q371.12256 343.09064 371.12256 345.21564ZM377.04443 345.21564Q377.04443 343.6844 377.35693 342.7625Q377.66943 341.825 378.2788 341.325Q378.9038 340.825 379.8413 340.825Q380.5288 340.825 381.04443 341.10626Q381.57568 341.3875 381.91943 341.91876Q382.26318 342.4344 382.45068 343.1844Q382.63818 343.9344 382.63818 345.21564Q382.63818 346.73126 382.32568 347.65314Q382.0288 348.575 381.4038 349.09064Q380.79443 349.59064 379.8413 349.59064Q378.60693 349.59064 377.88818 348.7Q377.04443 347.6375 377.04443 345.21564ZM378.12256 345.21564Q378.12256 347.325 378.62256 348.02814Q379.12256 348.73126 379.8413 348.73126Q380.57568 348.73126 381.06006 348.02814Q381.56006 347.325 381.56006 345.21564Q381.56006 343.09064 381.06006 342.40314Q380.57568 341.7 379.82568 341.7Q379.10693 341.7 378.66943 342.3094Q378.12256 343.09064 378.12256 345.21564Z" fill-rule="nonzero"/><path fill="#000000" d="M422.6514 341.98126L422.6514 340.96564L428.2139 340.96564L428.2139 341.79376Q427.4014 342.66876 426.5889 344.1219Q425.79202 345.5594 425.35452 347.09064Q425.0264 348.16876 424.94827 349.45L423.85452 349.45Q423.87015 348.4344 424.24515 346.9969Q424.63577 345.5594 425.3389 344.23126Q426.05765 342.90314 426.87015 341.98126L422.6514 341.98126ZM429.5889 345.21564Q429.5889 343.6844 429.9014 342.7625Q430.2139 341.825 430.82327 341.325Q431.44827 340.825 432.38577 340.825Q433.07327 340.825 433.5889 341.10626Q434.12015 341.3875 434.4639 341.91876Q434.80765 342.4344 434.99515 343.1844Q435.18265 343.9344 435.18265 345.21564Q435.18265 346.73126 434.87015 347.65314Q434.57327 348.575 433.94827 349.09064Q433.3389 349.59064 432.38577 349.59064Q431.1514 349.59064 430.43265 348.7Q429.5889 347.6375 429.5889 345.21564ZM430.66702 345.21564Q430.66702 347.325 431.16702 348.02814Q431.66702 348.73126 432.38577 348.73126Q433.12015 348.73126 433.60452 348.02814Q434.10452 347.325 434.10452 345.21564Q434.10452 343.09064 433.60452 342.40314Q433.12015 341.7 432.37015 341.7Q431.6514 341.7 431.2139 342.3094Q430.66702 343.09064 430.66702 345.21564ZM436.5889 345.21564Q436.5889 343.6844 436.9014 342.7625Q437.2139 341.825 437.82327 341.325Q438.44827 340.825 439.38577 340.825Q440.07327 340.825 440.5889 341.10626Q441.12015 341.3875 441.4639 341.91876Q441.80765 342.4344 441.99515 343.1844Q442.18265 343.9344 442.18265 345.21564Q442.18265 346.73126 441.87015 347.65314Q441.57327 348.575 440.94827 349.09064Q440.3389 349.59064 439.38577 349.59064Q438.1514 349.59064 437.43265 348.7Q436.5889 347.6375 436.5889 345.21564ZM437.66702 345.21564Q437.66702 347.325 438.16702 348.02814Q438.66702 348.73126 439.38577 348.73126Q440.12015 348.73126 440.60452 348.02814Q441.10452 347.325 441.10452 345.21564Q441.10452 343.09064 440.60452 342.40314Q440.12015 341.7 439.37015 341.7Q438.6514 341.7 438.2139 342.3094Q437.66702 343.09064 437.66702 345.21564Z" fill-rule="nonzero"/><path fill="#000000" d="M483.75833 344.79376Q483.10208 344.54376 482.77396 344.10626Q482.46146 343.65314 482.46146 343.04376Q482.46146 342.10626 483.13333 341.46564Q483.82083 340.825 484.9302 340.825Q486.0552 340.825 486.7427 341.48126Q487.4302 342.1375 487.4302 343.075Q487.4302 343.66876 487.1177 344.10626Q486.8052 344.54376 486.16458 344.79376Q486.96146 345.04376 487.3677 345.6219Q487.77396 346.2 487.77396 346.9969Q487.77396 348.09064 486.9927 348.84064Q486.22708 349.59064 484.94583 349.59064Q483.6802 349.59064 482.89896 348.84064Q482.1177 348.09064 482.1177 346.96564Q482.1177 346.1219 482.53958 345.5594Q482.97708 344.9969 483.75833 344.79376ZM483.53958 342.9969Q483.53958 343.60626 483.9302 343.9969Q484.33646 344.3875 484.96146 344.3875Q485.57083 344.3875 485.96146 344.0125Q486.35208 343.6219 486.35208 343.0594Q486.35208 342.48126 485.94583 342.09064Q485.53958 341.6844 484.94583 341.6844Q484.33646 341.6844 483.9302 342.075Q483.53958 342.46564 483.53958 342.9969ZM483.21146 346.96564Q483.21146 347.41876 483.41458 347.84064Q483.63333 348.2625 484.0552 348.4969Q484.47708 348.73126 484.96146 348.73126Q485.71146 348.73126 486.19583 348.2469Q486.69583 347.7625 486.69583 347.0125Q486.69583 346.2469 486.19583 345.7469Q485.69583 345.2469 484.9302 345.2469Q484.1802 345.2469 483.69583 345.7469Q483.21146 346.23126 483.21146 346.96564ZM489.13333 345.21564Q489.13333 343.6844 489.44583 342.7625Q489.75833 341.825 490.3677 341.325Q490.9927 340.825 491.9302 340.825Q492.6177 340.825 493.13333 341.10626Q493.66458 341.3875 494.00833 341.91876Q494.35208 342.4344 494.53958 343.1844Q494.72708 343.9344 494.72708 345.21564Q494.72708 346.73126 494.41458 347.65314Q494.1177 348.575 493.4927 349.09064Q492.88333 349.59064 491.9302 349.59064Q490.69583 349.59064 489.97708 348.7Q489.13333 347.6375 489.13333 345.21564ZM490.21146 345.21564Q490.21146 347.325 490.71146 348.02814Q491.21146 348.73126 491.9302 348.73126Q492.66458 348.73126 493.14896 348.02814Q493.64896 347.325 493.64896 345.21564Q493.64896 343.09064 493.14896 342.40314Q492.66458 341.7 491.91458 341.7Q491.19583 341.7 490.75833 342.3094Q490.21146 343.09064 490.21146 345.21564ZM496.13333 345.21564Q496.13333 343.6844 496.44583 342.7625Q496.75833 341.825 497.3677 341.325Q497.9927 340.825 498.9302 340.825Q499.6177 340.825 500.13333 341.10626Q500.66458 341.3875 501.00833 341.91876Q501.35208 342.4344 501.53958 343.1844Q501.72708 343.9344 501.72708 345.21564Q501.72708 346.73126 501.41458 347.65314Q501.1177 348.575 500.4927 349.09064Q499.88333 349.59064 498.9302 349.59064Q497.69583 349.59064 496.97708 348.7Q496.13333 347.6375 496.13333 345.21564ZM497.21146 345.21564Q497.21146 347.325 497.71146 348.02814Q498.21146 348.73126 498.9302 348.73126Q499.66458 348.73126 500.14896 348.02814Q500.64896 347.325 500.64896 345.21564Q500.64896 343.09064 500.14896 342.40314Q499.66458 341.7 498.91458 341.7Q498.19583 341.7 497.75833 342.3094Q497.21146 343.09064 497.21146 345.21564Z" fill-rule="nonzero"/><path fill="#000000" d="M541.83405 347.46564L542.8497 347.3719Q542.9747 348.09064 543.33405 348.41876Q543.70905 348.73126 544.27155 348.73126Q544.7559 348.73126 545.1153 348.5125Q545.4903 348.27814 545.7247 347.91876Q545.95905 347.54376 546.1153 346.91876Q546.27155 346.27814 546.27155 345.6219Q546.27155 345.54376 546.27155 345.40314Q545.95905 345.90314 545.4122 346.23126Q544.8653 346.54376 544.2247 346.54376Q543.14655 346.54376 542.4122 345.77814Q541.6778 344.9969 541.6778 343.73126Q541.6778 342.41876 542.4434 341.6219Q543.2247 340.825 544.3809 340.825Q545.20905 340.825 545.89655 341.27814Q546.5997 341.73126 546.95905 342.575Q547.3184 343.40314 547.3184 344.98126Q547.3184 346.6219 546.95905 347.60626Q546.6153 348.575 545.89655 349.09064Q545.1934 349.59064 544.2559 349.59064Q543.2403 349.59064 542.5997 349.04376Q541.95905 348.48126 541.83405 347.46564ZM546.14655 343.66876Q546.14655 342.7625 545.6622 342.23126Q545.1934 341.7 544.5059 341.7Q543.8028 341.7 543.27155 342.27814Q542.7559 342.84064 542.7559 343.7625Q542.7559 344.575 543.2559 345.09064Q543.7559 345.60626 544.4747 345.60626Q545.20905 345.60626 545.6778 345.09064Q546.14655 344.575 546.14655 343.66876ZM548.6778 345.21564Q548.6778 343.6844 548.9903 342.7625Q549.3028 341.825 549.9122 341.325Q550.5372 340.825 551.4747 340.825Q552.1622 340.825 552.6778 341.10626Q553.20905 341.3875 553.5528 341.91876Q553.89655 342.4344 554.08405 343.1844Q554.27155 343.9344 554.27155 345.21564Q554.27155 346.73126 553.95905 347.65314Q553.6622 348.575 553.0372 349.09064Q552.4278 349.59064 551.4747 349.59064Q550.2403 349.59064 549.52155 348.7Q548.6778 347.6375 548.6778 345.21564ZM549.7559 345.21564Q549.7559 347.325 550.2559 348.02814Q550.7559 348.73126 551.4747 348.73126Q552.20905 348.73126 552.6934 348.02814Q553.1934 347.325 553.1934 345.21564Q553.1934 343.09064 552.6934 342.40314Q552.20905 341.7 551.45905 341.7Q550.7403 341.7 550.3028 342.3094Q549.7559 343.09064 549.7559 345.21564ZM555.6778 345.21564Q555.6778 343.6844 555.9903 342.7625Q556.3028 341.825 556.9122 341.325Q557.5372 340.825 558.4747 340.825Q559.1622 340.825 559.6778 341.10626Q560.20905 341.3875 560.5528 341.91876Q560.89655 342.4344 561.08405 343.1844Q561.27155 343.9344 561.27155 345.21564Q561.27155 346.73126 560.95905 347.65314Q560.6622 348.575 560.0372 349.09064Q559.4278 349.59064 558.4747 349.59064Q557.2403 349.59064 556.52155 348.7Q555.6778 347.6375 555.6778 345.21564ZM556.7559 345.21564Q556.7559 347.325 557.2559 348.02814Q557.7559 348.73126 558.4747 348.73126Q559.20905 348.73126 559.6934 348.02814Q560.1934 347.325 560.1934 345.21564Q560.1934 343.09064 559.6934 342.40314Q559.20905 341.7 558.45905 341.7Q557.7403 341.7 557.3028 342.3094Q556.7559 343.09064 556.7559 345.21564Z" fill-rule="nonzero"/><path stroke="#4285f4" stroke-width="4.0" stroke-linecap="butt" d="M228.0 25.55L240.0 25.55" fill-rule="nonzero"/><path fill="#1a1a1a" d="M248.70312 23.01875Q248.70312 22.096874 249.15625 21.45625Q249.625 20.815624 250.5 20.815624Q251.3125 20.815624 251.84375 21.39375Q252.375 21.971874 252.375 23.08125Q252.375 24.175 251.82812 24.76875Q251.29688 25.346874 250.51562 25.346874Q249.73438 25.346874 249.21875 24.76875Q248.70312 24.190624 248.70312 23.01875ZM250.53125 21.534374Q250.14062 21.534374 249.875 21.878124Q249.625 22.221874 249.625 23.128124Q249.625 23.95625 249.875 24.3Q250.14062 24.628124 250.53125 24.628124Q250.9375 24.628124 251.1875 24.284374Q251.45312 23.940624 251.45312 23.05Q251.45312 22.20625 251.1875 21.878124Q250.92188 21.534374 250.53125 21.534374ZM250.53125 29.8625L255.23438 20.815624L256.09375 20.815624L251.40625 29.8625L250.53125 29.8625ZM254.25 27.534374Q254.25 26.6125 254.70312 25.971874Q255.17188 25.33125 256.0625 25.33125Q256.875 25.33125 257.40625 25.909374Q257.9375 26.471874 257.9375 27.596874Q257.9375 28.690624 257.39062 29.284374Q256.85938 29.8625 256.0625 29.8625Q255.29688 29.8625 254.76562 29.284374Q254.25 28.70625 254.25 27.534374ZM256.09375 26.05Q255.6875 26.05 255.42188 26.39375Q255.17188 26.7375 255.17188 27.64375Q255.17188 28.45625 255.4375 28.8Q255.70312 29.14375 256.09375 29.14375Q256.48438 29.14375 256.75 28.8Q257.01562 28.45625 257.01562 27.55Q257.01562 26.721874 256.75 26.39375Q256.48438 26.05 256.09375 26.05ZM259.79688 29.55L259.79688 23.33125L260.73438 23.33125L260.73438 24.20625Q261.03125 23.7375 261.51562 23.471874Q262.0 23.190624 262.625 23.190624Q263.3125 23.190624 263.75 23.471874Q264.20312 23.753124 264.375 24.26875Q265.125 23.190624 266.29688 23.190624Q267.23438 23.190624 267.71875 23.70625Q268.21875 24.20625 268.21875 25.284374L268.21875 29.55L267.17188 29.55L267.17188 25.628124Q267.17188 25.003124 267.0625 24.721874Q266.96875 24.440624 266.70312 24.26875Q266.4375 24.096874 266.0625 24.096874Q265.40625 24.096874 264.96875 24.534374Q264.54688 24.971874 264.54688 25.940624L264.54688 29.55L263.48438 29.55L263.48438 25.503124Q263.48438 24.8 263.21875 24.45625Q262.96875 24.096874 262.39062 24.096874Q261.9375 24.096874 261.5625 24.33125Q261.1875 24.565624 261.01562 25.01875Q260.84375 25.471874 260.84375 26.315624L260.84375 29.55L259.79688 29.55ZM270.375 27.690624L271.40625 27.534374Q271.5 28.159374 271.89062 28.4875Q272.29688 28.815624 273.03125 28.815624Q273.75 28.815624 274.09375 28.534374Q274.45312 28.2375 274.45312 27.83125Q274.45312 27.471874 274.14062 27.26875Q273.92188 27.128124 273.0625 26.909374Q271.90625 26.6125 271.45312 26.409374Q271.01562 26.190624 270.78125 25.815624Q270.54688 25.440624 270.54688 24.971874Q270.54688 24.565624 270.73438 24.20625Q270.92188 23.846874 271.25 23.6125Q271.5 23.440624 271.92188 23.315624Q272.34375 23.190624 272.84375 23.190624Q273.5625 23.190624 274.10938 23.409374Q274.67188 23.6125 274.9375 23.971874Q275.20312 24.33125 275.29688 24.925L274.26562 25.065624Q274.20312 24.596874 273.85938 24.33125Q273.53125 24.05 272.90625 24.05Q272.1875 24.05 271.875 24.3Q271.5625 24.534374 271.5625 24.8625Q271.5625 25.065624 271.6875 25.221874Q271.82812 25.39375 272.09375 25.503124Q272.25 25.565624 273.03125 25.76875Q274.15625 26.08125 274.59375 26.26875Q275.03125 26.45625 275.28125 26.815624Q275.53125 27.175 275.53125 27.721874Q275.53125 28.253124 275.21875 28.721874Q274.92188 29.175 274.34375 29.440624Q273.76562 29.690624 273.03125 29.690624Q271.8125 29.690624 271.17188 29.190624Q270.54688 28.675 270.375 27.690624ZM280.09375 28.6125L280.25 29.534374Q279.79688 29.628124 279.45312 29.628124Q278.875 29.628124 278.5625 29.45625Q278.25 29.26875 278.10938 28.971874Q277.98438 28.675 277.98438 27.721874L277.98438 24.14375L277.21875 24.14375L277.21875 23.33125L277.98438 23.33125L277.98438 21.784374L279.03125 21.159374L279.03125 23.33125L280.09375 23.33125L280.09375 24.14375L279.03125 24.14375L279.03125 27.784374Q279.03125 28.2375 279.07812 28.3625Q279.14062 28.4875 279.26562 28.565624Q279.39062 28.64375 279.625 28.64375Q279.8125 28.64375 280.09375 28.6125ZM282.51562 29.55L280.15625 23.33125L281.26562 23.33125L282.60938 27.05Q282.8125 27.659374 283.0 28.3Q283.14062 27.815624 283.39062 27.128124L284.78125 23.33125L285.85938 23.33125L283.5 29.55L282.51562 29.55ZM289.46875 29.55L288.42188 29.55L288.42188 22.83125Q288.03125 23.190624 287.40625 23.565624Q286.79688 23.925 286.3125 24.096874L286.3125 23.08125Q287.1875 22.659374 287.84375 22.08125Q288.51562 21.4875 288.79688 20.925L289.46875 20.925L289.46875 29.55Z" fill-rule="nonzero"/><path stroke="#ea4335" stroke-width="4.0" stroke-linecap="butt" d="M308.0 25.55L320.0 25.55" fill-rule="nonzero"/><path fill="#1a1a1a" d="M328.70312 23.01875Q328.70312 22.096874 329.15625 21.45625Q329.625 20.815624 330.5 20.815624Q331.3125 20.815624 331.84375 21.39375Q332.375 21.971874 332.375 23.08125Q332.375 24.175 331.82812 24.76875Q331.29688 25.346874 330.51562 25.346874Q329.73438 25.346874 329.21875 24.76875Q328.70312 24.190624 328.70312 23.01875ZM330.53125 21.534374Q330.14062 21.534374 329.875 21.878124Q329.625 22.221874 329.625 23.128124Q329.625 23.95625 329.875 24.3Q330.14062 24.628124 330.53125 24.628124Q330.9375 24.628124 331.1875 24.284374Q331.45312 23.940624 331.45312 23.05Q331.45312 22.20625 331.1875 21.878124Q330.92188 21.534374 330.53125 21.534374ZM330.53125 29.8625L335.23438 20.815624L336.09375 20.815624L331.40625 29.8625L330.53125 29.8625ZM334.25 27.534374Q334.25 26.6125 334.70312 25.971874Q335.17188 25.33125 336.0625 25.33125Q336.875 25.33125 337.40625 25.909374Q337.9375 26.471874 337.9375 27.596874Q337.9375 28.690624 337.39062 29.284374Q336.85938 29.8625 336.0625 29.8625Q335.29688 29.8625 334.76562 29.284374Q334.25 28.70625 334.25 27.534374ZM336.09375 26.05Q335.6875 26.05 335.42188 26.39375Q335.17188 26.7375 335.17188 27.64375Q335.17188 28.45625 335.4375 28.8Q335.70312 29.14375 336.09375 29.14375Q336.48438 29.14375 336.75 28.8Q337.01562 28.45625 337.01562 27.55Q337.01562 26.721874 336.75 26.39375Q336.48438 26.05 336.09375 26.05ZM339.79688 29.55L339.79688 23.33125L340.73438 23.33125L340.73438 24.20625Q341.03125 23.7375 341.51562 23.471874Q342.0 23.190624 342.625 23.190624Q343.3125 23.190624 343.75 23.471874Q344.20312 23.753124 344.375 24.26875Q345.125 23.190624 346.29688 23.190624Q347.23438 23.190624 347.71875 23.70625Q348.21875 24.20625 348.21875 25.284374L348.21875 29.55L347.17188 29.55L347.17188 25.628124Q347.17188 25.003124 347.0625 24.721874Q346.96875 24.440624 346.70312 24.26875Q346.4375 24.096874 346.0625 24.096874Q345.40625 24.096874 344.96875 24.534374Q344.54688 24.971874 344.54688 25.940624L344.54688 29.55L343.48438 29.55L343.48438 25.503124Q343.48438 24.8 343.21875 24.45625Q342.96875 24.096874 342.39062 24.096874Q341.9375 24.096874 341.5625 24.33125Q341.1875 24.565624 341.01562 25.01875Q340.84375 25.471874 340.84375 26.315624L340.84375 29.55L339.79688 29.55ZM350.375 27.690624L351.40625 27.534374Q351.5 28.159374 351.89062 28.4875Q352.29688 28.815624 353.03125 28.815624Q353.75 28.815624 354.09375 28.534374Q354.45312 28.2375 354.45312 27.83125Q354.45312 27.471874 354.14062 27.26875Q353.92188 27.128124 353.0625 26.909374Q351.90625 26.6125 351.45312 26.409374Q351.01562 26.190624 350.78125 25.815624Q350.54688 25.440624 350.54688 24.971874Q350.54688 24.565624 350.73438 24.20625Q350.92188 23.846874 351.25 23.6125Q351.5 23.440624 351.92188 23.315624Q352.34375 23.190624 352.84375 23.190624Q353.5625 23.190624 354.10938 23.409374Q354.67188 23.6125 354.9375 23.971874Q355.20312 24.33125 355.29688 24.925L354.26562 25.065624Q354.20312 24.596874 353.85938 24.33125Q353.53125 24.05 352.90625 24.05Q352.1875 24.05 351.875 24.3Q351.5625 24.534374 351.5625 24.8625Q351.5625 25.065624 351.6875 25.221874Q351.82812 25.39375 352.09375 25.503124Q352.25 25.565624 353.03125 25.76875Q354.15625 26.08125 354.59375 26.26875Q355.03125 26.45625 355.28125 26.815624Q355.53125 27.175 355.53125 27.721874Q355.53125 28.253124 355.21875 28.721874Q354.92188 29.175 354.34375 29.440624Q353.76562 29.690624 353.03125 29.690624Q351.8125 29.690624 351.17188 29.190624Q350.54688 28.675 350.375 27.690624ZM360.09375 28.6125L360.25 29.534374Q359.79688 29.628124 359.45312 29.628124Q358.875 29.628124 358.5625 29.45625Q358.25 29.26875 358.10938 28.971874Q357.98438 28.675 357.98438 27.721874L357.98438 24.14375L357.21875 24.14375L357.21875 23.33125L357.98438 23.33125L357.98438 21.784374L359.03125 21.159374L359.03125 23.33125L360.09375 23.33125L360.09375 24.14375L359.03125 24.14375L359.03125 27.784374Q359.03125 28.2375 359.07812 28.3625Q359.14062 28.4875 359.26562 28.565624Q359.39062 28.64375 359.625 28.64375Q359.8125 28.64375 360.09375 28.6125ZM362.51562 29.55L360.15625 23.33125L361.26562 23.33125L362.60938 27.05Q362.8125 27.659374 363.0 28.3Q363.14062 27.815624 363.39062 27.128124L364.78125 23.33125L365.85938 23.33125L363.5 29.55L362.51562 29.55ZM371.04688 28.534374L371.04688 29.55L365.35938 29.55Q365.35938 29.175 365.48438 28.815624Q365.70312 28.2375 366.17188 27.675Q366.65625 27.1125 367.5625 26.378124Q368.96875 25.221874 369.45312 24.55Q369.95312 23.878124 369.95312 23.284374Q369.95312 22.659374 369.5 22.2375Q369.04688 21.8 368.32812 21.8Q367.5625 21.8 367.10938 22.253124Q366.65625 22.70625 366.64062 23.51875L365.5625 23.409374Q365.67188 22.190624 366.39062 21.565624Q367.125 20.925 368.35938 20.925Q369.59375 20.925 370.3125 21.6125Q371.03125 22.3 371.03125 23.315624Q371.03125 23.83125 370.8125 24.33125Q370.60938 24.815624 370.10938 25.378124Q369.625 25.925 368.5 26.878124Q367.54688 27.675 367.26562 27.971874Q367.0 28.253124 366.82812 28.534374L371.04688 28.534374Z" fill-rule="nonzero"/></svg>