<svg version="1.1" viewBox="0.0 0.0 600.0 371.0" fill="none" stroke="none" stroke-linecap="square" stroke-miterlimit="10" width="600" height="371" xmlns:xlink="http://www.w3.org/1999/xlink" xmlns="http://www.w3.org/2000/svg"><path fill="#ffffff" d="M0 0L600.0 0L600.0 371.0L0 371.0L0 0Z" fill-rule="nonzero"/><path stroke="#333333" stroke-width="1.0" stroke-linecap="butt" d="M45.5 332.5L581.5 332.5" fill-rule="nonzero"/><path stroke="#cccccc" stroke-width="1.0" stroke-linecap="butt" d="M45.5 238.5L581.5 238.5" fill-rule="nonzero"/><path stroke="#cccccc" stroke-width="1.0" stroke-linecap="butt" d="M45.5 145.5L581.5 145.5" fill-rule="nonzero"/><path stroke="#cccccc" stroke-width="1.0" stroke-linecap="butt" d="M45.5 51.5L581.5 51.5" fill-rule="nonzero"/><clipPath id="id_0"><path d="M45.55 51.916668L581.45 51.916668L581.45 332.45L45.55 332.45L45.55 51.916668Z" clip-rule="nonzero"/></clipPath><path stroke="#4285f4" stroke-width="2.0" stroke-linecap="butt" clip-path="url(#id_0)" d="M60.43611 94.516174L90.208336 80.34405L119.98055 87.45089L149.75278 76.22955L179.525 134.20645L209.29723 89.32111L239.06944 78.09978L268.84167 101.477554L298.6139 136.07666L328.3861 70.61889L358.15833 98.672226L387.93054 87.45089L417.7028 121.11489L447.475 102.41267L477.24722 130.466L507.01944 94.93178L536.7917 111.76378L566.5639 124.85533" fill-rule="nonzero"/><path stroke="#ea4335" stroke-width="2.0" stroke-linecap="butt" clip-path="url(#id_0)" d="M60.43611 98.256615L90.208336 88.198975L119.98055 106.153114L149.75278 91.19133L179.525 141.68733L209.29723 102.41267L239.06944 85.580666L268.84167 113.634L298.6139 136.07666L328.3861 94.93178L358.15833 104.28289L387.93054 87.45089L417.7028 121.11489L447.475 117.37444L477.24722 130.466L507.01944 111.76378L536.7917 128.59578L566.5639 124.85533" fill-rule="nonzero"/><path fill="#000000" fill-opacity="0.0" clip-path="url(#id_0)" d="M63.43611 94.516174C63.43611 96.17303 62.092964 97.516174 60.43611 97.516174C58.77926 97.516174 57.43611 96.17303 57.43611 94.516174C57.43611 92.85932 58.77926 91.516174 60.43611 91.516174C62.092964 91.516174 63.43611 92.85932 63.43611 94.516174Z" fill-rule="nonzero"/><path fill="#000000" fill-opacity="0.0" clip-path="url(#id_0)" d="M93.208336 80.34405C93.208336 82.0009 91.86519 83.34405 90.208336 83.34405C88.551476 83.34405 87.208336 82.0009 87.208336 80.34405C87.208336 78.68719 88.551476 77.34405 90.208336 77.34405C91.86519 77.34405 93.208336 78.68719 93.208336 80.34405Z" fill-rule="nonzero"/><path fill="#000000" fill-opacity="0.0" clip-path="url(#id_0)" d="M122.98055 87.45089C122.98055 89.10774 121.63741 90.45089 119.98055 90.45089C118.3237 90.45089 116.98055 89.10774 116.98055 87.45089C116.98055 85.79404 118.3237 84.45089 119.98055 84.45089C121.63741 84.45089 122.98055 85.79404 122.98055 87.45089Z" fill-rule="nonzero"/><path fill="#000000" fill-opacity="0.0" clip-path="url(#id_0)" d="M152.75278 76.22955C152.75278 77.88641 151.40964 79.22955 149.75278 79.22955C148.09592 79.22955 146.75278 77.88641 146.75278 76.22955C146.75278 74.5727 148.09592 73.22955 149.75278 73.22955C151.40964 73.22955 152.75278 74.5727 152.75278 76.22955Z" fill-rule="nonzero"/><path fill="#000000" fill-opacity="0.0" clip-path="url(#id_0)" d="M182.525 134.20645C182.525 135.8633 181.18185 137.20645 179.525 137.20645C177.86815 137.20645 176.525 135.8633 176.525 134.20645C176.525 132.54959 177.86815 131.20645 179.525 131.20645C181.18185 131.20645 182.525 132.54959 182.525 134.20645Z" fill-rule="nonzero"/><path fill="#000000" fill-opacity="0.0" clip-path="url(#id_0)" d="M212.29723 89.32111C212.29723 90.97797 210.95407 92.32111 209.29723 92.32111C207.64037 92.32111 206.29723 90.97797 206.29723 89.32111C206.29723 87.66425 207.64037 86.32111 209.29723 86.32111C210.95407 86.32111 212.29723 87.66425 212.29723 89.32111Z" fill-rule="nonzero"/><path fill="#000000" fill-opacity="0.0" clip-path="url(#id_0)" d="M242.06944 78.09978C242.06944 79.75663 240.7263 81.09978 239.06944 81.09978C237.4126 81.09978 236.06944 79.75663 236.06944 78.09978C236.06944 76.442924 237.4126 75.09978 239.06944 75.09978C240.7263 75.09978 242.06944 76.442924 242.06944 78.09978Z" fill-rule="nonzero"/><path fill="#000000" fill-opacity="0.0" clip-path="url(#id_0)" d="M271.84167 101.477554C271.84167 103.13441 270.49854 104.477554 268.84167 104.477554C267.1848 104.477554 265.84167 103.13441 265.84167 101.477554C265.84167 99.8207 267.1848 98.477554 268.84167 98.477554C270.49854 98.477554 271.84167 99.8207 271.84167 101.477554Z" fill-rule="nonzero"/><path fill="#000000" fill-opacity="0.0" clip-path="url(#id_0)" d="M301.6139 136.07666C301.6139 137.73352 300.27075 139.07666 298.6139 139.07666C296.95703 139.07666 295.6139 137.73352 295.6139 136.07666C295.6139 134.41982 296.95703 133.07666 298.6139 133.07666C300.27075 133.07666 301.6139 134.41982 301.6139 136.07666Z" fill-rule="nonzero"/><path fill="#000000" fill-opacity="0.0" clip-path="url(#id_0)" d="M331.3861 70.61889C331.3861 72.27574 330.04297 73.61889 328.3861 73.61889C326.72925 73.61889 325.3861 72.27574 325.3861 70.61889C325.3861 68.962036 326.72925 67.61889 328.3861 67.61889C330.04297 67.61889 331.3861 68.962036 331.3861 70.61889Z" fill-rule="nonzero"/><path fill="#000000" fill-opacity="0.0" clip-path="url(#id_0)" d="M361.15833 98.672226C361.15833 100.32908 359.8152 101.672226 358.15833 101.672226C356.50146 101.672226 355.15833 100.32908 355.15833 98.672226C355.15833 97.015366 356.50146 95.672226 358.15833 95.672226C359.8152 95.672226 361.15833 97.015366 361.15833 98.672226Z" fill-rule="nonzero"/><path fill="#000000" fill-opacity="0.0" clip-path="url(#id_0)" d="M390.93054 87.45089C390.93054 89.10774 389.5874 90.45089 387.93054 90.45089C386.2737 90.45089 384.93054 89.10774 384.93054 87.45089C384.93054 85.79404 386.2737 84.45089 387.93054 84.45089C389.5874 84.45089 390.93054 85.79404 390.93054 87.45089Z" fill-rule="nonzero"/><path fill="#000000" fill-opacity="0.0" clip-path="url(#id_0)" d="M420.7028 121.11489C420.7028 122.77174 419.35962 124.11489 417.7028 124.11489C416.04593 124.11489 414.7028 122.77174 414.7028 121.11489C414.7028 119.45804 416.04593 118.11489 417.7028 118.11489C419.35962 118.11489 420.7028 119.45804 420.7028 121.11489Z" fill-rule="nonzero"/><path fill="#000000" fill-opacity="0.0" clip-path="url(#id_0)" d="M450.475 102.41267C450.475 104.06952 449.13187 105.41267 447.475 105.41267C445.81815 105.41267 444.475 104.06952 444.475 102.41267C444.475 100.75581 445.81815 99.41267 447.475 99.41267C449.13187 99.41267 450.475 100.75581 450.475 102.41267Z" fill-rule="nonzero"/><path fill="#000000" fill-opacity="0.0" clip-path="url(#id_0)" d="M480.24722 130.466C480.24722 132.12285 478.90408 133.466 477.24722 133.466C475.59036 133.466 474.24722 132.12285 474.24722 130.466C474.24722 128.80914 475.59036 127.466 477.24722 127.466C478.90408 127.466 480.24722 128.80914 480.24722 130.466Z" fill-rule="nonzero"/><path fill="#000000" fill-opacity="0.0" clip-path="url(#id_0)" d="M510.01944 94.93178C510.01944 96.58863 508.6763 97.93178 507.01944 97.93178C505.36258 97.93178 504.01944 96.58863 504.01944 94.93178C504.01944 93.274925 505.36258 91.93178 507.01944 91.93178C508.6763 91.93178 510.01944 93.274925 510.01944 94.93178Z" fill-rule="nonzero"/><path fill="#000000" fill-opacity="0.0" clip-path="url(#id_0)" d="M539.7917 111.76378C539.7917 113.42063 538.44855 114.76378 536.7917 114.76378C535.1348 114.76378 533.7917 113.42063 533.7917 111.76378C533.7917 110.106926 535.1348 108.76378 536.7917 108.76378C538.44855 108.76378 539.7917 110.106926 539.7917 111.76378Z" fill-rule="nonzero"/><path fill="#000000" fill-opacity="0.0" clip-path="url(#id_0)" d="M569.5639 124.85533C569.5639 126.512184 568.22076 127.85533 566.5639 127.85533C564.90704 127.85533 563.5639 126.512184 563.5639 124.85533C563.5639 123.19848 564.90704 121.85533 566.5639 121.85533C568.22076 121.85533 569.5639 123.19848 569.5639 124.85533Z" fill-rule="nonzero"/><path fill="#000000" fill-opacity="0.0" clip-path="url(#id_0)" d="M63.43611 98.256615C63.43611 99.913475 62.092964 101.256615 60.43611 101.256615C58.77926 101.256615 57.43611 99.913475 57.43611 98.256615C57.43611 96.59976 58.77926 95.256615 60.43611 95.256615C62.092964 95.256615 63.43611 96.59976 63.43611 98.256615Z" fill-rule="nonzero"/><path fill="#000000" fill-opacity="0.0" clip-path="url(#id_0)" d="M93.208336 88.198975C93.208336 89.855835 91.86519 91.198975 90.208336 91.198975C88.551476 91.198975 87.208336 89.855835 87.208336 88.198975C87.208336 86.54212 88.551476 85.198975 90.208336 85.198975C91.86519 85.198975 93.208336 86.54212 93.208336 88.198975Z" fill-rule="nonzero"/><path fill="#000000" fill-opacity="0.0" clip-path="url(#id_0)" d="M122.98055 106.153114C122.98055 107.80997 121.63741 109.153114 119.98055 109.153114C118.3237 109.153114 116.98055 107.80997 116.98055 106.153114C116.98055 104.496254 118.3237 103.153114 119.98055 103.153114C121.63741 103.153114 122.98055 104.496254 122.98055 106.153114Z" fill-rule="nonzero"/><path fill="#000000" fill-opacity="0.0" clip-path="url(#id_0)" d="M152.75278 91.19133C152.75278 92.84819 151.40964 94.19133 149.75278 94.19133C148.09592 94.19133 146.75278 92.84819 146.75278 91.19133C146.75278 89.53448 148.09592 88.19133 149.75278 88.19133C151.40964 88.19133 152.75278 89.53448 152.75278 91.19133Z" fill-rule="nonzero"/><path fill="#000000" fill-opacity="0.0" clip-path="url(#id_0)" d="M182.525 141.68733C182.525 143.3442 181.18185 144.68733 179.525 144.68733C177.86815 144.68733 176.525 143.3442 176.525 141.68733C176.525 140.03047 177.86815 138.68733 179.525 138.68733C181.18185 138.68733 182.525 140.03047 182.525 141.68733Z" fill-rule="nonzero"/><path fill="#000000" fill-opacity="0.0" clip-path="url(#id_0)" d="M212.29723 102.41267C212.29723 104.06952 210.95407 105.41267 209.29723 105.41267C207.64037 105.41267 206.29723 104.06952 206.29723 102.41267C206.29723 100.75581 207.64037 99.41267 209.29723 99.41267C210.95407 99.41267 212.29723 100.75581 212.29723 102.41267Z" fill-rule="nonzero"/><path fill="#000000" fill-opacity="0.0" clip-path="url(#id_0)" d="M242.06944 85.580666C242.06944 87.23752 240.7263 88.580666 239.06944 88.580666C237.4126 88.580666 236.06944 87.23752 236.06944 85.580666C236.06944 83.92381 237.4126 82.580666 239.06944 82.580666C240.7263 82.580666 242.06944 83.92381 242.06944 85.580666Z" fill-rule="nonzero"/><path fill="#000000" fill-opacity="0.0" clip-path="url(#id_0)" d="M271.84167 113.634C271.84167 115.290855 270.49854 116.634 268.84167 116.634C267.1848 116.634 265.84167 115.290855 265.84167 113.634C265.84167 111.97714 267.1848 110.634 268.84167 110.634C270.49854 110.634 271.84167 111.97714 271.84167 113.634Z" fill-rule="nonzero"/><path fill="#000000" fill-opacity="0.0" clip-path="url(#id_0)" d="M301.6139 136.07666C301.6139 137.73352 300.27075 139.07666 298.6139 139.07666C296.95703 139.07666 295.6139 137.73352 295.6139 136.07666C295.6139 134.41982 296.95703 133.07666 298.6139 133.07666C300.27075 133.07666 301.6139 134.41982 301.6139 136.07666Z" fill-rule="nonzero"/><path fill="#000000" fill-opacity="0.0" clip-path="url(#id_0)" d="M331.3861 94.93178C331.3861 96.58863 330.04297 97.93178 328.3861 97.93178C326.72925 97.93178 325.3861 96.58863 325.3861 94.93178C325.3861 93.274925 326.72925 91.93178 328.3861 91.93178C330.04297 91.93178 331.3861 93.274925 331.3861 94.93178Z" fill-rule="nonzero"/><path fill="#000000" fill-opacity="0.0" clip-path="url(#id_0)" d="M361.15833 104.28289C361.15833 105.93974 359.8152 107.28289 358.15833 107.28289C356.50146 107.28289 355.15833 105.93974 355.15833 104.28289C355.15833 102.62604 356.50146 101.28289 358.15833 101.28289C359.8152 101.28289 361.15833 102.62604 361.15833 104.28289Z" fill-rule="nonzero"/><path fill="#000000" fill-opacity="0.0" clip-path="url(#id_0)" d="M390.93054 87.45089C390.93054 89.10774 389.5874 90.45089 387.93054 90.45089C386.2737 90.45089 384.93054 89.10774 384.93054 87.45089C384.93054 85.79404 386.2737 84.45089 387.93054 84.45089C389.5874 84.45089 390.93054 85.79404 390.93054 87.45089Z" fill-rule="nonzero"/><path fill="#000000" fill-opacity="0.0" clip-path="url(#id_0)" d="M420.7028 121.11489C420.7028 122.77174 419.35962 124.11489 417.7028 124.11489C416.04593 124.11489 414.7028 122.77174 414.7028 121.11489C414.7028 119.45804 416.04593 118.11489 417.7028 118.11489C419.35962 118.11489 420.7028 119.45804 420.7028 121.11489Z" fill-rule="nonzero"/><path fill="#000000" fill-opacity="0.0" clip-path="url(#id_0)" d="M450.475 117.37444C450.475 119.031296 449.13187 120.37444 447.475 120.37444C445.81815 120.37444 444.475 119.031296 444.475 117.37444C444.475 115.71759 445.81815 114.37444 447.475 114.37444C449.13187 114.37444 450.475 115.71759 450.475 117.37444Z" fill-rule="nonzero"/><path fill="#000000" fill-opacity="0.0" clip-path="url(#id_0)" d="M480.24722 130.466C480.24722 132.12285 478.90408 133.466 477.24722 133.466C475.59036 133.466 474.24722 132.12285 474.24722 130.466C474.24722 128.80914 475.59036 127.466 477.24722 127.466C478.90408 127.466 480.24722 128.80914 480.24722 130.466Z" fill-rule="nonzero"/><path fill="#000000" fill-opacity="0.0" clip-path="url(#id_0)" d="M510.01944 111.76378C510.01944 113.42063 508.6763 114.76378 507.01944 114.76378C505.36258 114.76378 504.01944 113.42063 504.01944 111.76378C504.01944 110.106926 505.36258 108.76378 507.01944 108.76378C508.6763 108.76378 510.01944 110.106926 510.01944 111.76378Z" fill-rule="nonzero"/><path fill="#000000" fill-opacity="0.0" clip-path="url(#id_0)" d="M539.7917 128.59578C539.7917 130.25262 538.44855 131.59578 536.7917 131.59578C535.1348 131.59578 533.7917 130.25262 533.7917 128.59578C533.7917 126.93893 535.1348 125.59578 536.7917 125.59578C538.44855 125.59578 539.7917 126.93893 539.7917 128.59578Z" fill-rule="nonzero"/><path fill="#000000" fill-opacity="0.0" clip-path="url(#id_0)" d="M569.5639 124.85533C569.5639 126.512184 568.22076 127.85533 566.5639 127.85533C564.90704 127.85533 563.5639 126.512184 563.5639 124.85533C563.5639 123.19848 564.90704 121.85533 566.5639 121.85533C568.22076 121.85533 569.5639 123.19848 569.5639 124.85533Z" fill-rule="nonzero"/><path fill="#000000" d="M33.05 332.21564Q33.05 330.6844 33.3625 329.7625Q33.675 328.825 34.284374 328.325Q34.909374 327.825 35.846874 327.825Q36.534374 327.825 37.05 328.10626Q37.58125 328.3875 37.925 328.91876Q38.26875 329.4344 38.45625 330.1844Q38.64375 330.9344 38.64375 332.21564Q38.64375 333.73126 38.33125 334.65314Q38.034374 335.575 37.409374 336.09064Q36.8 336.59064 35.846874 336.59064Q34.6125 336.59064 33.89375 335.7Q33.05 334.6375 33.05 332.21564ZM34.128124 332.21564Q34.128124 334.325 34.628124 335.02814Q35.128124 335.73126 35.846874 335.73126Q36.58125 335.73126 37.065624 335.02814Q37.565624 334.325 37.565624 332.21564Q37.565624 330.09064 37.065624 329.40314Q36.58125 328.7 35.83125 328.7Q35.1125 328.7 34.675 329.3094Q34.128124 330.09064 34.128124 332.21564Z" fill-rule="nonzero"/><path fill="#000000" d="M26.05 240.68889L27.159374 240.59514Q27.284374 241.40764 27.721874 241.81389Q28.175 242.22014 28.815624 242.22014Q29.565624 242.22014 30.096874 241.64201Q30.628124 241.06389 30.628124 240.12639Q30.628124 239.22014 30.1125 238.70451Q29.6125 238.17326 28.784374 238.17326Q28.284374 238.17326 27.8625 238.40764Q27.45625 238.64201 27.221874 239.00139L26.2375 238.87639L27.065624 234.47014L31.346874 234.47014L31.346874 235.47014L27.909374 235.47014L27.45625 237.78264Q28.221874 237.23576 29.065624 237.23576Q30.190624 237.23576 30.95625 238.01701Q31.7375 238.79826 31.7375 240.03264Q31.7375 241.18889 31.065624 242.04826Q30.2375 243.07951 28.815624 243.07951Q27.64375 243.07951 26.89375 242.42326Q26.159374 241.76701 26.05 240.68889ZM33.05 238.70451Q33.05 237.17326 33.3625 236.25139Q33.675 235.31389 34.284374 234.81389Q34.909374 234.31389 35.846874 234.31389Q36.534374 234.31389 37.05 234.59514Q37.58125 234.87639 37.925 235.40764Q38.26875 235.92326 38.45625 236.67326Q38.64375 237.42326 38.64375 238.70451Q38.64375 240.22014 38.33125 241.14201Q38.034374 242.06389 37.409374 242.57951Q36.8 243.07951 35.846874 243.07951Q34.6125 243.07951 33.89375 242.18889Q33.05 241.12639 33.05 238.70451ZM34.128124 238.70451Q34.128124 240.81389 34.628124 241.51701Q35.128124 242.22014 35.846874 242.22014Q36.58125 242.22014 37.065624 241.51701Q37.565624 240.81389 37.565624 238.70451Q37.565624 236.57951 37.065624 235.89201Q36.58125 235.18889 35.83125 235.18889Q35.1125 235.18889 34.675 235.79826Q34.128124 236.57951 34.128124 238.70451Z" fill-rule="nonzero"/><path fill="#000000" d="M23.01875 149.42778L21.971874 149.42778L21.971874 142.70903Q21.58125 143.0684 20.95625 143.4434Q20.346874 143.80278 19.8625 143.97466L19.8625 142.95903Q20.7375 142.53716 21.39375 141.95903Q22.065624 141.36528 22.346874 140.80278L23.01875 140.80278L23.01875 149.42778ZM26.05 145.1934Q26.05 143.66216 26.3625 142.74028Q26.675 141.80278 27.284374 141.30278Q27.909374 140.80278 28.846874 140.80278Q29.534374 140.80278 30.05 141.08403Q30.58125 141.36528 30.925 141.89653Q31.26875 142.41216 31.45625 143.16216Q31.64375 143.91216 31.64375 145.1934Q31.64375 146.70903 31.33125 147.6309Q31.034374 148.55278 30.409374 149.0684Q29.8 149.5684 28.846874 149.5684Q27.6125 149.5684 26.89375 148.67778Q26.05 147.61528 26.05 145.1934ZM27.128124 145.1934Q27.128124 147.30278 27.628124 148.0059Q28.128124 148.70903 28.846874 148.70903Q29.58125 148.70903 30.065624 148.0059Q30.565624 147.30278 30.565624 145.1934Q30.565624 143.0684 30.065624 142.3809Q29.58125 141.67778 28.83125 141.67778Q28.1125 141.67778 27.675 142.28716Q27.128124 143.0684 27.128124 145.1934ZM33.05 145.1934Q33.05 143.66216 33.3625 142.74028Q33.675 141.80278 34.284374 141.30278Q34.909374 140.80278 35.846874 140.80278Q36.534374 140.80278 37.05 141.08403Q37.58125 141.36528 37.925 141.89653Q38.26875 142.41216 38.45625 143.16216Q38.64375 143.91216 38.64375 145.1934Q38.64375 146.70903 38.33125 147.6309Q38.034374 148.55278 37.409374 149.0684Q36.8 149.5684 35.846874 149.5684Q34.6125 149.5684 33.89375 148.67778Q33.05 147.61528 33.05 145.1934ZM34.128124 145.1934Q34.128124 147.30278 34.628124 148.0059Q35.128124 148.70903 35.846874 148.70903Q36.58125 148.70903 37.065624 148.0059Q37.565624 147.30278 37.565624 145.1934Q37.565624 143.0684 37.065624 142.3809Q36.58125 141.67778 35.83125 141.67778Q35.1125 141.67778 34.675 142.28716Q34.128124 143.0684 34.128124 145.1934Z" fill-rule="nonzero"/><path fill="#000000" d="M23.01875 55.916668L21.971874 55.916668L21.971874 49.197918Q21.58125 49.557293 20.95625 49.932293Q20.346874 50.291668 19.8625 50.463543L19.8625 49.447918Q20.7375 49.026043 21.39375 48.447918Q22.065624 47.854168 22.346874 47.291668L23.01875 47.291668L23.01875 55.916668ZM26.05 53.666668L27.159374 53.572918Q27.284374 54.385418 27.721874 54.791668Q28.175 55.197918 28.815624 55.197918Q29.565624 55.197918 30.096874 54.619793Q30.628124 54.041668 30.628124 53.104168Q30.628124 52.197918 30.1125 51.682293Q29.6125 51.151043 28.784374 51.151043Q28.284374 51.151043 27.8625 51.385418Q27.45625 51.619793 27.221874 51.979168L26.2375 51.854168L27.065624 47.447918L31.346874 47.447918L31.346874 48.447918L27.909374 48.447918L27.45625 50.760418Q28.221874 50.213543 29.065624 50.213543Q30.190624 50.213543 30.95625 50.994793Q31.7375 51.776043 31.7375 53.010418Q31.7375 54.166668 31.065624 55.026043Q30.2375 56.057293 28.815624 56.057293Q27.64375 56.057293 26.89375 55.401043Q26.159374 54.744793 26.05 53.666668ZM33.05 51.682293Q33.05 50.151043 33.3625 49.229168Q33.675 48.291668 34.284374 47.791668Q34.909374 47.291668 35.846874 47.291668Q36.534374 47.291668 37.05 47.572918Q37.58125 47.854168 37.925 48.385418Q38.26875 48.901043 38.45625 49.651043Q38.64375 50.401043 38.64375 51.682293Q38.64375 53.197918 38.33125 54.119793Q38.034374 55.041668 37.409374 55.557293Q36.8 56.057293 35.846874 56.057293Q34.6125 56.057293 33.89375 55.166668Q33.05 54.104168 33.05 51.682293ZM34.128124 51.682293Q34.128124 53.791668 34.628124 54.494793Q35.128124 55.197918 35.846874 55.197918Q36.58125 55.197918 37.065624 54.494793Q37.565624 53.791668 37.565624 51.682293Q37.565624 49.557293 37.065624 48.869793Q36.58125 48.166668 35.83125 48.166668Q35.1125 48.166668 34.675 48.776043Q34.128124 49.557293 34.128124 51.682293Z" fill-rule="nonzero"/><path fill="#000000" d="M57.43611 347.2L58.545486 347.10626Q58.670486 347.91876 59.107986 348.325Q59.56111 348.73126 60.201736 348.73126Q60.951736 348.73126 61.482986 348.15314Q62.014236 347.575 62.014236 346.6375Q62.014236 345.73126 61.49861 345.21564Q60.99861 344.6844 60.170486 344.6844Q59.670486 344.6844 59.24861 344.91876Q58.84236 345.15314 58.607986 345.5125L57.62361 345.3875L58.451736 340.98126L62.732986 340.98126L62.732986 341.98126L59.295486 341.98126L58.84236 344.29376Q59.607986 343.7469 60.451736 343.7469Q61.576736 343.7469 62.34236 344.52814Q63.12361 345.3094 63.12361 346.54376Q63.12361 347.7 62.451736 348.5594Q61.62361 349.59064 60.201736 349.59064Q59.02986 349.59064 58.27986 348.9344Q57.545486 348.27814 57.43611 347.2Z" fill-rule="nonzero"/><path fill="#000000" d="M87.677086 349.45L86.63021 349.45L86.63021 342.73126Q86.239586 343.09064 85.614586 343.46564Q85.00521 343.825 84.520836 343.9969L84.520836 342.98126Q85.395836 342.5594 86.052086 341.98126Q86.72396 341.3875 87.00521 340.825L87.677086 340.825L87.677086 349.45ZM90.708336 345.21564Q90.708336 343.6844 91.020836 342.7625Q91.333336 341.825 91.94271 341.325Q92.56771 340.825 93.50521 340.825Q94.19271 340.825 94.708336 341.10626Q95.239586 341.3875 95.583336 341.91876Q95.927086 342.4344 96.114586 343.1844Q96.302086 343.9344 96.302086 345.21564Q96.302086 346.73126 95.989586 347.65314Q95.69271 348.575 95.06771 349.09064Q94.458336 349.59064 93.50521 349.59064Q92.270836 349.59064 91.552086 348.7Q90.708336 347.6375 90.708336 345.21564ZM91.78646 345.21564Q91.78646 347.325 92.28646 348.02814Q92.78646 348.73126 93.50521 348.73126Q94.239586 348.73126 94.72396 348.02814Q95.22396 347.325 95.22396 345.21564Q95.22396 343.09064 94.72396 342.40314Q94.239586 341.7 93.489586 341.7Q92.770836 341.7 92.333336 342.3094Q91.78646 343.09064 91.78646 345.21564Z" fill-rule="nonzero"/><path fill="#000000" d="M119.02743 348.4344L119.02743 349.45L113.33993 349.45Q113.33993 349.075 113.46493 348.71564Q113.68368 348.1375 114.15243 347.575Q114.6368 347.0125 115.54305 346.27814Q116.9493 345.1219 117.43368 344.45Q117.93368 343.77814 117.93368 343.1844Q117.93368 342.5594 117.48055 342.1375Q117.02743 341.7 116.30868 341.7Q115.54305 341.7 115.08993 342.15314Q114.6368 342.60626 114.62118 343.41876L113.54305 343.3094Q113.65243 342.09064 114.37118 341.46564Q115.10555 340.825 116.33993 340.825Q117.5743 340.825 118.29305 341.5125Q119.0118 342.2 119.0118 343.21564Q119.0118 343.73126 118.79305 344.23126Q118.58993 344.71564 118.08993 345.27814Q117.60555 345.825 116.48055 346.77814Q115.52743 347.575 115.24618 347.8719Q114.98055 348.15314 114.80868 348.4344L119.02743 348.4344ZM120.48055 345.21564Q120.48055 343.6844 120.79305 342.7625Q121.10555 341.825 121.71493 341.325Q122.33993 340.825 123.27743 340.825Q123.96493 340.825 124.48055 341.10626Q125.0118 341.3875 125.35555 341.91876Q125.6993 342.4344 125.8868 343.1844Q126.0743 343.9344 126.0743 345.21564Q126.0743 346.73126 125.7618 347.65314Q125.46493 348.575 124.83993 349.09064Q124.23055 349.59064 123.27743 349.59064Q122.04305 349.59064 121.3243 348.7Q120.48055 347.6375 120.48055 345.21564ZM121.55868 345.21564Q121.55868 347.325 122.05868 348.02814Q122.55868 348.73126 123.27743 348.73126Q124.0118 348.73126 124.49618 348.02814Q124.99618 347.325 124.99618 345.21564Q124.99618 343.09064 124.49618 342.40314Q124.0118 341.7 123.2618 341.7Q122.54305 341.7 122.10555 342.3094Q121.55868 343.09064 121.55868 345.21564Z" fill-rule="nonzero"/><path fill="#000000" d="M143.25278 347.1844L144.31528 347.04376Q144.48715 347.9344 144.92465 348.34064Q145.36215 348.73126 145.98715 348.73126Q146.73715 348.73126 147.25278 348.21564Q147.7684 347.7 147.7684 346.9344Q147.7684 346.21564 147.28403 345.7469Q146.81528 345.2625 146.0809 345.2625Q145.78403 345.2625 145.3309 345.3875L145.4559 344.45Q145.56528 344.46564 145.62778 344.46564Q146.29965 344.46564 146.8309 344.1219Q147.37778 343.7625 147.37778 343.02814Q147.37778 342.45 146.98715 342.075Q146.59653 341.6844 145.97153 341.6844Q145.36215 341.6844 144.94028 342.075Q144.53403 342.46564 144.42465 343.23126L143.36215 343.04376Q143.54965 341.9969 144.23715 341.41876Q144.92465 340.825 145.94028 340.825Q146.6434 340.825 147.23715 341.1375Q147.8309 341.4344 148.1434 341.95Q148.4559 342.46564 148.4559 343.0594Q148.4559 343.60626 148.15903 344.075Q147.86215 344.52814 147.28403 344.79376Q148.03403 344.96564 148.4559 345.52814Q148.87778 346.075 148.87778 346.91876Q148.87778 348.04376 148.04965 348.825Q147.23715 349.60626 145.98715 349.60626Q144.86215 349.60626 144.11215 348.9344Q143.36215 348.2469 143.25278 347.1844ZM150.25278 345.21564Q150.25278 343.6844 150.56528 342.7625Q150.87778 341.825 151.48715 341.325Q152.11215 340.825 153.04965 340.825Q153.73715 340.825 154.25278 341.10626Q154.78403 341.3875 155.12778 341.91876Q155.47153 342.4344 155.65903 343.1844Q155.84653 343.9344 155.84653 345.21564Q155.84653 346.73126 155.53403 347.65314Q155.23715 348.575 154.61215 349.09064Q154.00278 349.59064 153.04965 349.59064Q151.81528 349.59064 151.09653 348.7Q150.25278 347.6375 150.25278 345.21564ZM151.3309 345.21564Q151.3309 347.325 151.8309 348.02814Q152.3309 348.73126 153.04965 348.73126Q153.78403 348.73126 154.2684 348.02814Q154.7684 347.325 154.7684 345.21564Q154.7684 343.09064 154.2684 342.40314Q153.78403 341.7 153.03403 341.7Q152.31528 341.7 151.87778 342.3094Q151.3309 343.09064 151.3309 345.21564Z" fill-rule="nonzero"/><path fill="#000000" d="M173.025 347.1844L174.0875 347.04376Q174.25937 347.9344 174.69687 348.34064Q175.13437 348.73126 175.75937 348.73126Q176.50937 348.73126 177.025 348.21564Q177.54062 347.7 177.54062 346.9344Q177.54062 346.21564 177.05624 345.7469Q176.5875 345.2625 175.85312 345.2625Q175.55624 345.2625 175.10312 345.3875L175.22812 344.45Q175.3375 344.46564 175.4 344.46564Q176.07187 344.46564 176.60312 344.1219Q177.15 343.7625 177.15 343.02814Q177.15 342.45 176.75937 342.075Q176.36874 341.6844 175.74374 341.6844Q175.13437 341.6844 174.7125 342.075Q174.30624 342.46564 174.19687 343.23126L173.13437 343.04376Q173.32187 341.9969 174.00937 341.41876Q174.69687 340.825 175.7125 340.825Q176.41562 340.825 177.00937 341.1375Q177.60312 341.4344 177.91562 341.95Q178.22812 342.46564 178.22812 343.0594Q178.22812 343.60626 177.93124 344.075Q177.63437 344.52814 177.05624 344.79376Q177.80624 344.96564 178.22812 345.52814Q178.65 346.075 178.65 346.91876Q178.65 348.04376 177.82187 348.825Q177.00937 349.60626 175.75937 349.60626Q174.63437 349.60626 173.88437 348.9344Q173.13437 348.2469 173.025 347.1844ZM180.025 347.1844L181.0875 347.04376Q181.25937 347.9344 181.69687 348.34064Q182.13437 348.73126 182.75937 348.73126Q183.50937 348.73126 184.025 348.21564Q184.54062 347.7 184.54062 346.9344Q184.54062 346.21564 184.05624 345.7469Q183.5875 345.2625 182.85312 345.2625Q182.55624 345.2625 182.10312 345.3875L182.22812 344.45Q182.3375 344.46564 182.4 344.46564Q183.07187 344.46564 183.60312 344.1219Q184.15 343.7625 184.15 343.02814Q184.15 342.45 183.75937 342.075Q183.36874 341.6844 182.74374 341.6844Q182.13437 341.6844 181.7125 342.075Q181.30624 342.46564 181.19687 343.23126L180.13437 343.04376Q180.32187 341.9969 181.00937 341.41876Q181.69687 340.825 182.7125 340.825Q183.41562 340.825 184.00937 341.1375Q184.60312 341.4344 184.91562 341.95Q185.22812 342.46564 185.22812 343.0594Q185.22812 343.60626 184.93124 344.075Q184.63437 344.52814 184.05624 344.79376Q184.80624 344.96564 185.22812 345.52814Q185.65 346.075 185.65 346.91876Q185.65 348.04376 184.82187 348.825Q184.00937 349.60626 182.75937 349.60626Q181.63437 349.60626 180.88437 348.9344Q180.13437 348.2469 180.025 347.1844Z" fill-rule="nonzero"/><path fill="#000000" d="M206.17223 349.45L206.17223 347.3875L202.45348 347.3875L202.45348 346.41876L206.37535 340.85626L207.23473 340.85626L207.23473 346.41876L208.39098 346.41876L208.39098 347.3875L207.23473 347.3875L207.23473 349.45L206.17223 349.45ZM206.17223 346.41876L206.17223 342.5594L203.48473 346.41876L206.17223 346.41876ZM209.79723 345.21564Q209.79723 343.6844 210.10973 342.7625Q210.42223 341.825 211.0316 341.325Q211.6566 340.825 212.5941 340.825Q213.2816 340.825 213.79723 341.10626Q214.32848 341.3875 214.67223 341.91876Q215.01598 342.4344 215.20348 343.1844Q215.39098 343.9344 215.39098 345.21564Q215.39098 346.73126 215.07848 347.65314Q214.7816 348.575 214.1566 349.09064Q213.54723 349.59064 212.5941 349.59064Q211.35973 349.59064 210.64098 348.7Q209.79723 347.6375 209.79723 345.21564ZM210.87535 345.21564Q210.87535 347.325 211.37535 348.02814Q211.87535 348.73126 212.5941 348.73126Q213.32848 348.73126 213.81285 348.02814Q214.31285 347.325 214.31285 345.21564Q214.31285 343.09064 213.81285 342.40314Q213.32848 341.7 212.57848 341.7Q211.85973 341.7 211.42223 342.3094Q210.87535 343.09064 210.87535 345.21564Z" fill-rule="nonzero"/><path fill="#000000" d="M232.56944 347.2L233.67882 347.10626Q233.80382 347.91876 234.24132 348.325Q234.69444 348.73126 235.33507 348.73126Q236.08507 348.73126 236.61632 348.15314Q237.14757 347.575 237.14757 346.6375Q237.14757 345.73126 236.63194 345.21564Q236.13194 344.6844 235.30382 344.6844Q234.80382 344.6844 234.38194 344.91876Q233.9757 345.15314 233.74132 345.5125L232.75694 345.3875L233.58507 340.98126L237.86632 340.98126L237.86632 341.98126L234.42882 341.98126L233.9757 344.29376Q234.74132 343.7469 235.58507 343.7469Q236.71007 343.7469 237.4757 344.52814Q238.25694 345.3094 238.25694 346.54376Q238.25694 347.7 237.58507 348.5594Q236.75694 349.59064 235.33507 349.59064Q234.1632 349.59064 233.4132 348.9344Q232.67882 348.27814 232.56944 347.2ZM239.56944 345.21564Q239.56944 343.6844 239.88194 342.7625Q240.19444 341.825 240.80382 341.325Q241.42882 340.825 242.36632 340.825Q243.05382 340.825 243.56944 341.10626Q244.1007 341.3875 244.44444 341.91876Q244.7882 342.4344 244.9757 343.1844Q245.1632 343.9344 245.1632 345.21564Q245.1632 346.73126 244.8507 347.65314Q244.55382 348.575 243.92882 349.09064Q243.31944 349.59064 242.36632 349.59064Q241.13194 349.59064 240.4132 348.7Q239.56944 347.6375 239.56944 345.21564ZM240.64757 345.21564Q240.64757 347.325 241.14757 348.02814Q241.64757 348.73126 242.36632 348.73126Q243.1007 348.73126 243.58507 348.02814Q244.08507 347.325 244.08507 345.21564Q244.08507 343.09064 243.58507 342.40314Q243.1007 341.7 242.3507 341.7Q241.63194 341.7 241.19444 342.3094Q240.64757 343.09064 240.64757 345.21564Z" fill-rule="nonzero"/><path fill="#000000" d="M267.81042 342.96564L266.76355 343.04376Q266.62292 342.41876 266.37292 342.1375Q265.93542 341.6844 265.31042 341.6844Q264.81042 341.6844 264.4198 341.96564Q263.93542 342.34064 263.63855 343.04376Q263.3573 343.73126 263.34167 345.0125Q263.71667 344.4344 264.26355 344.15314Q264.82605 343.8719 265.43542 343.8719Q266.4823 343.8719 267.21667 344.65314Q267.96667 345.4344 267.96667 346.65314Q267.96667 347.46564 267.6073 348.16876Q267.26355 348.85626 266.65417 349.23126Q266.0448 349.59064 265.27917 349.59064Q263.95105 349.59064 263.12292 348.6219Q262.2948 347.65314 262.2948 345.4344Q262.2948 342.9344 263.21667 341.8094Q264.01355 340.825 265.37292 340.825Q266.38855 340.825 267.02917 341.40314Q267.68542 341.96564 267.81042 342.96564ZM263.51355 346.66876Q263.51355 347.21564 263.7323 347.71564Q263.96667 348.2 264.37292 348.46564Q264.7948 348.73126 265.26355 348.73126Q265.9198 348.73126 266.40417 348.2Q266.88855 347.65314 266.88855 346.73126Q266.88855 345.84064 266.40417 345.325Q265.93542 344.8094 265.21667 344.8094Q264.49792 344.8094 263.99792 345.325Q263.51355 345.84064 263.51355 346.66876ZM269.34167 345.21564Q269.34167 343.6844 269.65417 342.7625Q269.96667 341.825 270.57605 341.325Q271.20105 340.825 272.13855 340.825Q272.82605 340.825 273.34167 341.10626Q273.87292 341.3875 274.21667 341.91876Q274.56042 342.4344 274.74792 343.1844Q274.93542 343.9344 274.93542 345.21564Q274.93542 346.73126 274.62292 347.65314Q274.32605 348.575 273.70105 349.09064Q273.09167 349.59064 272.13855 349.59064Q270.90417 349.59064 270.18542 348.7Q269.34167 347.6375 269.34167 345.21564ZM270.4198 345.21564Q270.4198 347.325 270.9198 348.02814Q271.4198 348.73126 272.13855 348.73126Q272.87292 348.73126 273.3573 348.02814Q273.8573 347.325 273.8573 345.21564Q273.8573 343.09064 273.3573 342.40314Q272.87292 341.7 272.12292 341.7Q271.40417 341.7 270.96667 342.3094Q270.4198 343.09064 270.4198 345.21564Z" fill-rule="nonzero"/><path fill="#000000" d="M297.58264 342.96564L296.53577 343.04376Q296.39514 342.41876 296.14514 342.1375Q295.70764 341.6844 295.08264 341.6844Q294.58264 341.6844 294.19202 341.96564Q293.70764 342.34064 293.41077 343.04376Q293.12952 343.73126 293.1139 345.0125Q293.4889 344.4344 294.03577 344.15314Q294.59827 343.8719 295.20764 343.8719Q296.25452 343.8719 296.9889 344.65314Q297.7389 345.4344 297.7389 346.65314Q297.7389 347.46564 297.37952 348.16876Q297.03577 348.85626 296.4264 349.23126Q295.81702 349.59064 295.0514 349.59064Q293.72327 349.59064 292.89514 348.6219Q292.06702 347.65314 292.06702 345.4344Q292.06702 342.9344 292.9889 341.8094Q293.78577 340.825 295.14514 340.825Q296.16077 340.825 296.8014 341.40314Q297.45764 341.96564 297.58264 342.96564ZM293.28577 346.66876Q293.28577 347.21564 293.50452 347.71564Q293.7389 348.2 294.14514 348.46564Q294.56702 348.73126 295.03577 348.73126Q295.69202 348.73126 296.1764 348.2Q296.66077 347.65314 296.66077 346.73126Q296.66077 345.84064 296.1764 345.325Q295.70764 344.8094 294.9889 344.8094Q294.27014 344.8094 293.77014 345.325Q293.28577 345.84064 293.28577 346.66876ZM299.1764 341.98126L299.1764 340.96564L304.7389 340.96564L304.7389 341.79376Q303.9264 342.66876 303.1139 344.1219Q302.31702 345.5594 301.87952 347.09064Q301.5514 348.16876 301.47327 349.45L300.37952 349.45Q300.39514 348.4344 300.77014 346.9969Q301.16077 345.5594 301.8639 344.23126Q302.58264 342.90314 303.39514 341.98126L299.1764 341.98126Z" fill-rule="nonzero"/><path fill="#000000" d="M321.9486 341.98126L321.9486 340.96564L327.5111 340.96564L327.5111 341.79376Q326.6986 342.66876 325.8861 344.1219Q325.08923 345.5594 324.65173 347.09064Q324.3236 348.16876 324.24548 349.45L323.15173 349.45Q323.16736 348.4344 323.54236 346.9969Q323.93298 345.5594 324.6361 344.23126Q325.35486 342.90314 326.16736 341.98126L321.9486 341.98126ZM328.8861 345.21564Q328.8861 343.6844 329.1986 342.7625Q329.5111 341.825 330.12048 341.325Q330.74548 340.825 331.68298 340.825Q332.37048 340.825 332.8861 341.10626Q333.41736 341.3875 333.7611 341.91876Q334.10486 342.4344 334.29236 343.1844Q334.47986 343.9344 334.47986 345.21564Q334.47986 346.73126 334.16736 347.65314Q333.87048 348.575 333.24548 349.09064Q332.6361 349.59064 331.68298 349.59064Q330.4486 349.59064 329.72986 348.7Q328.8861 347.6375 328.8861 345.21564ZM329.96423 345.21564Q329.96423 347.325 330.46423 348.02814Q330.96423 348.73126 331.68298 348.73126Q332.41736 348.73126 332.90173 348.02814Q333.40173 347.325 333.40173 345.21564Q333.40173 343.09064 332.90173 342.40314Q332.41736 341.7 331.66736 341.7Q330.9486 341.7 330.5111 342.3094Q329.96423 343.09064 329.96423 345.21564Z" fill-rule="nonzero"/><path fill="#000000" d="M353.28333 344.79376Q352.62708 344.54376 352.29895 344.10626Q351.98645 343.65314 351.98645 343.04376Q351.98645 342.10626 352.65833 341.46564Q353.34583 340.825 354.4552 340.825Q355.5802 340.825 356.2677 341.48126Q356.9552 342.1375 356.9552 343.075Q356.9552 343.66876 356.6427 344.10626Q356.3302 344.54376 355.68958 344.79376Q356.48645 345.04376 356.8927 345.6219Q357.29895 346.2 357.29895 346.9969Q357.29895 348.09064 356.5177 348.84064Q355.75208 349.59064 354.47083 349.59064Q353.2052 349.59064 352.42395 348.84064Q351.6427 348.09064 351.6427 346.96564Q351.6427 346.1219 352.06458 345.5594Q352.50208 344.9969 353.28333 344.79376ZM353.06458 342.9969Q353.06458 343.60626 353.4552 343.9969Q353.86145 344.3875 354.48645 344.3875Q355.09583 344.3875 355.48645 344.0125Q355.87708 343.6219 355.87708 343.0594Q355.87708 342.48126 355.47083 342.09064Q355.06458 341.6844 354.47083 341.6844Q353.86145 341.6844 353.4552 342.075Q353.06458 342.46564 353.06458 342.9969ZM352.73645 346.96564Q352.73645 347.41876 352.93958 347.84064Q353.15833 348.2625 353.5802 348.4969Q354.00208 348.73126 354.48645 348.73126Q355.23645 348.73126 355.72083 348.2469Q356.22083 347.7625 356.22083 347.0125Q356.22083 346.2469 355.72083 345.7469Q355.22083 345.2469 354.4552 345.2469Q353.7052 345.2469 353.22083 345.7469Q352.73645 346.23126 352.73645 346.96564ZM358.65833 345.21564Q358.65833 343.6844 358.97083 342.7625Q359.28333 341.825 359.8927 341.325Q360.5177 340.825 361.4552 340.825Q362.1427 340.825 362.65833 341.10626Q363.18958 341.3875 363.53333 341.91876Q363.87708 342.4344 364.06458 343.1844Q364.25208 343.9344 364.25208 345.21564Q364.25208 346.73126 363.93958 347.65314Q363.6427 348.575 363.0177 349.09064Q362.40833 349.59064 361.4552 349.59064Q360.22083 349.59064 359.50208 348.7Q358.65833 347.6375 358.65833 345.21564ZM359.73645 345.21564Q359.73645 347.325 360.23645 348.02814Q360.73645 348.73126 361.4552 348.73126Q362.18958 348.73126 362.67395 348.02814Q363.17395 347.325 363.17395 345.21564Q363.17395 343.09064 362.67395 342.40314Q362.18958 341.7 361.43958 341.7Q360.72083 341.7 360.28333 342.3094Q359.73645 343.09064 359.73645 345.21564Z" fill-rule="nonzero"/><path fill="#000000" d="M381.5868 347.46564L382.60242 347.3719Q382.72742 348.09064 383.0868 348.41876Q383.4618 348.73126 384.0243 348.73126Q384.50867 348.73126 384.86804 348.5125Q385.24304 348.27814 385.47742 347.91876Q385.7118 347.54376 385.86804 346.91876Q386.0243 346.27814 386.0243 345.6219Q386.0243 345.54376 386.0243 345.40314Q385.7118 345.90314 385.16492 346.23126Q384.61804 346.54376 383.97742 346.54376Q382.8993 346.54376 382.16492 345.77814Q381.43054 344.9969 381.43054 343.73126Q381.43054 342.41876 382.19617 341.6219Q382.97742 340.825 384.13367 340.825Q384.9618 340.825 385.6493 341.27814Q386.35242 341.73126 386.7118 342.575Q387.07117 343.40314 387.07117 344.98126Q387.07117 346.6219 386.7118 347.60626Q386.36804 348.575 385.6493 349.09064Q384.94617 349.59064 384.00867 349.59064Q382.99304 349.59064 382.35242 349.04376Q381.7118 348.48126 381.5868 347.46564ZM385.8993 343.66876Q385.8993 342.7625 385.41492 342.23126Q384.94617 341.7 384.25867 341.7Q383.55554 341.7 383.0243 342.27814Q382.50867 342.84064 382.50867 343.7625Q382.50867 344.575 383.00867 345.09064Q383.50867 345.60626 384.22742 345.60626Q384.9618 345.60626 385.43054 345.09064Q385.8993 344.575 385.8993 343.66876ZM388.43054 345.21564Q388.43054 343.6844 388.74304 342.7625Q389.05554 341.825 389.66492 341.325Q390.28992 340.825 391.22742 340.825Q391.91492 340.825 392.43054 341.10626Q392.9618 341.3875 393.30554 341.91876Q393.6493 342.4344 393.8368 343.1844Q394.0243 343.9344 394.0243 345.21564Q394.0243 346.73126 393.7118 347.65314Q393.41492 348.575 392.78992 349.09064Q392.18054 349.59064 391.22742 349.59064Q389.99304 349.59064 389.2743 348.7Q388.43054 347.6375 388.43054 345.21564ZM389.50867 345.21564Q389.50867 347.325 390.00867 348.02814Q390.50867 348.73126 391.22742 348.73126Q391.9618 348.73126 392.44617 348.02814Q392.94617 347.325 392.94617 345.21564Q392.94617 343.09064 392.44617 342.40314Q391.9618 341.7 391.2118 341.7Q390.49304 341.7 390.05554 342.3094Q389.50867 343.09064 389.50867 345.21564Z" fill-rule="nonzero"/><path fill="#000000" d="M411.67154 349.45L410.62466 349.45L410.62466 342.73126Q410.23404 343.09064 409.60904 343.46564Q408.99966 343.825 408.5153 343.9969L408.5153 342.98126Q409.3903 342.5594 410.04654 341.98126Q410.7184 341.3875 410.99966 340.825L411.67154 340.825L411.67154 349.45ZM414.7028 345.21564Q414.7028 343.6844 415.0153 342.7625Q415.3278 341.825 415.93716 341.325Q416.56216 340.825 417.49966 340.825Q418.18716 340.825 418.7028 341.10626Q419.23404 341.3875 419.5778 341.91876Q419.92154 342.4344 420.10904 343.1844Q420.29654 343.9344 420.29654 345.21564Q420.29654 346.73126 419.98404 347.65314Q419.68716 348.575 419.06216 349.09064Q418.4528 349.59064 417.49966 349.59064Q416.2653 349.59064 415.54654 348.7Q414.7028 347.6375 414.7028 345.21564ZM415.7809 345.21564Q415.7809 347.325 416.2809 348.02814Q416.7809 348.73126 417.49966 348.73126Q418.23404 348.73126 418.7184 348.02814Q419.2184 347.325 419.2184 345.21564Q419.2184 343.09064 418.7184 342.40314Q418.23404 341.7 417.48404 341.7Q416.7653 341.7 416.3278 342.3094Q415.7809 343.09064 415.7809 345.21564ZM421.7028 345.21564Q421.7028 343.6844 422.0153 342.7625Q422.3278 341.825 422.93716 341.325Q423.56216 340.825 424.49966 340.825Q425.18716 340.825 425.7028 341.10626Q426.23404 341.3875 426.5778 341.91876Q426.92154 342.4344 427.10904 343.1844Q427.29654 343.9344 427.29654 345.21564Q427.29654 346.73126 426.98404 347.65314Q426.68716 348.575 426.06216 349.09064Q425.4528 349.59064 424.49966 349.59064Q423.2653 349.59064 422.54654 348.7Q421.7028 347.6375 421.7028 345.21564ZM422.7809 345.21564Q422.7809 347.325 423.2809 348.02814Q423.7809 348.73126 424.49966 348.73126Q425.23404 348.73126 425.7184 348.02814Q426.2184 347.325 426.2184 345.21564Q426.2184 343.09064 425.7184 342.40314Q425.23404 341.7 424.48404 341.7Q423.7653 341.7 423.3278 342.3094Q422.7809 343.09064 422.7809 345.21564Z" fill-rule="nonzero"/><path fill="#000000" d="M441.44376 349.45L440.39688 349.45L440.39688 342.73126Q440.00626 343.09064 439.38126 343.46564Q438.77188 343.825 438.2875 343.9969L438.2875 342.98126Q439.1625 342.5594 439.81876 341.98126Q440.49063 341.3875 440.77188 340.825L441.44376 340.825L441.44376 349.45ZM450.02188 348.4344L450.02188 349.45L444.33438 349.45Q444.33438 349.075 444.45938 348.71564Q444.67813 348.1375 445.14688 347.575Q445.63126 347.0125 446.5375 346.27814Q447.94376 345.1219 448.42813 344.45Q448.92813 343.77814 448.92813 343.1844Q448.92813 342.5594 448.475 342.1375Q448.02188 341.7 447.30313 341.7Q446.5375 341.7 446.08438 342.15314Q445.63126 342.60626 445.61563 343.41876L444.5375 343.3094Q444.64688 342.09064 445.36563 341.46564Q446.1 340.825 447.33438 340.825Q448.56876 340.825 449.2875 341.5125Q450.00626 342.2 450.00626 343.21564Q450.00626 343.73126 449.7875 344.23126Q449.58438 344.71564 449.08438 345.27814Q448.6 345.825 447.475 346.77814Q446.52188 347.575 446.24063 347.8719Q445.975 348.15314 445.80313 348.4344L450.02188 348.4344ZM451.475 345.21564Q451.475 343.6844 451.7875 342.7625Q452.1 341.825 452.70938 341.325Q453.33438 340.825 454.27188 340.825Q454.95938 340.825 455.475 341.10626Q456.00626 341.3875 456.35 341.91876Q456.69376 342.4344 456.88126 343.1844Q457.06876 343.9344 457.06876 345.21564Q457.06876 346.73126 456.75626 347.65314Q456.45938 348.575 455.83438 349.09064Q455.225 349.59064 454.27188 349.59064Q453.0375 349.59064 452.31876 348.7Q451.475 347.6375 451.475 345.21564ZM452.55313 345.21564Q452.55313 347.325 453.05313 348.02814Q453.55313 348.73126 454.27188 348.73126Q455.00626 348.73126 455.49063 348.02814Q455.99063 347.325 455.99063 345.21564Q455.99063 343.09064 455.49063 342.40314Q455.00626 341.7 454.25626 341.7Q453.5375 341.7 453.1 342.3094Q452.55313 343.09064 452.55313 345.21564Z" fill-rule="nonzero"/><path fill="#000000" d="M471.21597 349.45L470.1691 349.45L470.1691 342.73126Q469.77847 343.09064 469.15347 343.46564Q468.5441 343.825 468.05972 343.9969L468.05972 342.98126Q468.93472 342.5594 469.59097 341.98126Q470.26285 341.3875 470.5441 340.825L471.21597 340.825L471.21597 349.45ZM474.24722 347.1844L475.30972 347.04376Q475.4816 347.9344 475.9191 348.34064Q476.3566 348.73126 476.9816 348.73126Q477.7316 348.73126 478.24722 348.21564Q478.76285 347.7 478.76285 346.9344Q478.76285 346.21564 478.27847 345.7469Q477.80972 345.2625 477.07535 345.2625Q476.77847 345.2625 476.32535 345.3875L476.45035 344.45Q476.55972 344.46564 476.62222 344.46564Q477.2941 344.46564 477.82535 344.1219Q478.37222 343.7625 478.37222 343.02814Q478.37222 342.45 477.9816 342.075Q477.59097 341.6844 476.96597 341.6844Q476.3566 341.6844 475.93472 342.075Q475.52847 342.46564 475.4191 343.23126L474.3566 343.04376Q474.5441 341.9969 475.2316 341.41876Q475.9191 340.825 476.93472 340.825Q477.63785 340.825 478.2316 341.1375Q478.82535 341.4344 479.13785 341.95Q479.45035 342.46564 479.45035 343.0594Q479.45035 343.60626 479.15347 344.075Q478.8566 344.52814 478.27847 344.79376Q479.02847 344.96564 479.45035 345.52814Q479.87222 346.075 479.87222 346.91876Q479.87222 348.04376 479.0441 348.825Q478.2316 349.60626 476.9816 349.60626Q475.8566 349.60626 475.1066 348.9344Q474.3566 348.2469 474.24722 347.1844ZM481.24722 347.1844L482.30972 347.04376Q482.4816 347.9344 482.9191 348.34064Q483.3566 348.73126 483.9816 348.73126Q484.7316 348.73126 485.24722 348.21564Q485.76285 347.7 485.76285 346.9344Q485.76285 346.21564 485.27847 345.7469Q484.80972 345.2625 484.07535 345.2625Q483.77847 345.2625 483.32535 345.3875L483.45035 344.45Q483.55972 344.46564 483.62222 344.46564Q484.2941 344.46564 484.82535 344.1219Q485.37222 343.7625 485.37222 343.02814Q485.37222 342.45 484.9816 342.075Q484.59097 341.6844 483.96597 341.6844Q483.3566 341.6844 482.93472 342.075Q482.52847 342.46564 482.4191 343.23126L481.3566 343.04376Q481.5441 341.9969 482.2316 341.41876Q482.9191 340.825 483.93472 340.825Q484.63785 340.825 485.2316 341.1375Q485.82535 341.4344 486.13785 341.95Q486.45035 342.46564 486.45035 343.0594Q486.45035 343.60626 486.15347 344.075Q485.8566 344.52814 485.27847 344.79376Q486.02847 344.96564 486.45035 345.52814Q486.87222 346.075 486.87222 346.91876Q486.87222 348.04376 486.0441 348.825Q485.2316 349.60626 483.9816 349.60626Q482.8566 349.60626 482.1066 348.9344Q481.3566 348.2469 481.24722 347.1844Z" fill-rule="nonzero"/><path fill="#000000" d="M500.9882 349.45L499.9413 349.45L499.9413 342.73126Q499.5507 343.09064 498.9257 343.46564Q498.3163 343.825 497.83194 343.9969L497.83194 342.98126Q498.70694 342.5594 499.3632 341.98126Q500.03506 341.3875 500.3163 340.825L500.9882 340.825L500.9882 349.45ZM507.39444 349.45L507.39444 347.3875L503.6757 347.3875L503.6757 346.41876L507.59756 340.85626L508.45694 340.85626L508.45694 346.41876L509.6132 346.41876L509.6132 347.3875L508.45694 347.3875L508.45694 349.45L507.39444 349.45ZM507.39444 346.41876L507.39444 342.5594L504.70694 346.41876L507.39444 346.41876ZM511.01944 345.21564Q511.01944 343.6844 511.33194 342.7625Q511.64444 341.825 512.2538 341.325Q512.8788 340.825 513.8163 340.825Q514.5038 340.825 515.0194 341.10626Q515.55066 341.3875 515.8944 341.91876Q516.23816 342.4344 516.42566 343.1844Q516.61316 343.9344 516.61316 345.21564Q516.61316 346.73126 516.30066 347.65314Q516.0038 348.575 515.3788 349.09064Q514.7694 349.59064 513.8163 349.59064Q512.5819 349.59064 511.8632 348.7Q511.01944 347.6375 511.01944 345.21564ZM512.09753 345.21564Q512.09753 347.325 512.59753 348.02814Q513.09753 348.73126 513.8163 348.73126Q514.55066 348.73126 515.03503 348.02814Q515.53503 347.325 515.53503 345.21564Q515.53503 343.09064 515.03503 342.40314Q514.55066 341.7 513.80066 341.7Q513.0819 341.7 512.6444 342.3094Q512.09753 343.09064 512.09753 345.21564Z" fill-rule="nonzero"/><path fill="#000000" d="M530.76044 349.45L529.71356 349.45L529.71356 342.73126Q529.32294 343.09064 528.69794 343.46564Q528.08856 343.825 527.6042 343.9969L527.6042 342.98126Q528.4792 342.5594 529.13544 341.98126Q529.8073 341.3875 530.08856 340.825L530.76044 340.825L530.76044 349.45ZM539.26044 342.96564L538.21356 343.04376Q538.07294 342.41876 537.82294 342.1375Q537.38544 341.6844 536.76044 341.6844Q536.26044 341.6844 535.8698 341.96564Q535.38544 342.34064 535.08856 343.04376Q534.8073 343.73126 534.7917 345.0125Q535.1667 344.4344 535.71356 344.15314Q536.27606 343.8719 536.88544 343.8719Q537.9323 343.8719 538.6667 344.65314Q539.4167 345.4344 539.4167 346.65314Q539.4167 347.46564 539.0573 348.16876Q538.71356 348.85626 538.1042 349.23126Q537.4948 349.59064 536.7292 349.59064Q535.40106 349.59064 534.57294 348.6219Q533.7448 347.65314 533.7448 345.4344Q533.7448 342.9344 534.6667 341.8094Q535.46356 340.825 536.82294 340.825Q537.83856 340.825 538.4792 341.40314Q539.13544 341.96564 539.26044 342.96564ZM534.96356 346.66876Q534.96356 347.21564 535.1823 347.71564Q535.4167 348.2 535.82294 348.46564Q536.2448 348.73126 536.71356 348.73126Q537.3698 348.73126 537.8542 348.2Q538.33856 347.65314 538.33856 346.73126Q538.33856 345.84064 537.8542 345.325Q537.38544 344.8094 536.6667 344.8094Q535.94794 344.8094 535.44794 345.325Q534.96356 345.84064 534.96356 346.66876ZM540.8542 341.98126L540.8542 340.96564L546.4167 340.96564L546.4167 341.79376Q545.6042 342.66876 544.7917 344.1219Q543.9948 345.5594 543.5573 347.09064Q543.2292 348.16876 543.15106 349.45L542.0573 349.45Q542.07294 348.4344 542.44794 346.9969Q542.83856 345.5594 543.5417 344.23126Q544.26044 342.90314 545.07294 341.98126L540.8542 341.98126Z" fill-rule="nonzero"/><path fill="#000000" d="M562.1108 348.4344L562.1108 349.45L556.4233 349.45Q556.4233 349.075 556.5483 348.71564Q556.767 348.1375 557.2358 347.575Q557.72015 347.0125 558.6264 346.27814Q560.03265 345.1219 560.517 344.45Q561.017 343.77814 561.017 343.1844Q561.017 342.5594 560.5639 342.1375Q560.1108 341.7 559.392 341.7Q558.6264 341.7 558.1733 342.15314Q557.72015 342.60626 557.7045 343.41876L556.6264 343.3094Q556.7358 342.09064 557.4545 341.46564Q558.1889 340.825 559.4233 340.825Q560.65765 340.825 561.3764 341.5125Q562.09515 342.2 562.09515 343.21564Q562.09515 343.73126 561.8764 344.23126Q561.6733 344.71564 561.1733 345.27814Q560.6889 345.825 559.5639 346.77814Q558.6108 347.575 558.3295 347.8719Q558.0639 348.15314 557.892 348.4344L562.1108 348.4344ZM563.5639 345.21564Q563.5639 343.6844 563.8764 342.7625Q564.1889 341.825 564.7983 341.325Q565.4233 340.825 566.3608 340.825Q567.0483 340.825 567.5639 341.10626Q568.09515 341.3875 568.4389 341.91876Q568.78265 342.4344 568.97015 343.1844Q569.15765 343.9344 569.15765 345.21564Q569.15765 346.73126 568.84515 347.65314Q568.5483 348.575 567.9233 349.09064Q567.3139 349.59064 566.3608 349.59064Q565.1264 349.59064 564.40765 348.7Q563.5639 347.6375 563.5639 345.21564ZM564.642 345.21564Q564.642 347.325 565.142 348.02814Q565.642 348.73126 566.3608 348.73126Q567.09515 348.73126 567.5795 348.02814Q568.0795 347.325 568.0795 345.21564Q568.0795 343.09064 567.5795 342.40314Q567.09515 341.7 566.34515 341.7Q565.6264 341.7 565.1889 342.3094Q564.642 343.09064 564.642 345.21564ZM570.5639 345.21564Q570.5639 343.6844 570.8764 342.7625Q571.1889 341.825 571.7983 341.325Q572.4233 340.825 573.3608 340.825Q574.0483 340.825 574.5639 341.10626Q575.09515 341.3875 575.4389 341.91876Q575.78265 342.4344 575.97015 343.1844Q576.15765 343.9344 576.15765 345.21564Q576.15765 346.73126 575.84515 347.65314Q575.5483 348.575 574.9233 349.09064Q574.3139 349.59064 573.3608 349.59064Q572.1264 349.59064 571.40765 348.7Q570.5639 347.6375 570.5639 345.21564ZM571.642 345.21564Q571.642 347.325 572.142 348.02814Q572.642 348.73126 573.3608 348.73126Q574.09515 348.73126 574.5795 348.02814Q575.0795 347.325 575.0795 345.21564Q575.0795 343.09064 574.5795 342.40314Q574.09515 341.7 573.34515 341.7Q572.6264 341.7 572.1889 342.3094Q571.642 343.09064 571.642 345.21564Z" fill-rule="nonzero"/><path stroke="#4285f4" stroke-width="4.0" stroke-linecap="butt" d="M228.0 25.55L240.0 25.55" fill-rule="nonzero"/><path fill="#1a1a1a" d="M248.70312 23.01875Q248.70312 22.096874 249.15625 21.45625Q249.625 20.815624 250.5 20.815624Q251.3125 20.815624 251.84375 21.39375Q252.375 21.971874 252.375 23.08125Q252.375 24.175 251.82812 24.76875Q251.29688 25.346874 250.51562 25.346874Q249.73438 25.346874 249.21875 24.76875Q248.70312 24.190624 248.70312 23.01875ZM250.53125 21.534374Q250.14062 21.534374 249.875 21.878124Q249.625 22.221874 249.625 23.128124Q249.625 23.95625 249.875 24.3Q250.14062 24.628124 250.53125 24.628124Q250.9375 24.628124 251.1875 24.284374Q251.45312 23.940624 251.45312 23.05Q251.45312 22.20625 251.1875 21.878124Q250.92188 21.534374 250.53125 21.534374ZM250.53125 29.8625L255.23438 20.815624L256.09375 20.815624L251.40625 29.8625L250.53125 29.8625ZM254.25 27.534374Q254.25 26.6125 254.70312 25.971874Q255.17188 25.33125 256.0625 25.33125Q256.875 25.33125 257.40625 25.909374Q257.9375 26.471874 257.9375 27.596874Q257.9375 28.690624 257.39062 29.284374Q256.85938 29.8625 256.0625 29.8625Q255.29688 29.8625 254.76562 29.284374Q254.25 28.70625 254.25 27.534374ZM256.09375 26.05Q255.6875 26.05 255.42188 26.39375Q255.17188 26.7375 255.17188 27.64375Q255.17188 28.45625 255.4375 28.8Q255.70312 29.14375 256.09375 29.14375Q256.48438 29.14375 256.75 28.8Q257.01562 28.45625 257.01562 27.55Q257.01562 26.721874 256.75 26.39375Q256.48438 26.05 256.09375 26.05ZM259.79688 29.55L259.79688 23.33125L260.73438 23.33125L260.73438 24.20625Q261.03125 23.7375 261.51562 23.471874Q262.0 23.190624 262.625 23.190624Q263.3125 23.190624 263.75 23.471874Q264.20312 23.753124 264.375 24.26875Q265.125 23.190624 266.29688 23.190624Q267.23438 23.190624 267.71875 23.70625Q268.21875 24.20625 268.21875 25.284374L268.21875 29.55L267.17188 29.55L267.17188 25.628124Q267.17188 25.003124 267.0625 24.721874Q266.96875 24.440624 266.70312 24.26875Q266.4375 24.096874 266.0625 24.096874Q265.40625 24.096874 264.96875 24.534374Q264.54688 24.971874 264.54688 25.940624L264.54688 29.55L263.48438 29.55L263.48438 25.503124Q263.48438 24.8 263.21875 24.45625Q262.96875 24.096874 262.39062 24.096874Q261.9375 24.096874 261.5625 24.33125Q261.1875 24.565624 261.01562 25.01875Q260.84375 25.471874 260.84375 26.315624L260.84375 29.55L259.79688 29.55ZM270.375 27.690624L271.40625 27.534374Q271.5 28.159374 271.89062 28.4875Q272.29688 28.815624 273.03125 28.815624Q273.75 28.815624 274.09375 28.534374Q274.45312 28.2375 274.45312 27.83125Q274.45312 27.471874 274.14062 27.26875Q273.92188 27.128124 273.0625 26.909374Q271.90625 26.6125 271.45312 26.409374Q271.01562 26.190624 270.78125 25.815624Q270.54688 25.440624 270.54688 24.971874Q270.54688 24.565624 270.73438 24.20625Q270.92188 23.846874 271.25 23.6125Q271.5 23.440624 271.92188 23.315624Q272.34375 23.190624 272.84375 23.190624Q273.5625 23.190624 274.10938 23.409374Q274.67188 23.6125 274.9375 23.971874Q275.20312 24.33125 275.29688 24.925L274.26562 25.065624Q274.20312 24.596874 273.85938 24.33125Q273.53125 24.05 272.90625 24.05Q272.1875 24.05 271.875 24.3Q271.5625 24.534374 271.5625 24.8625Q271.5625 25.065624 271.6875 25.221874Q271.82812 25.39375 272.09375 25.503124Q272.25 25.565624 273.03125 25.76875Q274.15625 26.08125 274.59375 26.26875Q275.03125 26.45625 275.28125 26.815624Q275.53125 27.175 275.53125 27.721874Q275.53125 28.253124 275.21875 28.721874Q274.92188 29.175 274.34375 29.440624Q273.76562 29.690624 273.03125 29.690624Q271.8125 29.690624 271.17188 29.190624Q270.54688 28.675 270.375 27.690624ZM280.09375 28.6125L280.25 29.534374Q279.79688 29.628124 279.45312 29.628124Q278.875 29.628124 278.5625 29.45625Q278.25 29.26875 278.10938 28.971874Q277.98438 28.675 277.98438 27.721874L277.98438 24.14375L277.21875 24.14375L277.21875 23.33125L277.98438 23.33125L277.98438 21.784374L279.03125 21.159374L279.03125 23.33125L280.09375 23.33125L280.09375 24.14375L279.03125 24.14375L279.03125 27.784374Q279.03125 28.2375 279.07812 28.3625Q279.14062 28.4875 279.26562 28.565624Q279.39062 28.64375 279.625 28.64375Q279.8125 28.64375 280.09375 28.6125ZM282.51562 29.55L280.15625 23.33125L281.26562 23.33125L282.60938 27.05Q282.8125 27.659374 283.0 28.3Q283.14062 27.815624 283.39062 27.128124L284.78125 23.33125L285.85938 23.33125L283.5 29.55L282.51562 29.55ZM289.46875 29.55L288.42188 29.55L288.42188 22.83125Q288.03125 23.190624 287.40625 23.565624Q286.79688 23.925 286.3125 24.096874L286.3125 23.08125Q287.1875 22.659374 287.84375 22.08125Q288.51562 21.4875 288.79688 20.925L289.46875 20.925L289.46875 29.55Z" fill-rule="nonzero"/><path stroke="#ea4335" stroke-width="4.0" stroke-linecap="butt" d="M308.0 25.55L320.0 25.55" fill-rule="nonzero"/><path fill="#1a1a1a" d="M328.70312 23.01875Q328.70312 22.096874 329.15625 21.45625Q329.625 20.815624 330.5 20.815624Q331.3125 20.815624 331.84375 21.39375Q332.375 21.971874 332.375 23.08125Q332.375 24.175 331.82812 24.76875Q331.29688 25.346874 330.51562 25.346874Q329.73438 25.346874 329.21875 24.76875Q328.70312 24.190624 328.70312 23.01875ZM330.53125 21.534374Q330.14062 21.534374 329.875 21.878124Q329.625 22.221874 329.625 23.128124Q329.625 23.95625 329.875 24.3Q330.14062 24.628124 330.53125 24.628124Q330.9375 24.628124 331.1875 24.284374Q331.45312 23.940624 331.45312 23.05Q331.45312 22.20625 331.1875 21.878124Q330.92188 21.534374 330.53125 21.534374ZM330.53125 29.8625L335.23438 20.815624L336.09375 20.815624L331.40625 29.8625L330.53125 29.8625ZM334.25 27.534374Q334.25 26.6125 334.70312 25.971874Q335.17188 25.33125 336.0625 25.33125Q336.875 25.33125 337.40625 25.909374Q337.9375 26.471874 337.9375 27.596874Q337.9375 28.690624 337.39062 29.284374Q336.85938 29.8625 336.0625 29.8625Q335.29688 29.8625 334.76562 29.284374Q334.25 28.70625 334.25 27.534374ZM336.09375 26.05Q335.6875 26.05 335.42188 26.39375Q335.17188 26.7375 335.17188 27.64375Q335.17188 28.45625 335.4375 28.8Q335.70312 29.14375 336.09375 29.14375Q336.48438 29.14375 336.75 28.8Q337.01562 28.45625 337.01562 27.55Q337.01562 26.721874 336.75 26.39375Q336.48438 26.05 336.09375 26.05ZM339.79688 29.55L339.79688 23.33125L340.73438 23.33125L340.73438 24.20625Q341.03125 23.7375 341.51562 23.471874Q342.0 23.190624 342.625 23.190624Q343.3125 23.190624 343.75 23.471874Q344.20312 23.753124 344.375 24.26875Q345.125 23.190624 346.29688 23.190624Q347.23438 23.190624 347.71875 23.70625Q348.21875 24.20625 348.21875 25.284374L348.21875 29.55L347.17188 29.55L347.17188 25.628124Q347.17188 25.003124 347.0625 24.721874Q346.96875 24.440624 346.70312 24.26875Q346.4375 24.096874 346.0625 24.096874Q345.40625 24.096874 344.96875 24.534374Q344.54688 24.971874 344.54688 25.940624L344.54688 29.55L343.48438 29.55L343.48438 25.503124Q343.48438 24.8 343.21875 24.45625Q342.96875 24.096874 342.39062 24.096874Q341.9375 24.096874 341.5625 24.33125Q341.1875 24.565624 341.01562 25.01875Q340.84375 25.471874 340.84375 26.315624L340.84375 29.55L339.79688 29.55ZM350.375 27.690624L351.40625 27.534374Q351.5 28.159374 351.89062 28.4875Q352.29688 28.815624 353.03125 28.815624Q353.75 28.815624 354.09375 28.534374Q354.45312 28.2375 354.45312 27.83125Q354.45312 27.471874 354.14062 27.26875Q353.92188 27.128124 353.0625 26.909374Q351.90625 26.6125 351.45312 26.409374Q351.01562 26.190624 350.78125 25.815624Q350.54688 25.440624 350.54688 24.971874Q350.54688 24.565624 350.73438 24.20625Q350.92188 23.846874 351.25 23.6125Q351.5 23.440624 351.92188 23.315624Q352.34375 23.190624 352.84375 23.190624Q353.5625 23.190624 354.10938 23.409374Q354.67188 23.6125 354.9375 23.971874Q355.20312 24.33125 355.29688 24.925L354.26562 25.065624Q354.20312 24.596874 353.85938 24.33125Q353.53125 24.05 352.90625 24.05Q352.1875 24.05 351.875 24.3Q351.5625 24.534374 351.5625 24.8625Q351.5625 25.065624 351.6875 25.221874Q351.82812 25.39375 352.09375 25.503124Q352.25 25.565624 353.03125 25.76875Q354.15625 26.08125 354.59375 26.26875Q355.03125 26.45625 355.28125 26.815624Q355.53125 27.175 355.53125 27.721874Q355.53125 28.253124 355.21875 28.721874Q354.92188 29.175 354.34375 29.440624Q353.76562 29.690624 353.03125 29.690624Q351.8125 29.690624 351.17188 29.190624Q350.54688 28.675 350.375 27.690624ZM360.09375 28.6125L360.25 29.534374Q359.79688 29.628124 359.45312 29.628124Q358.875 29.628124 358.5625 29.45625Q358.25 29.26875 358.10938 28.971874Q357.98438 28.675 357.98438 27.721874L357.98438 24.14375L357.21875 24.14375L357.21875 23.33125L357.98438 23.33125L357.98438 21.784374L359.03125 21.159374L359.03125 23.33125L360.09375 23.33125L360.09375 24.14375L359.03125 24.14375L359.03125 27.784374Q359.03125 28.2375 359.07812 28.3625Q359.14062 28.4875 359.26562 28.565624Q359.39062 28.64375 359.625 28.64375Q359.8125 28.64375 360.09375 28.6125ZM362.51562 29.55L360.15625 23.33125L361.26562 23.33125L362.60938 27.05Q362.8125 27.659374 363.0 28.3Q363.14062 27.815624 363.39062 27.128124L364.78125 23.33125L365.85938 23.33125L363.5 29.55L362.51562 29.55ZM371.04688 28.534374L371.04688 29.55L365.35938 29.55Q365.35938 29.175 365.48438 28.815624Q365.70312 28.2375 366.17188 27.675Q366.65625 27.1125 367.5625 26.378124Q368.96875 25.221874 369.45312 24.55Q369.95312 23.878124 369.95312 23.284374Q369.95312 22.659374 369.5 22.2375Q369.04688 21.8 368.32812 21.8Q367.5625 21.8 367.10938 22.253124Q366.65625 22.70625 366.64062 23.51875L365.5625 23.409374Q365.67188 22.190624 366.39062 21.565624Q367.125 20.925 368.35938 20.925Q369.59375 20.925 370.3125 21.6125Q371.03125 22.3 371.03125 23.315624Q371.03125 23.83125 370.8125 24.33125Q370.60938 24.815624 370.10938 25.378124Q369.625 25.925 368.5 26.878124Q367.54688 27.675 367.26562 27.971874Q367.0 28.253124 366.82812 28.534374L371.04688 28.534374Z" fill-rule="nonzero"/></svg>