<svg version="1.1" viewBox="0.0 0.0 600.0 371.0" fill="none" stroke="none" stroke-linecap="square" stroke-miterlimit="10" width="600" height="371" xmlns:xlink="http://www.w3.org/1999/xlink" xmlns="http://www.w3.org/2000/svg"><path fill="#ffffff" d="M0 0L600.0 0L600.0 371.0L0 371.0L0 0Z" fill-rule="nonzero"/><path stroke="#333333" stroke-width="1.0" stroke-linecap="butt" d="M69.5 332.5L581.5 332.5" fill-rule="nonzero"/><path stroke="#cccccc" stroke-width="1.0" stroke-linecap="butt" d="M69.5 230.5L581.5 230.5" fill-rule="nonzero"/><path stroke="#cccccc" stroke-width="1.0" stroke-linecap="butt" d="M69.5 127.5L581.5 127.5" fill-rule="nonzero"/><path stroke="#cccccc" stroke-width="1.0" stroke-linecap="butt" d="M69.5 25.5L581.5 25.5" fill-rule="nonzero"/><clipPath id="id_0"><path d="M69.55 25.55L581.45 25.55L581.45 332.45L69.55 332.45L69.55 25.55Z" clip-rule="nonzero"/></clipPath><path stroke="#4285f4" stroke-width="2.0" stroke-linecap="butt" clip-path="url(#id_0)" d="M97.98889 306.8117L154.86667 276.29532L211.74445 239.24437L268.62222 247.79709L325.5 231.46164L382.37778 208.25194L439.25555 118.60185L496.13333 43.842888L553.0111 71.22384" fill-rule="nonzero"/><path fill="#000000" fill-opacity="0.0" clip-path="url(#id_0)" d="M100.98889 306.8117C100.98889 308.46857 99.645744 309.8117 97.98889 309.8117C96.33203 309.8117 94.98889 308.46857 94.98889 306.8117C94.98889 305.15485 96.33203 303.8117 97.98889 303.8117C99.645744 303.8117 100.98889 305.15485 100.98889 306.8117Z" fill-rule="nonzero"/><path fill="#000000" fill-opacity="0.0" clip-path="url(#id_0)" d="M157.86667 276.29532C157.86667 277.95218 156.52351 279.29532 154.86667 279.29532C153.20981 279.29532 151.86667 277.95218 151.86667 276.29532C151.86667 274.63846 153.20981 273.29532 154.86667 273.29532C156.52351 273.29532 157.86667 274.63846 157.86667 276.29532Z" fill-rule="nonzero"/><path fill="#000000" fill-opacity="0.0" clip-path="url(#id_0)" d="M214.74445 239.24437C214.74445 240.90123 213.4013 242.24437 211.74445 242.24437C210.08759 242.24437 208.74445 240.90123 208.74445 239.24437C208.74445 237.58752 210.08759 236.24437 211.74445 236.24437C213.4013 236.24437 214.74445 237.58752 214.74445 239.24437Z" fill-rule="nonzero"/><path fill="#000000" fill-opacity="0.0" clip-path="url(#id_0)" d="M271.62222 247.79709C271.62222 249.45395 270.27908 250.79709 268.62222 250.79709C266.96536 250.79709 265.62222 249.45395 265.62222 247.79709C265.62222 246.14024 266.96536 244.79709 268.62222 244.79709C270.27908 244.79709 271.62222 246.14024 271.62222 247.79709Z" fill-rule="nonzero"/><path fill="#000000" fill-opacity="0.0" clip-path="url(#id_0)" d="M328.5 231.46164C328.5 233.1185 327.15686 234.46164 325.5 234.46164C323.84314 234.46164 322.5 233.1185 322.5 231.46164C322.5 229.8048 323.84314 228.46164 325.5 228.46164C327.15686 228.46164 328.5 229.8048 328.5 231.46164Z" fill-rule="nonzero"/><path fill="#000000" fill-opacity="0.0" clip-path="url(#id_0)" d="M385.37778 208.25194C385.37778 209.90878 384.03464 211.25194 382.37778 211.25194C380.72092 211.25194 379.37778 209.90878 379.37778 208.25194C379.37778 206.59508 380.72092 205.25194 382.37778 205.25194C384.03464 205.25194 385.37778 206.59508 385.37778 208.25194Z" fill-rule="nonzero"/><path fill="#000000" fill-opacity="0.0" clip-path="url(#id_0)" d="M442.25555 118.60185C442.25555 120.25871 440.9124 121.60185 439.25555 121.60185C437.5987 121.60185 436.25555 120.25871 436.25555 118.60185C436.25555 116.945 437.5987 115.60185 439.25555 115.60185C440.9124 115.60185 442.25555 116.945 442.25555 118.60185Z" fill-rule="nonzero"/><path fill="#000000" fill-opacity="0.0" clip-path="url(#id_0)" d="M499.13333 43.842888C499.13333 45.49974 497.7902 46.842888 496.13333 46.842888C494.47647 46.842888 493.13333 45.49974 493.13333 43.842888C493.13333 42.186035 494.47647 40.842888 496.13333 40.842888C497.7902 40.842888 499.13333 42.186035 499.13333 43.842888Z" fill-rule="nonzero"/><path fill="#000000" fill-opacity="0.0" clip-path="url(#id_0)" d="M556.0111 71.22384C556.0111 72.88069 554.66797 74.22384 553.0111 74.22384C551.35425 74.22384 550.0111 72.88069 550.0111 71.22384C550.0111 69.56698 551.35425 68.22384 553.0111 68.22384C554.66797 68.22384 556.0111 69.56698 556.0111 71.22384Z" fill-rule="nonzero"/><path fill="#000000" d="M26.05 332.21564Q26.05 330.6844 26.3625 329.7625Q26.675 328.825 27.284374 328.325Q27.909374 327.825 28.846874 327.825Q29.534374 327.825 30.05 328.10626Q30.58125 328.3875 30.925 328.91876Q31.26875 329.4344 31.45625 330.1844Q31.64375 330.9344 31.64375 332.21564Q31.64375 333.73126 31.33125 334.65314Q31.034374 335.575 30.409374 336.09064Q29.8 336.59064 28.846874 336.59064Q27.6125 336.59064 26.89375 335.7Q26.05 334.6375 26.05 332.21564ZM27.128124 332.21564Q27.128124 334.325 27.628124 335.02814Q28.128124 335.73126 28.846874 335.73126Q29.58125 335.73126 30.065624 335.02814Q30.565624 334.325 30.565624 332.21564Q30.565624 330.09064 30.065624 329.40314Q29.58125 328.7 28.83125 328.7Q28.1125 328.7 27.675 329.3094Q27.128124 330.09064 27.128124 332.21564ZM33.64375 336.45L33.64375 335.2469L34.846874 335.2469L34.846874 336.45L33.64375 336.45ZM36.05 332.21564Q36.05 330.6844 36.3625 329.7625Q36.675 328.825 37.284374 328.325Q37.909374 327.825 38.846874 327.825Q39.534374 327.825 40.05 328.10626Q40.58125 328.3875 40.925 328.91876Q41.26875 329.4344 41.45625 330.1844Q41.64375 330.9344 41.64375 332.21564Q41.64375 333.73126 41.33125 334.65314Q41.034374 335.575 40.409374 336.09064Q39.8 336.59064 38.846874 336.59064Q37.6125 336.59064 36.89375 335.7Q36.05 334.6375 36.05 332.21564ZM37.128124 332.21564Q37.128124 334.325 37.628124 335.02814Q38.128124 335.73126 38.846874 335.73126Q39.58125 335.73126 40.065624 335.02814Q40.565624 334.325 40.565624 332.21564Q40.565624 330.09064 40.065624 329.40314Q39.58125 328.7 38.83125 328.7Q38.1125 328.7 37.675 329.3094Q37.128124 330.09064 37.128124 332.21564ZM43.05 332.21564Q43.05 330.6844 43.3625 329.7625Q43.675 328.825 44.284374 328.325Q44.909374 327.825 45.846874 327.825Q46.534374 327.825 47.05 328.10626Q47.58125 328.3875 47.925 328.91876Q48.26875 329.4344 48.45625 330.1844Q48.64375 330.9344 48.64375 332.21564Q48.64375 333.73126 48.33125 334.65314Q48.034374 335.575 47.409374 336.09064Q46.8 336.59064 45.846874 336.59064Q44.6125 336.59064 43.89375 335.7Q43.05 334.6375 43.05 332.21564ZM44.128124 332.21564Q44.128124 334.325 44.628124 335.02814Q45.128124 335.73126 45.846874 335.73126Q46.58125 335.73126 47.065624 335.02814Q47.565624 334.325 47.565624 332.21564Q47.565624 330.09064 47.065624 329.40314Q46.58125 328.7 45.83125 328.7Q45.1125 328.7 44.675 329.3094Q44.128124 330.09064 44.128124 332.21564ZM50.05 332.21564Q50.05 330.6844 50.3625 329.7625Q50.675 328.825 51.284374 328.325Q51.909374 327.825 52.846874 327.825Q53.534374 327.825 54.05 328.10626Q54.58125 328.3875 54.925 328.91876Q55.26875 329.4344 55.45625 330.1844Q55.64375 330.9344 55.64375 332.21564Q55.64375 333.73126 55.33125 334.65314Q55.034374 335.575 54.409374 336.09064Q53.8 336.59064 52.846874 336.59064Q51.6125 336.59064 50.89375 335.7Q50.05 334.6375 50.05 332.21564ZM51.128124 332.21564Q51.128124 334.325 51.628124 335.02814Q52.128124 335.73126 52.846874 335.73126Q53.58125 335.73126 54.065624 335.02814Q54.565624 334.325 54.565624 332.21564Q54.565624 330.09064 54.065624 329.40314Q53.58125 328.7 52.83125 328.7Q52.1125 328.7 51.675 329.3094Q51.128124 330.09064 51.128124 332.21564ZM57.05 332.21564Q57.05 330.6844 57.3625 329.7625Q57.675 328.825 58.284374 328.325Q58.909374 327.825 59.846874 327.825Q60.534374 327.825 61.05 328.10626Q61.58125 328.3875 61.925 328.91876Q62.26875 329.4344 62.45625 330.1844Q62.64375 330.9344 62.64375 332.21564Q62.64375 333.73126 62.33125 334.65314Q62.034374 335.575 61.409374 336.09064Q60.8 336.59064 59.846874 336.59064Q58.6125 336.59064 57.89375 335.7Q57.05 334.6375 57.05 332.21564ZM58.128124 332.21564Q58.128124 334.325 58.628124 335.02814Q59.128124 335.73126 59.846874 335.73126Q60.58125 335.73126 61.065624 335.02814Q61.565624 334.325 61.565624 332.21564Q61.565624 330.09064 61.065624 329.40314Q60.58125 328.7 59.83125 328.7Q59.1125 328.7 58.675 329.3094Q58.128124 330.09064 58.128124 332.21564Z" fill-rule="nonzero"/><path fill="#000000" d="M23.01875 234.15L21.971874 234.15L21.971874 227.43124Q21.58125 227.79062 20.95625 228.16562Q20.346874 228.525 19.8625 228.69687L19.8625 227.68124Q20.7375 227.25937 21.39375 226.68124Q22.065624 226.0875 22.346874 225.525L23.01875 225.525L23.01875 234.15ZM26.05 229.91562Q26.05 228.38437 26.3625 227.4625Q26.675 226.525 27.284374 226.025Q27.909374 225.525 28.846874 225.525Q29.534374 225.525 30.05 225.80624Q30.58125 226.0875 30.925 226.61874Q31.26875 227.13437 31.45625 227.88437Q31.64375 228.63437 31.64375 229.91562Q31.64375 231.43124 31.33125 232.35312Q31.034374 233.275 30.409374 233.79062Q29.8 234.29062 28.846874 234.29062Q27.6125 234.29062 26.89375 233.4Q26.05 232.3375 26.05 229.91562ZM27.128124 229.91562Q27.128124 232.025 27.628124 232.72812Q28.128124 233.43124 28.846874 233.43124Q29.58125 233.43124 30.065624 232.72812Q30.565624 232.025 30.565624 229.91562Q30.565624 227.79062 30.065624 227.10312Q29.58125 226.4 28.83125 226.4Q28.1125 226.4 27.675 227.00937Q27.128124 227.79062 27.128124 229.91562ZM33.64375 234.15L33.64375 232.94687L34.846874 232.94687L34.846874 234.15L33.64375 234.15ZM36.05 229.91562Q36.05 228.38437 36.3625 227.4625Q36.675 226.525 37.284374 226.025Q37.909374 225.525 38.846874 225.525Q39.534374 225.525 40.05 225.80624Q40.58125 226.0875 40.925 226.61874Q41.26875 227.13437 41.45625 227.88437Q41.64375 228.63437 41.64375 229.91562Q41.64375 231.43124 41.33125 232.35312Q41.034374 233.275 40.409374 233.79062Q39.8 234.29062 38.846874 234.29062Q37.6125 234.29062 36.89375 233.4Q36.05 232.3375 36.05 229.91562ZM37.128124 229.91562Q37.128124 232.025 37.628124 232.72812Q38.128124 233.43124 38.846874 233.43124Q39.58125 233.43124 40.065624 232.72812Q40.565624 232.025 40.565624 229.91562Q40.565624 227.79062 40.065624 227.10312Q39.58125 226.4 38.83125 226.4Q38.1125 226.4 37.675 227.00937Q37.128124 227.79062 37.128124 229.91562ZM43.05 229.91562Q43.05 228.38437 43.3625 227.4625Q43.675 226.525 44.284374 226.025Q44.909374 225.525 45.846874 225.525Q46.534374 225.525 47.05 225.80624Q47.58125 226.0875 47.925 226.61874Q48.26875 227.13437 48.45625 227.88437Q48.64375 228.63437 48.64375 229.91562Q48.64375 231.43124 48.33125 232.35312Q48.034374 233.275 47.409374 233.79062Q46.8 234.29062 45.846874 234.29062Q44.6125 234.29062 43.89375 233.4Q43.05 232.3375 43.05 229.91562ZM44.128124 229.91562Q44.128124 232.025 44.628124 232.72812Q45.128124 233.43124 45.846874 233.43124Q46.58125 233.43124 47.065624 232.72812Q47.565624 232.025 47.565624 229.91562Q47.565624 227.79062 47.065624 227.10312Q46.58125 226.4 45.83125 226.4Q45.1125 226.4 44.675 227.00937Q44.128124 227.79062 44.128124 229.91562ZM50.05 229.91562Q50.05 228.38437 50.3625 227.4625Q50.675 226.525 51.284374 226.025Q51.909374 225.525 52.846874 225.525Q53.534374 225.525 54.05 225.80624Q54.58125 226.0875 54.925 226.61874Q55.26875 227.13437 55.45625 227.88437Q55.64375 228.63437 55.64375 229.91562Q55.64375 231.43124 55.33125 232.35312Q55.034374 233.275 54.409374 233.79062Q53.8 234.29062 52.846874 234.29062Q51.6125 234.29062 50.89375 233.4Q50.05 232.3375 50.05 229.91562ZM51.128124 229.91562Q51.128124 232.025 51.628124 232.72812Q52.128124 233.43124 52.846874 233.43124Q53.58125 233.43124 54.065624 232.72812Q54.565624 232.025 54.565624 229.91562Q54.565624 227.79062 54.065624 227.10312Q53.58125 226.4 52.83125 226.4Q52.1125 226.4 51.675 227.00937Q51.128124 227.79062 51.128124 229.91562ZM57.05 229.91562Q57.05 228.38437 57.3625 227.4625Q57.675 226.525 58.284374 226.025Q58.909374 225.525 59.846874 225.525Q60.534374 225.525 61.05 225.80624Q61.58125 226.0875 61.925 226.61874Q62.26875 227.13437 62.45625 227.88437Q62.64375 228.63437 62.64375 229.91562Q62.64375 231.43124 62.33125 232.35312Q62.034374 233.275 61.409374 233.79062Q60.8 234.29062 59.846874 234.29062Q58.6125 234.29062 57.89375 233.4Q57.05 232.3375 57.05 229.91562ZM58.128124 229.91562Q58.128124 232.025 58.628124 232.72812Q59.128124 233.43124 59.846874 233.43124Q60.58125 233.43124 61.065624 232.72812Q61.565624 232.025 61.565624 229.91562Q61.565624 227.79062 61.065624 227.10312Q60.58125 226.4 59.83125 226.4Q59.1125 226.4 58.675 227.00937Q58.128124 227.79062 58.128124 229.91562Z" fill-rule="nonzero"/><path fill="#000000" d="M24.596874 130.83438L24.596874 131.85L18.909374 131.85Q18.909374 131.475 19.034374 131.11563Q19.253124 130.5375 19.721874 129.975Q20.20625 129.4125 21.1125 128.67813Q22.51875 127.52188 23.003124 126.850006Q23.503124 126.17813 23.503124 125.58438Q23.503124 124.95938 23.05 124.537506Q22.596874 124.100006 21.878124 124.100006Q21.1125 124.100006 20.659374 124.55313Q20.20625 125.006256 20.190624 125.818756L19.1125 125.70938Q19.221874 124.49063 19.940624 123.86563Q20.675 123.225006 21.909374 123.225006Q23.14375 123.225006 23.8625 123.912506Q24.58125 124.600006 24.58125 125.61563Q24.58125 126.131256 24.3625 126.631256Q24.159374 127.11563 23.659374 127.67813Q23.175 128.225 22.05 129.17813Q21.096874 129.975 20.815624 130.27188Q20.55 130.55313 20.378124 130.83438L24.596874 130.83438ZM26.05 127.61563Q26.05 126.08438 26.3625 125.162506Q26.675 124.225006 27.284374 123.725006Q27.909374 123.225006 28.846874 123.225006Q29.534374 123.225006 30.05 123.506256Q30.58125 123.787506 30.925 124.318756Q31.26875 124.83438 31.45625 125.58438Q31.64375 126.33438 31.64375 127.61563Q31.64375 129.13126 31.33125 130.05313Q31.034374 130.975 30.409374 131.49063Q29.8 131.99063 28.846874 131.99063Q27.6125 131.99063 26.89375 131.1Q26.05 130.0375 26.05 127.61563ZM27.128124 127.61563Q27.128124 129.725 27.628124 130.42813Q28.128124 131.13126 28.846874 131.13126Q29.58125 131.13126 30.065624 130.42813Q30.565624 129.725 30.565624 127.61563Q30.565624 125.49063 30.065624 124.80313Q29.58125 124.100006 28.83125 124.100006Q28.1125 124.100006 27.675 124.70938Q27.128124 125.49063 27.128124 127.61563ZM33.64375 131.85L33.64375 130.64688L34.846874 130.64688L34.846874 131.85L33.64375 131.85ZM36.05 127.61563Q36.05 126.08438 36.3625 125.162506Q36.675 124.225006 37.284374 123.725006Q37.909374 123.225006 38.846874 123.225006Q39.534374 123.225006 40.05 123.506256Q40.58125 123.787506 40.925 124.318756Q41.26875 124.83438 41.45625 125.58438Q41.64375 126.33438 41.64375 127.61563Q41.64375 129.13126 41.33125 130.05313Q41.034374 130.975 40.409374 131.49063Q39.8 131.99063 38.846874 131.99063Q37.6125 131.99063 36.89375 131.1Q36.05 130.0375 36.05 127.61563ZM37.128124 127.61563Q37.128124 129.725 37.628124 130.42813Q38.128124 131.13126 38.846874 131.13126Q39.58125 131.13126 40.065624 130.42813Q40.565624 129.725 40.565624 127.61563Q40.565624 125.49063 40.065624 124.80313Q39.58125 124.100006 38.83125 124.100006Q38.1125 124.100006 37.675 124.70938Q37.128124 125.49063 37.128124 127.61563ZM43.05 127.61563Q43.05 126.08438 43.3625 125.162506Q43.675 124.225006 44.284374 123.725006Q44.909374 123.225006 45.846874 123.225006Q46.534374 123.225006 47.05 123.506256Q47.58125 123.787506 47.925 124.318756Q48.26875 124.83438 48.45625 125.58438Q48.64375 126.33438 48.64375 127.61563Q48.64375 129.13126 48.33125 130.05313Q48.034374 130.975 47.409374 131.49063Q46.8 131.99063 45.846874 131.99063Q44.6125 131.99063 43.89375 131.1Q43.05 130.0375 43.05 127.61563ZM44.128124 127.61563Q44.128124 129.725 44.628124 130.42813Q45.128124 131.13126 45.846874 131.13126Q46.58125 131.13126 47.065624 130.42813Q47.565624 129.725 47.565624 127.61563Q47.565624 125.49063 47.065624 124.80313Q46.58125 124.100006 45.83125 124.100006Q45.1125 124.100006 44.675 124.70938Q44.128124 125.49063 44.128124 127.61563ZM50.05 127.61563Q50.05 126.08438 50.3625 125.162506Q50.675 124.225006 51.284374 123.725006Q51.909374 123.225006 52.846874 123.225006Q53.534374 123.225006 54.05 123.506256Q54.58125 123.787506 54.925 124.318756Q55.26875 124.83438 55.45625 125.58438Q55.64375 126.33438 55.64375 127.61563Q55.64375 129.13126 55.33125 130.05313Q55.034374 130.975 54.409374 131.49063Q53.8 131.99063 52.846874 131.99063Q51.6125 131.99063 50.89375 131.1Q50.05 130.0375 50.05 127.61563ZM51.128124 127.61563Q51.128124 129.725 51.628124 130.42813Q52.128124 131.13126 52.846874 131.13126Q53.58125 131.13126 54.065624 130.42813Q54.565624 129.725 54.565624 127.61563Q54.565624 125.49063 54.065624 124.80313Q53.58125 124.100006 52.83125 124.100006Q52.1125 124.100006 51.675 124.70938Q51.128124 125.49063 51.128124 127.61563ZM57.05 127.61563Q57.05 126.08438 57.3625 125.162506Q57.675 124.225006 58.284374 123.725006Q58.909374 123.225006 59.846874 123.225006Q60.534374 123.225006 61.05 123.506256Q61.58125 123.787506 61.925 124.318756Q62.26875 124.83438 62.45625 125.58438Q62.64375 126.33438 62.64375 127.61563Q62.64375 129.13126 62.33125 130.05313Q62.034374 130.975 61.409374 131.49063Q60.8 131.99063 59.846874 131.99063Q58.6125 131.99063 57.89375 131.1Q57.05 130.0375 57.05 127.61563ZM58.128124 127.61563Q58.128124 129.725 58.628124 130.42813Q59.128124 131.13126 59.846874 131.13126Q60.58125 131.13126 61.065624 130.42813Q61.565624 129.725 61.565624 127.61563Q61.565624 125.49063 61.065624 124.80313Q60.58125 124.100006 59.83125 124.100006Q59.1125 124.100006 58.675 124.70938Q58.128124 125.49063 58.128124 127.61563Z" fill-rule="nonzero"/><path fill="#000000" d="M19.05 27.284374L20.1125 27.14375Q20.284374 28.034374 20.721874 28.440624Q21.159374 28.83125 21.784374 28.83125Q22.534374 28.83125 23.05 28.315624Q23.565624 27.8 23.565624 27.034374Q23.565624 26.315624 23.08125 25.846874Q22.6125 25.3625 21.878124 25.3625Q21.58125 25.3625 21.128124 25.4875L21.253124 24.55Q21.3625 24.565624 21.425 24.565624Q22.096874 24.565624 22.628124 24.221874Q23.175 23.8625 23.175 23.128124Q23.175 22.55 22.784374 22.175Q22.39375 21.784374 21.76875 21.784374Q21.159374 21.784374 20.7375 22.175Q20.33125 22.565624 20.221874 23.33125L19.159374 23.14375Q19.346874 22.096874 20.034374 21.51875Q20.721874 20.925 21.7375 20.925Q22.440624 20.925 23.034374 21.2375Q23.628124 21.534374 23.940624 22.05Q24.253124 22.565624 24.253124 23.159374Q24.253124 23.70625 23.95625 24.175Q23.659374 24.628124 23.08125 24.89375Q23.83125 25.065624 24.253124 25.628124Q24.675 26.175 24.675 27.01875Q24.675 28.14375 23.846874 28.925Q23.034374 29.70625 21.784374 29.70625Q20.659374 29.70625 19.909374 29.034374Q19.159374 28.346874 19.05 27.284374ZM26.05 25.315624Q26.05 23.784374 26.3625 22.8625Q26.675 21.925 27.284374 21.425Q27.909374 20.925 28.846874 20.925Q29.534374 20.925 30.05 21.20625Q30.58125 21.4875 30.925 22.01875Q31.26875 22.534374 31.45625 23.284374Q31.64375 24.034374 31.64375 25.315624Q31.64375 26.83125 31.33125 27.753124Q31.034374 28.675 30.409374 29.190624Q29.8 29.690624 28.846874 29.690624Q27.6125 29.690624 26.89375 28.8Q26.05 27.7375 26.05 25.315624ZM27.128124 25.315624Q27.128124 27.425 27.628124 28.128124Q28.128124 28.83125 28.846874 28.83125Q29.58125 28.83125 30.065624 28.128124Q30.565624 27.425 30.565624 25.315624Q30.565624 23.190624 30.065624 22.503124Q29.58125 21.8 28.83125 21.8Q28.1125 21.8 27.675 22.409374Q27.128124 23.190624 27.128124 25.315624ZM33.64375 29.55L33.64375 28.346874L34.846874 28.346874L34.846874 29.55L33.64375 29.55ZM36.05 25.315624Q36.05 23.784374 36.3625 22.8625Q36.675 21.925 37.284374 21.425Q37.909374 20.925 38.846874 20.925Q39.534374 20.925 40.05 21.20625Q40.58125 21.4875 40.925 22.01875Q41.26875 22.534374 41.45625 23.284374Q41.64375 24.034374 41.64375 25.315624Q41.64375 26.83125 41.33125 27.753124Q41.034374 28.675 40.409374 29.190624Q39.8 29.690624 38.846874 29.690624Q37.6125 29.690624 36.89375 28.8Q36.05 27.7375 36.05 25.315624ZM37.128124 25.315624Q37.128124 27.425 37.628124 28.128124Q38.128124 28.83125 38.846874 28.83125Q39.58125 28.83125 40.065624 28.128124Q40.565624 27.425 40.565624 25.315624Q40.565624 23.190624 40.065624 22.503124Q39.58125 21.8 38.83125 21.8Q38.1125 21.8 37.675 22.409374Q37.128124 23.190624 37.128124 25.315624ZM43.05 25.315624Q43.05 23.784374 43.3625 22.8625Q43.675 21.925 44.284374 21.425Q44.909374 20.925 45.846874 20.925Q46.534374 20.925 47.05 21.20625Q47.58125 21.4875 47.925 22.01875Q48.26875 22.534374 48.45625 23.284374Q48.64375 24.034374 48.64375 25.315624Q48.64375 26.83125 48.33125 27.753124Q48.034374 28.675 47.409374 29.190624Q46.8 29.690624 45.846874 29.690624Q44.6125 29.690624 43.89375 28.8Q43.05 27.7375 43.05 25.315624ZM44.128124 25.315624Q44.128124 27.425 44.628124 28.128124Q45.128124 28.83125 45.846874 28.83125Q46.58125 28.83125 47.065624 28.128124Q47.565624 27.425 47.565624 25.315624Q47.565624 23.190624 47.065624 22.503124Q46.58125 21.8 45.83125 21.8Q45.1125 21.8 44.675 22.409374Q44.128124 23.190624 44.128124 25.315624ZM50.05 25.315624Q50.05 23.784374 50.3625 22.8625Q50.675 21.925 51.284374 21.425Q51.909374 20.925 52.846874 20.925Q53.534374 20.925 54.05 21.20625Q54.58125 21.4875 54.925 22.01875Q55.26875 22.534374 55.45625 23.284374Q55.64375 24.034374 55.64375 25.315624Q55.64375 26.83125 55.33125 27.753124Q55.034374 28.675 54.409374 29.190624Q53.8 29.690624 52.846874 29.690624Q51.6125 29.690624 50.89375 28.8Q50.05 27.7375 50.05 25.315624ZM51.128124 25.315624Q51.128124 27.425 51.628124 28.128124Q52.128124 28.83125 52.846874 28.83125Q53.58125 28.83125 54.065624 28.128124Q54.565624 27.425 54.565624 25.315624Q54.565624 23.190624 54.065624 22.503124Q53.58125 21.8 52.83125 21.8Q52.1125 21.8 51.675 22.409374Q51.128124 23.190624 51.128124 25.315624ZM57.05 25.315624Q57.05 23.784374 57.3625 22.8625Q57.675 21.925 58.284374 21.425Q58.909374 20.925 59.846874 20.925Q60.534374 20.925 61.05 21.20625Q61.58125 21.4875 61.925 22.01875Q62.26875 22.534374 62.45625 23.284374Q62.64375 24.034374 62.64375 25.315624Q62.64375 26.83125 62.33125 27.753124Q62.034374 28.675 61.409374 29.190624Q60.8 29.690624 59.846874 29.690624Q58.6125 29.690624 57.89375 28.8Q57.05 27.7375 57.05 25.315624ZM58.128124 25.315624Q58.128124 27.425 58.628124 28.128124Q59.128124 28.83125 59.846874 28.83125Q60.58125 28.83125 61.065624 28.128124Q61.565624 27.425 61.565624 25.315624Q61.565624 23.190624 61.065624 22.503124Q60.58125 21.8 59.83125 21.8Q59.1125 21.8 58.675 22.409374Q58.128124 23.190624 58.128124 25.315624Z" fill-rule="nonzero"/><path fill="#000000" d="M91.95764 349.45L90.91077 349.45L90.91077 342.73126Q90.52014 343.09064 89.89514 343.46564Q89.28577 343.825 88.80139 343.9969L88.80139 342.98126Q89.67639 342.5594 90.33264 341.98126Q91.00452 341.3875 91.28577 340.825L91.95764 340.825L91.95764 349.45ZM94.98889 345.21564Q94.98889 343.6844 95.30139 342.7625Q95.61389 341.825 96.22327 341.325Q96.84827 340.825 97.78577 340.825Q98.47327 340.825 98.98889 341.10626Q99.52014 341.3875 99.86389 341.91876Q100.20764 342.4344 100.39514 343.1844Q100.58264 343.9344 100.58264 345.21564Q100.58264 346.73126 100.27014 347.65314Q99.97327 348.575 99.34827 349.09064Q98.73889 349.59064 97.78577 349.59064Q96.55139 349.59064 95.83264 348.7Q94.98889 347.6375 94.98889 345.21564ZM96.06702 345.21564Q96.06702 347.325 96.56702 348.02814Q97.06702 348.73126 97.78577 348.73126Q98.52014 348.73126 99.00452 348.02814Q99.50452 347.325 99.50452 345.21564Q99.50452 343.09064 99.00452 342.40314Q98.52014 341.7 97.77014 341.7Q97.05139 341.7 96.61389 342.3094Q96.06702 343.09064 96.06702 345.21564ZM101.98889 345.21564Q101.98889 343.6844 102.30139 342.7625Q102.61389 341.825 103.22327 341.325Q103.84827 340.825 104.78577 340.825Q105.47327 340.825 105.98889 341.10626Q106.52014 341.3875 106.86389 341.91876Q107.20764 342.4344 107.39514 343.1844Q107.58264 343.9344 107.58264 345.21564Q107.58264 346.73126 107.27014 347.65314Q106.97327 348.575 106.34827 349.09064Q105.73889 349.59064 104.78577 349.59064Q103.55139 349.59064 102.83264 348.7Q101.98889 347.6375 101.98889 345.21564ZM103.06702 345.21564Q103.06702 347.325 103.56702 348.02814Q104.06702 348.73126 104.78577 348.73126Q105.52014 348.73126 106.00452 348.02814Q106.50452 347.325 106.50452 345.21564Q106.50452 343.09064 106.00452 342.40314Q105.52014 341.7 104.77014 341.7Q104.05139 341.7 103.61389 342.3094Q103.06702 343.09064 103.06702 345.21564Z" fill-rule="nonzero"/><path fill="#000000" d="M150.41354 348.4344L150.41354 349.45L144.72604 349.45Q144.72604 349.075 144.85104 348.71564Q145.0698 348.1375 145.53854 347.575Q146.02292 347.0125 146.92917 346.27814Q148.33542 345.1219 148.8198 344.45Q149.3198 343.77814 149.3198 343.1844Q149.3198 342.5594 148.86667 342.1375Q148.41354 341.7 147.6948 341.7Q146.92917 341.7 146.47604 342.15314Q146.02292 342.60626 146.0073 343.41876L144.92917 343.3094Q145.03854 342.09064 145.7573 341.46564Q146.49167 340.825 147.72604 340.825Q148.96042 340.825 149.67917 341.5125Q150.39792 342.2 150.39792 343.21564Q150.39792 343.73126 150.17917 344.23126Q149.97604 344.71564 149.47604 345.27814Q148.99167 345.825 147.86667 346.77814Q146.91354 347.575 146.6323 347.8719Q146.36667 348.15314 146.1948 348.4344L150.41354 348.4344ZM151.86667 345.21564Q151.86667 343.6844 152.17917 342.7625Q152.49167 341.825 153.10104 341.325Q153.72604 340.825 154.66354 340.825Q155.35104 340.825 155.86667 341.10626Q156.39792 341.3875 156.74167 341.91876Q157.08542 342.4344 157.27292 343.1844Q157.46042 343.9344 157.46042 345.21564Q157.46042 346.73126 157.14792 347.65314Q156.85104 348.575 156.22604 349.09064Q155.61667 349.59064 154.66354 349.59064Q153.42917 349.59064 152.71042 348.7Q151.86667 347.6375 151.86667 345.21564ZM152.9448 345.21564Q152.9448 347.325 153.4448 348.02814Q153.9448 348.73126 154.66354 348.73126Q155.39792 348.73126 155.8823 348.02814Q156.3823 347.325 156.3823 345.21564Q156.3823 343.09064 155.8823 342.40314Q155.39792 341.7 154.64792 341.7Q153.92917 341.7 153.49167 342.3094Q152.9448 343.09064 152.9448 345.21564ZM158.86667 345.21564Q158.86667 343.6844 159.17917 342.7625Q159.49167 341.825 160.10104 341.325Q160.72604 340.825 161.66354 340.825Q162.35104 340.825 162.86667 341.10626Q163.39792 341.3875 163.74167 341.91876Q164.08542 342.4344 164.27292 343.1844Q164.46042 343.9344 164.46042 345.21564Q164.46042 346.73126 164.14792 347.65314Q163.85104 348.575 163.22604 349.09064Q162.61667 349.59064 161.66354 349.59064Q160.42917 349.59064 159.71042 348.7Q158.86667 347.6375 158.86667 345.21564ZM159.9448 345.21564Q159.9448 347.325 160.4448 348.02814Q160.9448 348.73126 161.66354 348.73126Q162.39792 348.73126 162.8823 348.02814Q163.3823 347.325 163.3823 345.21564Q163.3823 343.09064 162.8823 342.40314Q162.39792 341.7 161.64792 341.7Q160.92917 341.7 160.49167 342.3094Q159.9448 343.09064 159.9448 345.21564Z" fill-rule="nonzero"/><path fill="#000000" d="M201.74445 347.1844L202.80695 347.04376Q202.97882 347.9344 203.41632 348.34064Q203.85382 348.73126 204.47882 348.73126Q205.22882 348.73126 205.74445 348.21564Q206.26007 347.7 206.26007 346.9344Q206.26007 346.21564 205.7757 345.7469Q205.30695 345.2625 204.57257 345.2625Q204.2757 345.2625 203.82257 345.3875L203.94757 344.45Q204.05695 344.46564 204.11945 344.46564Q204.79132 344.46564 205.32257 344.1219Q205.86945 343.7625 205.86945 343.02814Q205.86945 342.45 205.47882 342.075Q205.0882 341.6844 204.4632 341.6844Q203.85382 341.6844 203.43195 342.075Q203.0257 342.46564 202.91632 343.23126L201.85382 343.04376Q202.04132 341.9969 202.72882 341.41876Q203.41632 340.825 204.43195 340.825Q205.13507 340.825 205.72882 341.1375Q206.32257 341.4344 206.63507 341.95Q206.94757 342.46564 206.94757 343.0594Q206.94757 343.60626 206.6507 344.075Q206.35382 344.52814 205.7757 344.79376Q206.5257 344.96564 206.94757 345.52814Q207.36945 346.075 207.36945 346.91876Q207.36945 348.04376 206.54132 348.825Q205.72882 349.60626 204.47882 349.60626Q203.35382 349.60626 202.60382 348.9344Q201.85382 348.2469 201.74445 347.1844ZM208.74445 345.21564Q208.74445 343.6844 209.05695 342.7625Q209.36945 341.825 209.97882 341.325Q210.60382 340.825 211.54132 340.825Q212.22882 340.825 212.74445 341.10626Q213.2757 341.3875 213.61945 341.91876Q213.9632 342.4344 214.1507 343.1844Q214.3382 343.9344 214.3382 345.21564Q214.3382 346.73126 214.0257 347.65314Q213.72882 348.575 213.10382 349.09064Q212.49445 349.59064 211.54132 349.59064Q210.30695 349.59064 209.5882 348.7Q208.74445 347.6375 208.74445 345.21564ZM209.82257 345.21564Q209.82257 347.325 210.32257 348.02814Q210.82257 348.73126 211.54132 348.73126Q212.2757 348.73126 212.76007 348.02814Q213.26007 347.325 213.26007 345.21564Q213.26007 343.09064 212.76007 342.40314Q212.2757 341.7 211.5257 341.7Q210.80695 341.7 210.36945 342.3094Q209.82257 343.09064 209.82257 345.21564ZM215.74445 345.21564Q215.74445 343.6844 216.05695 342.7625Q216.36945 341.825 216.97882 341.325Q217.60382 340.825 218.54132 340.825Q219.22882 340.825 219.74445 341.10626Q220.2757 341.3875 220.61945 341.91876Q220.9632 342.4344 221.1507 343.1844Q221.3382 343.9344 221.3382 345.21564Q221.3382 346.73126 221.0257 347.65314Q220.72882 348.575 220.10382 349.09064Q219.49445 349.59064 218.54132 349.59064Q217.30695 349.59064 216.5882 348.7Q215.74445 347.6375 215.74445 345.21564ZM216.82257 345.21564Q216.82257 347.325 217.32257 348.02814Q217.82257 348.73126 218.54132 348.73126Q219.2757 348.73126 219.76007 348.02814Q220.26007 347.325 220.26007 345.21564Q220.26007 343.09064 219.76007 342.40314Q219.2757 341.7 218.5257 341.7Q217.80695 341.7 217.36945 342.3094Q216.82257 343.09064 216.82257 345.21564Z" fill-rule="nonzero"/><path fill="#000000" d="M261.99722 349.45L261.99722 347.3875L258.27847 347.3875L258.27847 346.41876L262.20035 340.85626L263.05972 340.85626L263.05972 346.41876L264.21597 346.41876L264.21597 347.3875L263.05972 347.3875L263.05972 349.45L261.99722 349.45ZM261.99722 346.41876L261.99722 342.5594L259.30972 346.41876L261.99722 346.41876ZM265.62222 345.21564Q265.62222 343.6844 265.93472 342.7625Q266.24722 341.825 266.8566 341.325Q267.4816 340.825 268.4191 340.825Q269.1066 340.825 269.62222 341.10626Q270.15347 341.3875 270.49722 341.91876Q270.84097 342.4344 271.02847 343.1844Q271.21597 343.9344 271.21597 345.21564Q271.21597 346.73126 270.90347 347.65314Q270.6066 348.575 269.9816 349.09064Q269.37222 349.59064 268.4191 349.59064Q267.18472 349.59064 266.46597 348.7Q265.62222 347.6375 265.62222 345.21564ZM266.70035 345.21564Q266.70035 347.325 267.20035 348.02814Q267.70035 348.73126 268.4191 348.73126Q269.15347 348.73126 269.63785 348.02814Q270.13785 347.325 270.13785 345.21564Q270.13785 343.09064 269.63785 342.40314Q269.15347 341.7 268.40347 341.7Q267.68472 341.7 267.24722 342.3094Q266.70035 343.09064 266.70035 345.21564ZM272.62222 345.21564Q272.62222 343.6844 272.93472 342.7625Q273.24722 341.825 273.8566 341.325Q274.4816 340.825 275.4191 340.825Q276.1066 340.825 276.62222 341.10626Q277.15347 341.3875 277.49722 341.91876Q277.84097 342.4344 278.02847 343.1844Q278.21597 343.9344 278.21597 345.21564Q278.21597 346.73126 277.90347 347.65314Q277.6066 348.575 276.9816 349.09064Q276.37222 349.59064 275.4191 349.59064Q274.18472 349.59064 273.46597 348.7Q272.62222 347.6375 272.62222 345.21564ZM273.70035 345.21564Q273.70035 347.325 274.20035 348.02814Q274.70035 348.73126 275.4191 348.73126Q276.15347 348.73126 276.63785 348.02814Q277.13785 347.325 277.13785 345.21564Q277.13785 343.09064 276.63785 342.40314Q276.15347 341.7 275.40347 341.7Q274.68472 341.7 274.24722 342.3094Q273.70035 343.09064 273.70035 345.21564Z" fill-rule="nonzero"/><path fill="#000000" d="M315.5 347.2L316.60938 347.10626Q316.73438 347.91876 317.17188 348.325Q317.625 348.73126 318.26562 348.73126Q319.01562 348.73126 319.54688 348.15314Q320.07812 347.575 320.07812 346.6375Q320.07812 345.73126 319.5625 345.21564Q319.0625 344.6844 318.23438 344.6844Q317.73438 344.6844 317.3125 344.91876Q316.90625 345.15314 316.67188 345.5125L315.6875 345.3875L316.51562 340.98126L320.79688 340.98126L320.79688 341.98126L317.35938 341.98126L316.90625 344.29376Q317.67188 343.7469 318.51562 343.7469Q319.64062 343.7469 320.40625 344.52814Q321.1875 345.3094 321.1875 346.54376Q321.1875 347.7 320.51562 348.5594Q319.6875 349.59064 318.26562 349.59064Q317.09375 349.59064 316.34375 348.9344Q315.60938 348.27814 315.5 347.2ZM322.5 345.21564Q322.5 343.6844 322.8125 342.7625Q323.125 341.825 323.73438 341.325Q324.35938 340.825 325.29688 340.825Q325.98438 340.825 326.5 341.10626Q327.03125 341.3875 327.375 341.91876Q327.71875 342.4344 327.90625 343.1844Q328.09375 343.9344 328.09375 345.21564Q328.09375 346.73126 327.78125 347.65314Q327.48438 348.575 326.85938 349.09064Q326.25 349.59064 325.29688 349.59064Q324.0625 349.59064 323.34375 348.7Q322.5 347.6375 322.5 345.21564ZM323.57812 345.21564Q323.57812 347.325 324.07812 348.02814Q324.57812 348.73126 325.29688 348.73126Q326.03125 348.73126 326.51562 348.02814Q327.01562 347.325 327.01562 345.21564Q327.01562 343.09064 326.51562 342.40314Q326.03125 341.7 325.28125 341.7Q324.5625 341.7 324.125 342.3094Q323.57812 343.09064 323.57812 345.21564ZM329.5 345.21564Q329.5 343.6844 329.8125 342.7625Q330.125 341.825 330.73438 341.325Q331.35938 340.825 332.29688 340.825Q332.98438 340.825 333.5 341.10626Q334.03125 341.3875 334.375 341.91876Q334.71875 342.4344 334.90625 343.1844Q335.09375 343.9344 335.09375 345.21564Q335.09375 346.73126 334.78125 347.65314Q334.48438 348.575 333.85938 349.09064Q333.25 349.59064 332.29688 349.59064Q331.0625 349.59064 330.34375 348.7Q329.5 347.6375 329.5 345.21564ZM330.57812 345.21564Q330.57812 347.325 331.07812 348.02814Q331.57812 348.73126 332.29688 348.73126Q333.03125 348.73126 333.51562 348.02814Q334.01562 347.325 334.01562 345.21564Q334.01562 343.09064 333.51562 342.40314Q333.03125 341.7 332.28125 341.7Q331.5625 341.7 331.125 342.3094Q330.57812 343.09064 330.57812 345.21564Z" fill-rule="nonzero"/><path fill="#000000" d="M377.84653 342.96564L376.79965 343.04376Q376.65903 342.41876 376.40903 342.1375Q375.97153 341.6844 375.34653 341.6844Q374.84653 341.6844 374.4559 341.96564Q373.97153 342.34064 373.67465 343.04376Q373.3934 343.73126 373.37778 345.0125Q373.75278 344.4344 374.29965 344.15314Q374.86215 343.8719 375.47153 343.8719Q376.5184 343.8719 377.25278 344.65314Q378.00278 345.4344 378.00278 346.65314Q378.00278 347.46564 377.6434 348.16876Q377.29965 348.85626 376.69028 349.23126Q376.0809 349.59064 375.31528 349.59064Q373.98715 349.59064 373.15903 348.6219Q372.3309 347.65314 372.3309 345.4344Q372.3309 342.9344 373.25278 341.8094Q374.04965 340.825 375.40903 340.825Q376.42465 340.825 377.06528 341.40314Q377.72153 341.96564 377.84653 342.96564ZM373.54965 346.66876Q373.54965 347.21564 373.7684 347.71564Q374.00278 348.2 374.40903 348.46564Q374.8309 348.73126 375.29965 348.73126Q375.9559 348.73126 376.44028 348.2Q376.92465 347.65314 376.92465 346.73126Q376.92465 345.84064 376.44028 345.325Q375.97153 344.8094 375.25278 344.8094Q374.53403 344.8094 374.03403 345.325Q373.54965 345.84064 373.54965 346.66876ZM379.37778 345.21564Q379.37778 343.6844 379.69028 342.7625Q380.00278 341.825 380.61215 341.325Q381.23715 340.825 382.17465 340.825Q382.86215 340.825 383.37778 341.10626Q383.90903 341.3875 384.25278 341.91876Q384.59653 342.4344 384.78403 343.1844Q384.97153 343.9344 384.97153 345.21564Q384.97153 346.73126 384.65903 347.65314Q384.36215 348.575 383.73715 349.09064Q383.12778 349.59064 382.17465 349.59064Q380.94028 349.59064 380.22153 348.7Q379.37778 347.6375 379.37778 345.21564ZM380.4559 345.21564Q380.4559 347.325 380.9559 348.02814Q381.4559 348.73126 382.17465 348.73126Q382.90903 348.73126 383.3934 348.02814Q383.8934 347.325 383.8934 345.21564Q383.8934 343.09064 383.3934 342.40314Q382.90903 341.7 382.15903 341.7Q381.44028 341.7 381.00278 342.3094Q380.4559 343.09064 380.4559 345.21564ZM386.37778 345.21564Q386.37778 343.6844 386.69028 342.7625Q387.00278 341.825 387.61215 341.325Q388.23715 340.825 389.17465 340.825Q389.86215 340.825 390.37778 341.10626Q390.90903 341.3875 391.25278 341.91876Q391.59653 342.4344 391.78403 343.1844Q391.97153 343.9344 391.97153 345.21564Q391.97153 346.73126 391.65903 347.65314Q391.36215 348.575 390.73715 349.09064Q390.12778 349.59064 389.17465 349.59064Q387.94028 349.59064 387.22153 348.7Q386.37778 347.6375 386.37778 345.21564ZM387.4559 345.21564Q387.4559 347.325 387.9559 348.02814Q388.4559 348.73126 389.17465 348.73126Q389.90903 348.73126 390.3934 348.02814Q390.8934 347.325 390.8934 345.21564Q390.8934 343.09064 390.3934 342.40314Q389.90903 341.7 389.15903 341.7Q388.44028 341.7 388.00278 342.3094Q387.4559 343.09064 387.4559 345.21564Z" fill-rule="nonzero"/><path fill="#000000" d="M429.31805 341.98126L429.31805 340.96564L434.88055 340.96564L434.88055 341.79376Q434.06805 342.66876 433.25555 344.1219Q432.45868 345.5594 432.02118 347.09064Q431.69305 348.16876 431.61493 349.45L430.52118 349.45Q430.5368 348.4344 430.9118 346.9969Q431.30243 345.5594 432.00555 344.23126Q432.7243 342.90314 433.5368 341.98126L429.31805 341.98126ZM436.25555 345.21564Q436.25555 343.6844 436.56805 342.7625Q436.88055 341.825 437.48993 341.325Q438.11493 340.825 439.05243 340.825Q439.73993 340.825 440.25555 341.10626Q440.7868 341.3875 441.13055 341.91876Q441.4743 342.4344 441.6618 343.1844Q441.8493 343.9344 441.8493 345.21564Q441.8493 346.73126 441.5368 347.65314Q441.23993 348.575 440.61493 349.09064Q440.00555 349.59064 439.05243 349.59064Q437.81805 349.59064 437.0993 348.7Q436.25555 347.6375 436.25555 345.21564ZM437.33368 345.21564Q437.33368 347.325 437.83368 348.02814Q438.33368 348.73126 439.05243 348.73126Q439.7868 348.73126 440.27118 348.02814Q440.77118 347.325 440.77118 345.21564Q440.77118 343.09064 440.27118 342.40314Q439.7868 341.7 439.0368 341.7Q438.31805 341.7 437.88055 342.3094Q437.33368 343.09064 437.33368 345.21564ZM443.25555 345.21564Q443.25555 343.6844 443.56805 342.7625Q443.88055 341.825 444.48993 341.325Q445.11493 340.825 446.05243 340.825Q446.73993 340.825 447.25555 341.10626Q447.7868 341.3875 448.13055 341.91876Q448.4743 342.4344 448.6618 343.1844Q448.8493 343.9344 448.8493 345.21564Q448.8493 346.73126 448.5368 347.65314Q448.23993 348.575 447.61493 349.09064Q447.00555 349.59064 446.05243 349.59064Q444.81805 349.59064 444.0993 348.7Q443.25555 347.6375 443.25555 345.21564ZM444.33368 345.21564Q444.33368 347.325 444.83368 348.02814Q445.33368 348.73126 446.05243 348.73126Q446.7868 348.73126 447.27118 348.02814Q447.77118 347.325 447.77118 345.21564Q447.77118 343.09064 447.27118 342.40314Q446.7868 341.7 446.0368 341.7Q445.31805 341.7 444.88055 342.3094Q444.33368 343.09064 444.33368 345.21564Z" fill-rule="nonzero"/><path fill="#000000" d="M487.75833 344.79376Q487.10208 344.54376 486.77396 344.10626Q486.46146 343.65314 486.46146 343.04376Q486.46146 342.10626 487.13333 341.46564Q487.82083 340.825 488.9302 340.825Q490.0552 340.825 490.7427 341.48126Q491.4302 342.1375 491.4302 343.075Q491.4302 343.66876 491.1177 344.10626Q490.8052 344.54376 490.16458 344.79376Q490.96146 345.04376 491.3677 345.6219Q491.77396 346.2 491.77396 346.9969Q491.77396 348.09064 490.9927 348.84064Q490.22708 349.59064 488.94583 349.59064Q487.6802 349.59064 486.89896 348.84064Q486.1177 348.09064 486.1177 346.96564Q486.1177 346.1219 486.53958 345.5594Q486.97708 344.9969 487.75833 344.79376ZM487.53958 342.9969Q487.53958 343.60626 487.9302 343.9969Q488.33646 344.3875 488.96146 344.3875Q489.57083 344.3875 489.96146 344.0125Q490.35208 343.6219 490.35208 343.0594Q490.35208 342.48126 489.94583 342.09064Q489.53958 341.6844 488.94583 341.6844Q488.33646 341.6844 487.9302 342.075Q487.53958 342.46564 487.53958 342.9969ZM487.21146 346.96564Q487.21146 347.41876 487.41458 347.84064Q487.63333 348.2625 488.0552 348.4969Q488.47708 348.73126 488.96146 348.73126Q489.71146 348.73126 490.19583 348.2469Q490.69583 347.7625 490.69583 347.0125Q490.69583 346.2469 490.19583 345.7469Q489.69583 345.2469 488.9302 345.2469Q488.1802 345.2469 487.69583 345.7469Q487.21146 346.23126 487.21146 346.96564ZM493.13333 345.21564Q493.13333 343.6844 493.44583 342.7625Q493.75833 341.825 494.3677 341.325Q494.9927 340.825 495.9302 340.825Q496.6177 340.825 497.13333 341.10626Q497.66458 341.3875 498.00833 341.91876Q498.35208 342.4344 498.53958 343.1844Q498.72708 343.9344 498.72708 345.21564Q498.72708 346.73126 498.41458 347.65314Q498.1177 348.575 497.4927 349.09064Q496.88333 349.59064 495.9302 349.59064Q494.69583 349.59064 493.97708 348.7Q493.13333 347.6375 493.13333 345.21564ZM494.21146 345.21564Q494.21146 347.325 494.71146 348.02814Q495.21146 348.73126 495.9302 348.73126Q496.66458 348.73126 497.14896 348.02814Q497.64896 347.325 497.64896 345.21564Q497.64896 343.09064 497.14896 342.40314Q496.66458 341.7 495.91458 341.7Q495.19583 341.7 494.75833 342.3094Q494.21146 343.09064 494.21146 345.21564ZM500.13333 345.21564Q500.13333 343.6844 500.44583 342.7625Q500.75833 341.825 501.3677 341.325Q501.9927 340.825 502.9302 340.825Q503.6177 340.825 504.13333 341.10626Q504.66458 341.3875 505.00833 341.91876Q505.35208 342.4344 505.53958 343.1844Q505.72708 343.9344 505.72708 345.21564Q505.72708 346.73126 505.41458 347.65314Q505.1177 348.575 504.4927 349.09064Q503.88333 349.59064 502.9302 349.59064Q501.69583 349.59064 500.97708 348.7Q500.13333 347.6375 500.13333 345.21564ZM501.21146 345.21564Q501.21146 347.325 501.71146 348.02814Q502.21146 348.73126 502.9302 348.73126Q503.66458 348.73126 504.14896 348.02814Q504.64896 347.325 504.64896 345.21564Q504.64896 343.09064 504.14896 342.40314Q503.66458 341.7 502.91458 341.7Q502.19583 341.7 501.75833 342.3094Q501.21146 343.09064 501.21146 345.21564Z" fill-rule="nonzero"/><path fill="#000000" d="M543.16736 347.46564L544.183 347.3719Q544.308 348.09064 544.66736 348.41876Q545.04236 348.73126 545.60486 348.73126Q546.08923 348.73126 546.4486 348.5125Q546.8236 348.27814 547.058 347.91876Q547.29236 347.54376 547.4486 346.91876Q547.60486 346.27814 547.60486 345.6219Q547.60486 345.54376 547.60486 345.40314Q547.29236 345.90314 546.7455 346.23126Q546.1986 346.54376 545.558 346.54376Q544.47986 346.54376 543.7455 345.77814Q543.0111 344.9969 543.0111 343.73126Q543.0111 342.41876 543.77673 341.6219Q544.558 340.825 545.71423 340.825Q546.54236 340.825 547.22986 341.27814Q547.933 341.73126 548.29236 342.575Q548.65173 343.40314 548.65173 344.98126Q548.65173 346.6219 548.29236 347.60626Q547.9486 348.575 547.22986 349.09064Q546.52673 349.59064 545.58923 349.59064Q544.5736 349.59064 543.933 349.04376Q543.29236 348.48126 543.16736 347.46564ZM547.47986 343.66876Q547.47986 342.7625 546.9955 342.23126Q546.52673 341.7 545.83923 341.7Q545.1361 341.7 544.60486 342.27814Q544.08923 342.84064 544.08923 343.7625Q544.08923 344.575 544.58923 345.09064Q545.08923 345.60626 545.808 345.60626Q546.54236 345.60626 547.0111 345.09064Q547.47986 344.575 547.47986 343.66876ZM550.0111 345.21564Q550.0111 343.6844 550.3236 342.7625Q550.6361 341.825 551.2455 341.325Q551.8705 340.825 552.808 340.825Q553.4955 340.825 554.0111 341.10626Q554.54236 341.3875 554.8861 341.91876Q555.22986 342.4344 555.41736 343.1844Q555.60486 343.9344 555.60486 345.21564Q555.60486 346.73126 555.29236 347.65314Q554.9955 348.575 554.3705 349.09064Q553.7611 349.59064 552.808 349.59064Q551.5736 349.59064 550.85486 348.7Q550.0111 347.6375 550.0111 345.21564ZM551.08923 345.21564Q551.08923 347.325 551.58923 348.02814Q552.08923 348.73126 552.808 348.73126Q553.54236 348.73126 554.02673 348.02814Q554.52673 347.325 554.52673 345.21564Q554.52673 343.09064 554.02673 342.40314Q553.54236 341.7 552.79236 341.7Q552.0736 341.7 551.6361 342.3094Q551.08923 343.09064 551.08923 345.21564ZM557.0111 345.21564Q557.0111 343.6844 557.3236 342.7625Q557.6361 341.825 558.2455 341.325Q558.8705 340.825 559.808 340.825Q560.4955 340.825 561.0111 341.10626Q561.54236 341.3875 561.8861 341.91876Q562.22986 342.4344 562.41736 343.1844Q562.60486 343.9344 562.60486 345.21564Q562.60486 346.73126 562.29236 347.65314Q561.9955 348.575 561.3705 349.09064Q560.7611 349.59064 559.808 349.59064Q558.5736 349.59064 557.85486 348.7Q557.0111 347.6375 557.0111 345.21564ZM558.08923 345.21564Q558.08923 347.325 558.58923 348.02814Q559.08923 348.73126 559.808 348.73126Q560.54236 348.73126 561.02673 348.02814Q561.52673 347.325 561.52673 345.21564Q561.52673 343.09064 561.02673 342.40314Q560.54236 341.7 559.79236 341.7Q559.0736 341.7 558.6361 342.3094Q558.08923 343.09064 558.08923 345.21564Z" fill-rule="nonzero"/></svg>