<svg version="1.1" viewBox="0.0 0.0 600.0 371.0" fill="none" stroke="none" stroke-linecap="square" stroke-miterlimit="10" width="600" height="371" xmlns:xlink="http://www.w3.org/1999/xlink" xmlns="http://www.w3.org/2000/svg"><path fill="#ffffff" d="M0 0L600.0 0L600.0 371.0L0 371.0L0 0Z" fill-rule="nonzero"/><path stroke="#333333" stroke-width="1.0" stroke-linecap="butt" d="M69.5 332.5L581.5 332.5" fill-rule="nonzero"/><path stroke="#cccccc" stroke-width="1.0" stroke-linecap="butt" d="M69.5 230.5L581.5 230.5" fill-rule="nonzero"/><path stroke="#cccccc" stroke-width="1.0" stroke-linecap="butt" d="M69.5 127.5L581.5 127.5" fill-rule="nonzero"/><path stroke="#cccccc" stroke-width="1.0" stroke-linecap="butt" d="M69.5 25.5L581.5 25.5" fill-rule="nonzero"/><clipPath id="id_0"><path d="M69.55 25.55L581.45 25.55L581.45 332.45L69.55 332.45L69.55 25.55Z" clip-rule="nonzero"/></clipPath><path stroke="#4285f4" stroke-width="2.0" stroke-linecap="butt" clip-path="url(#id_0)" d="M83.76945 33.033848L112.208336 148.0902L140.64722 298.2858L169.0861 299.6752L197.525 319.94666L225.96388 308.11136L254.40277 306.39633L282.84167 313.90366L311.28055 324.04178L339.71945 311.77853L368.15833 315.6399L396.59723 311.86185L425.0361 319.87988L453.475 319.38583L481.91388 321.98416L510.35278 319.83337L538.7917 321.24133L567.2305 322.92523" fill-rule="nonzero"/><path fill="#000000" fill-opacity="0.0" clip-path="url(#id_0)" d="M86.76945 33.033848C86.76945 34.6907 85.4263 36.033848 83.76945 36.033848C82.11259 36.033848 80.76945 34.6907 80.76945 33.033848C80.76945 31.376991 82.11259 30.033846 83.76945 30.033846C85.4263 30.033846 86.76945 31.376991 86.76945 33.033848Z" fill-rule="nonzero"/><path fill="#000000" fill-opacity="0.0" clip-path="url(#id_0)" d="M115.208336 148.0902C115.208336 149.74706 113.86519 151.0902 112.208336 151.0902C110.551476 151.0902 109.208336 149.74706 109.208336 148.0902C109.208336 146.43335 110.551476 145.0902 112.208336 145.0902C113.86519 145.0902 115.208336 146.43335 115.208336 148.0902Z" fill-rule="nonzero"/><path fill="#000000" fill-opacity="0.0" clip-path="url(#id_0)" d="M143.64722 298.2858C143.64722 299.94263 142.30408 301.2858 140.64722 301.2858C138.99037 301.2858 137.64722 299.94263 137.64722 298.2858C137.64722 296.62894 138.99037 295.2858 140.64722 295.2858C142.30408 295.2858 143.64722 296.62894 143.64722 298.2858Z" fill-rule="nonzero"/><path fill="#000000" fill-opacity="0.0" clip-path="url(#id_0)" d="M172.0861 299.6752C172.0861 301.33206 170.74297 302.6752 169.0861 302.6752C167.42926 302.6752 166.0861 301.33206 166.0861 299.6752C166.0861 298.01837 167.42926 296.6752 169.0861 296.6752C170.74297 296.6752 172.0861 298.01837 172.0861 299.6752Z" fill-rule="nonzero"/><path fill="#000000" fill-opacity="0.0" clip-path="url(#id_0)" d="M200.525 319.94666C200.525 321.60352 199.18185 322.94666 197.525 322.94666C195.86815 322.94666 194.525 321.60352 194.525 319.94666C194.525 318.28983 195.86815 316.94666 197.525 316.94666C199.18185 316.94666 200.525 318.28983 200.525 319.94666Z" fill-rule="nonzero"/><path fill="#000000" fill-opacity="0.0" clip-path="url(#id_0)" d="M228.96388 308.11136C228.96388 309.76822 227.62074 311.11136 225.96388 311.11136C224.30704 311.11136 222.96388 309.76822 222.96388 308.11136C222.96388 306.4545 224.30704 305.11136 225.96388 305.11136C227.62074 305.11136 228.96388 306.4545 228.96388 308.11136Z" fill-rule="nonzero"/><path fill="#000000" fill-opacity="0.0" clip-path="url(#id_0)" d="M257.40277 306.39633C257.40277 308.0532 256.05963 309.39633 254.40277 309.39633C252.74593 309.39633 251.40277 308.0532 251.40277 306.39633C251.40277 304.73947 252.74593 303.39633 254.40277 303.39633C256.05963 303.39633 257.40277 304.73947 257.40277 306.39633Z" fill-rule="nonzero"/><path fill="#000000" fill-opacity="0.0" clip-path="url(#id_0)" d="M285.84167 313.90366C285.84167 315.56052 284.49854 316.90366 282.84167 316.90366C281.1848 316.90366 279.84167 315.56052 279.84167 313.90366C279.84167 312.2468 281.1848 310.90366 282.84167 310.90366C284.49854 310.90366 285.84167 312.2468 285.84167 313.90366Z" fill-rule="nonzero"/><path fill="#000000" fill-opacity="0.0" clip-path="url(#id_0)" d="M314.28055 324.04178C314.28055 325.69864 312.9374 327.04178 311.28055 327.04178C309.6237 327.04178 308.28055 325.69864 308.28055 324.04178C308.28055 322.38492 309.6237 321.04178 311.28055 321.04178C312.9374 321.04178 314.28055 322.38492 314.28055 324.04178Z" fill-rule="nonzero"/><path fill="#000000" fill-opacity="0.0" clip-path="url(#id_0)" d="M342.71945 311.77853C342.71945 313.4354 341.3763 314.77853 339.71945 314.77853C338.0626 314.77853 336.71945 313.4354 336.71945 311.77853C336.71945 310.12167 338.0626 308.77853 339.71945 308.77853C341.3763 308.77853 342.71945 310.12167 342.71945 311.77853Z" fill-rule="nonzero"/><path fill="#000000" fill-opacity="0.0" clip-path="url(#id_0)" d="M371.15833 315.6399C371.15833 317.29675 369.8152 318.6399 368.15833 318.6399C366.50146 318.6399 365.15833 317.29675 365.15833 315.6399C365.15833 313.98303 366.50146 312.6399 368.15833 312.6399C369.8152 312.6399 371.15833 313.98303 371.15833 315.6399Z" fill-rule="nonzero"/><path fill="#000000" fill-opacity="0.0" clip-path="url(#id_0)" d="M399.59723 311.86185C399.59723 313.51868 398.2541 314.86185 396.59723 314.86185C394.94037 314.86185 393.59723 313.51868 393.59723 311.86185C393.59723 310.205 394.94037 308.86185 396.59723 308.86185C398.2541 308.86185 399.59723 310.205 399.59723 311.86185Z" fill-rule="nonzero"/><path fill="#000000" fill-opacity="0.0" clip-path="url(#id_0)" d="M428.0361 319.87988C428.0361 321.53674 426.69296 322.87988 425.0361 322.87988C423.37924 322.87988 422.0361 321.53674 422.0361 319.87988C422.0361 318.22302 423.37924 316.87988 425.0361 316.87988C426.69296 316.87988 428.0361 318.22302 428.0361 319.87988Z" fill-rule="nonzero"/><path fill="#000000" fill-opacity="0.0" clip-path="url(#id_0)" d="M456.475 319.38583C456.475 321.0427 455.13187 322.38583 453.475 322.38583C451.81815 322.38583 450.475 321.0427 450.475 319.38583C450.475 317.72897 451.81815 316.38583 453.475 316.38583C455.13187 316.38583 456.475 317.72897 456.475 319.38583Z" fill-rule="nonzero"/><path fill="#000000" fill-opacity="0.0" clip-path="url(#id_0)" d="M484.91388 321.98416C484.91388 323.641 483.57074 324.98416 481.91388 324.98416C480.25705 324.98416 478.91388 323.641 478.91388 321.98416C478.91388 320.3273 480.25705 318.98416 481.91388 318.98416C483.57074 318.98416 484.91388 320.3273 484.91388 321.98416Z" fill-rule="nonzero"/><path fill="#000000" fill-opacity="0.0" clip-path="url(#id_0)" d="M513.3528 319.83337C513.3528 321.49023 512.00964 322.83337 510.35278 322.83337C508.69592 322.83337 507.35278 321.49023 507.35278 319.83337C507.35278 318.1765 508.69592 316.83337 510.35278 316.83337C512.00964 316.83337 513.3528 318.1765 513.3528 319.83337Z" fill-rule="nonzero"/><path fill="#000000" fill-opacity="0.0" clip-path="url(#id_0)" d="M541.7917 321.24133C541.7917 322.8982 540.44855 324.24133 538.7917 324.24133C537.1348 324.24133 535.7917 322.8982 535.7917 321.24133C535.7917 319.5845 537.1348 318.24133 538.7917 318.24133C540.44855 318.24133 541.7917 319.5845 541.7917 321.24133Z" fill-rule="nonzero"/><path fill="#000000" fill-opacity="0.0" clip-path="url(#id_0)" d="M570.2305 322.92523C570.2305 324.5821 568.8874 325.92523 567.2305 325.92523C565.5737 325.92523 564.2305 324.5821 564.2305 322.92523C564.2305 321.26837 565.5737 319.92523 567.2305 319.92523C568.8874 319.92523 570.2305 321.26837 570.2305 322.92523Z" fill-rule="nonzero"/><path fill="#000000" d="M26.05 332.21564Q26.05 330.6844 26.3625 329.7625Q26.675 328.825 27.284374 328.325Q27.909374 327.825 28.846874 327.825Q29.534374 327.825 30.05 328.10626Q30.58125 328.3875 30.925 328.91876Q31.26875 329.4344 31.45625 330.1844Q31.64375 330.9344 31.64375 332.21564Q31.64375 333.73126 31.33125 334.65314Q31.034374 335.575 30.409374 336.09064Q29.8 336.59064 28.846874 336.59064Q27.6125 336.59064 26.89375 335.7Q26.05 334.6375 26.05 332.21564ZM27.128124 332.21564Q27.128124 334.325 27.628124 335.02814Q28.128124 335.73126 28.846874 335.73126Q29.58125 335.73126 30.065624 335.02814Q30.565624 334.325 30.565624 332.21564Q30.565624 330.09064 30.065624 329.40314Q29.58125 328.7 28.83125 328.7Q28.1125 328.7 27.675 329.3094Q27.128124 330.09064 27.128124 332.21564ZM33.64375 336.45L33.64375 335.2469L34.846874 335.2469L34.846874 336.45L33.64375 336.45ZM36.05 332.21564Q36.05 330.6844 36.3625 329.7625Q36.675 328.825 37.284374 328.325Q37.909374 327.825 38.846874 327.825Q39.534374 327.825 40.05 328.10626Q40.58125 328.3875 40.925 328.91876Q41.26875 329.4344 41.45625 330.1844Q41.64375 330.9344 41.64375 332.21564Q41.64375 333.73126 41.33125 334.65314Q41.034374 335.575 40.409374 336.09064Q39.8 336.59064 38.846874 336.59064Q37.6125 336.59064 36.89375 335.7Q36.05 334.6375 36.05 332.21564ZM37.128124 332.21564Q37.128124 334.325 37.628124 335.02814Q38.128124 335.73126 38.846874 335.73126Q39.58125 335.73126 40.065624 335.02814Q40.565624 334.325 40.565624 332.21564Q40.565624 330.09064 40.065624 329.40314Q39.58125 328.7 38.83125 328.7Q38.1125 328.7 37.675 329.3094Q37.128124 330.09064 37.128124 332.21564ZM43.05 332.21564Q43.05 330.6844 43.3625 329.7625Q43.675 328.825 44.284374 328.325Q44.909374 327.825 45.846874 327.825Q46.534374 327.825 47.05 328.10626Q47.58125 328.3875 47.925 328.91876Q48.26875 329.4344 48.45625 330.1844Q48.64375 330.9344 48.64375 332.21564Q48.64375 333.73126 48.33125 334.65314Q48.034374 335.575 47.409374 336.09064Q46.8 336.59064 45.846874 336.59064Q44.6125 336.59064 43.89375 335.7Q43.05 334.6375 43.05 332.21564ZM44.128124 332.21564Q44.128124 334.325 44.628124 335.02814Q45.128124 335.73126 45.846874 335.73126Q46.58125 335.73126 47.065624 335.02814Q47.565624 334.325 47.565624 332.21564Q47.565624 330.09064 47.065624 329.40314Q46.58125 328.7 45.83125 328.7Q45.1125 328.7 44.675 329.3094Q44.128124 330.09064 44.128124 332.21564ZM50.05 332.21564Q50.05 330.6844 50.3625 329.7625Q50.675 328.825 51.284374 328.325Q51.909374 327.825 52.846874 327.825Q53.534374 327.825 54.05 328.10626Q54.58125 328.3875 54.925 328.91876Q55.26875 329.4344 55.45625 330.1844Q55.64375 330.9344 55.64375 332.21564Q55.64375 333.73126 55.33125 334.65314Q55.034374 335.575 54.409374 336.09064Q53.8 336.59064 52.846874 336.59064Q51.6125 336.59064 50.89375 335.7Q50.05 334.6375 50.05 332.21564ZM51.128124 332.21564Q51.128124 334.325 51.628124 335.02814Q52.128124 335.73126 52.846874 335.73126Q53.58125 335.73126 54.065624 335.02814Q54.565624 334.325 54.565624 332.21564Q54.565624 330.09064 54.065624 329.40314Q53.58125 328.7 52.83125 328.7Q52.1125 328.7 51.675 329.3094Q51.128124 330.09064 51.128124 332.21564ZM57.05 332.21564Q57.05 330.6844 57.3625 329.7625Q57.675 328.825 58.284374 328.325Q58.909374 327.825 59.846874 327.825Q60.534374 327.825 61.05 328.10626Q61.58125 328.3875 61.925 328.91876Q62.26875 329.4344 62.45625 330.1844Q62.64375 330.9344 62.64375 332.21564Q62.64375 333.73126 62.33125 334.65314Q62.034374 335.575 61.409374 336.09064Q60.8 336.59064 59.846874 336.59064Q58.6125 336.59064 57.89375 335.7Q57.05 334.6375 57.05 332.21564ZM58.128124 332.21564Q58.128124 334.325 58.628124 335.02814Q59.128124 335.73126 59.846874 335.73126Q60.58125 335.73126 61.065624 335.02814Q61.565624 334.325 61.565624 332.21564Q61.565624 330.09064 61.065624 329.40314Q60.58125 328.7 59.83125 328.7Q59.1125 328.7 58.675 329.3094Q58.128124 330.09064 58.128124 332.21564Z" fill-rule="nonzero"/><path fill="#000000" d="M23.01875 234.15L21.971874 234.15L21.971874 227.43124Q21.58125 227.79062 20.95625 228.16562Q20.346874 228.525 19.8625 228.69687L19.8625 227.68124Q20.7375 227.25937 21.39375 226.68124Q22.065624 226.0875 22.346874 225.525L23.01875 225.525L23.01875 234.15ZM26.05 229.91562Q26.05 228.38437 26.3625 227.4625Q26.675 226.525 27.284374 226.025Q27.909374 225.525 28.846874 225.525Q29.534374 225.525 30.05 225.80624Q30.58125 226.0875 30.925 226.61874Q31.26875 227.13437 31.45625 227.88437Q31.64375 228.63437 31.64375 229.91562Q31.64375 231.43124 31.33125 232.35312Q31.034374 233.275 30.409374 233.79062Q29.8 234.29062 28.846874 234.29062Q27.6125 234.29062 26.89375 233.4Q26.05 232.3375 26.05 229.91562ZM27.128124 229.91562Q27.128124 232.025 27.628124 232.72812Q28.128124 233.43124 28.846874 233.43124Q29.58125 233.43124 30.065624 232.72812Q30.565624 232.025 30.565624 229.91562Q30.565624 227.79062 30.065624 227.10312Q29.58125 226.4 28.83125 226.4Q28.1125 226.4 27.675 227.00937Q27.128124 227.79062 27.128124 229.91562ZM33.64375 234.15L33.64375 232.94687L34.846874 232.94687L34.846874 234.15L33.64375 234.15ZM36.05 229.91562Q36.05 228.38437 36.3625 227.4625Q36.675 226.525 37.284374 226.025Q37.909374 225.525 38.846874 225.525Q39.534374 225.525 40.05 225.80624Q40.58125 226.0875 40.925 226.61874Q41.26875 227.13437 41.45625 227.88437Q41.64375 228.63437 41.64375 229.91562Q41.64375 231.43124 41.33125 232.35312Q41.034374 233.275 40.409374 233.79062Q39.8 234.29062 38.846874 234.29062Q37.6125 234.29062 36.89375 233.4Q36.05 232.3375 36.05 229.91562ZM37.128124 229.91562Q37.128124 232.025 37.628124 232.72812Q38.128124 233.43124 38.846874 233.43124Q39.58125 233.43124 40.065624 232.72812Q40.565624 232.025 40.565624 229.91562Q40.565624 227.79062 40.065624 227.10312Q39.58125 226.4 38.83125 226.4Q38.1125 226.4 37.675 227.00937Q37.128124 227.79062 37.128124 229.91562ZM43.05 229.91562Q43.05 228.38437 43.3625 227.4625Q43.675 226.525 44.284374 226.025Q44.909374 225.525 45.846874 225.525Q46.534374 225.525 47.05 225.80624Q47.58125 226.0875 47.925 226.61874Q48.26875 227.13437 48.45625 227.88437Q48.64375 228.63437 48.64375 229.91562Q48.64375 231.43124 48.33125 232.35312Q48.034374 233.275 47.409374 233.79062Q46.8 234.29062 45.846874 234.29062Q44.6125 234.29062 43.89375 233.4Q43.05 232.3375 43.05 229.91562ZM44.128124 229.91562Q44.128124 232.025 44.628124 232.72812Q45.128124 233.43124 45.846874 233.43124Q46.58125 233.43124 47.065624 232.72812Q47.565624 232.025 47.565624 229.91562Q47.565624 227.79062 47.065624 227.10312Q46.58125 226.4 45.83125 226.4Q45.1125 226.4 44.675 227.00937Q44.128124 227.79062 44.128124 229.91562ZM50.05 229.91562Q50.05 228.38437 50.3625 227.4625Q50.675 226.525 51.284374 226.025Q51.909374 225.525 52.846874 225.525Q53.534374 225.525 54.05 225.80624Q54.58125 226.0875 54.925 226.61874Q55.26875 227.13437 55.45625 227.88437Q55.64375 228.63437 55.64375 229.91562Q55.64375 231.43124 55.33125 232.35312Q55.034374 233.275 54.409374 233.79062Q53.8 234.29062 52.846874 234.29062Q51.6125 234.29062 50.89375 233.4Q50.05 232.3375 50.05 229.91562ZM51.128124 229.91562Q51.128124 232.025 51.628124 232.72812Q52.128124 233.43124 52.846874 233.43124Q53.58125 233.43124 54.065624 232.72812Q54.565624 232.025 54.565624 229.91562Q54.565624 227.79062 54.065624 227.10312Q53.58125 226.4 52.83125 226.4Q52.1125 226.4 51.675 227.00937Q51.128124 227.79062 51.128124 229.91562ZM57.05 229.91562Q57.05 228.38437 57.3625 227.4625Q57.675 226.525 58.284374 226.025Q58.909374 225.525 59.846874 225.525Q60.534374 225.525 61.05 225.80624Q61.58125 226.0875 61.925 226.61874Q62.26875 227.13437 62.45625 227.88437Q62.64375 228.63437 62.64375 229.91562Q62.64375 231.43124 62.33125 232.35312Q62.034374 233.275 61.409374 233.79062Q60.8 234.29062 59.846874 234.29062Q58.6125 234.29062 57.89375 233.4Q57.05 232.3375 57.05 229.91562ZM58.128124 229.91562Q58.128124 232.025 58.628124 232.72812Q59.128124 233.43124 59.846874 233.43124Q60.58125 233.43124 61.065624 232.72812Q61.565624 232.025 61.565624 229.91562Q61.565624 227.79062 61.065624 227.10312Q60.58125 226.4 59.83125 226.4Q59.1125 226.4 58.675 227.00937Q58.128124 227.79062 58.128124 229.91562Z" fill-rule="nonzero"/><path fill="#000000" d="M24.596874 130.83438L24.596874 131.85L18.909374 131.85Q18.909374 131.475 19.034374 131.11563Q19.253124 130.5375 19.721874 129.975Q20.20625 129.4125 21.1125 128.67813Q22.51875 127.52188 23.003124 126.850006Q23.503124 126.17813 23.503124 125.58438Q23.503124 124.95938 23.05 124.537506Q22.596874 124.100006 21.878124 124.100006Q21.1125 124.100006 20.659374 124.55313Q20.20625 125.006256 20.190624 125.818756L19.1125 125.70938Q19.221874 124.49063 19.940624 123.86563Q20.675 123.225006 21.909374 123.225006Q23.14375 123.225006 23.8625 123.912506Q24.58125 124.600006 24.58125 125.61563Q24.58125 126.131256 24.3625 126.631256Q24.159374 127.11563 23.659374 127.67813Q23.175 128.225 22.05 129.17813Q21.096874 129.975 20.815624 130.27188Q20.55 130.55313 20.378124 130.83438L24.596874 130.83438ZM26.05 127.61563Q26.05 126.08438 26.3625 125.162506Q26.675 124.225006 27.284374 123.725006Q27.909374 123.225006 28.846874 123.225006Q29.534374 123.225006 30.05 123.506256Q30.58125 123.787506 30.925 124.318756Q31.26875 124.83438 31.45625 125.58438Q31.64375 126.33438 31.64375 127.61563Q31.64375 129.13126 31.33125 130.05313Q31.034374 130.975 30.409374 131.49063Q29.8 131.99063 28.846874 131.99063Q27.6125 131.99063 26.89375 131.1Q26.05 130.0375 26.05 127.61563ZM27.128124 127.61563Q27.128124 129.725 27.628124 130.42813Q28.128124 131.13126 28.846874 131.13126Q29.58125 131.13126 30.065624 130.42813Q30.565624 129.725 30.565624 127.61563Q30.565624 125.49063 30.065624 124.80313Q29.58125 124.100006 28.83125 124.100006Q28.1125 124.100006 27.675 124.70938Q27.128124 125.49063 27.128124 127.61563ZM33.64375 131.85L33.64375 130.64688L34.846874 130.64688L34.846874 131.85L33.64375 131.85ZM36.05 127.61563Q36.05 126.08438 36.3625 125.162506Q36.675 124.225006 37.284374 123.725006Q37.909374 123.225006 38.846874 123.225006Q39.534374 123.225006 40.05 123.506256Q40.58125 123.787506 40.925 124.318756Q41.26875 124.83438 41.45625 125.58438Q41.64375 126.33438 41.64375 127.61563Q41.64375 129.13126 41.33125 130.05313Q41.034374 130.975 40.409374 131.49063Q39.8 131.99063 38.846874 131.99063Q37.6125 131.99063 36.89375 131.1Q36.05 130.0375 36.05 127.61563ZM37.128124 127.61563Q37.128124 129.725 37.628124 130.42813Q38.128124 131.13126 38.846874 131.13126Q39.58125 131.13126 40.065624 130.42813Q40.565624 129.725 40.565624 127.61563Q40.565624 125.49063 40.065624 124.80313Q39.58125 124.100006 38.83125 124.100006Q38.1125 124.100006 37.675 124.70938Q37.128124 125.49063 37.128124 127.61563ZM43.05 127.61563Q43.05 126.08438 43.3625 125.162506Q43.675 124.225006 44.284374 123.725006Q44.909374 123.225006 45.846874 123.225006Q46.534374 123.225006 47.05 123.506256Q47.58125 123.787506 47.925 124.318756Q48.26875 124.83438 48.45625 125.58438Q48.64375 126.33438 48.64375 127.61563Q48.64375 129.13126 48.33125 130.05313Q48.034374 130.975 47.409374 131.49063Q46.8 131.99063 45.846874 131.99063Q44.6125 131.99063 43.89375 131.1Q43.05 130.0375 43.05 127.61563ZM44.128124 127.61563Q44.128124 129.725 44.628124 130.42813Q45.128124 131.13126 45.846874 131.13126Q46.58125 131.13126 47.065624 130.42813Q47.565624 129.725 47.565624 127.61563Q47.565624 125.49063 47.065624 124.80313Q46.58125 124.100006 45.83125 124.100006Q45.1125 124.100006 44.675 124.70938Q44.128124 125.49063 44.128124 127.61563ZM50.05 127.61563Q50.05 126.08438 50.3625 125.162506Q50.675 124.225006 51.284374 123.725006Q51.909374 123.225006 52.846874 123.225006Q53.534374 123.225006 54.05 123.506256Q54.58125 123.787506 54.925 124.318756Q55.26875 124.83438 55.45625 125.58438Q55.64375 126.33438 55.64375 127.61563Q55.64375 129.13126 55.33125 130.05313Q55.034374 130.975 54.409374 131.49063Q53.8 131.99063 52.846874 131.99063Q51.6125 131.99063 50.89375 131.1Q50.05 130.0375 50.05 127.61563ZM51.128124 127.61563Q51.128124 129.725 51.628124 130.42813Q52.128124 131.13126 52.846874 131.13126Q53.58125 131.13126 54.065624 130.42813Q54.565624 129.725 54.565624 127.61563Q54.565624 125.49063 54.065624 124.80313Q53.58125 124.100006 52.83125 124.100006Q52.1125 124.100006 51.675 124.70938Q51.128124 125.49063 51.128124 127.61563ZM57.05 127.61563Q57.05 126.08438 57.3625 125.162506Q57.675 124.225006 58.284374 123.725006Q58.909374 123.225006 59.846874 123.225006Q60.534374 123.225006 61.05 123.506256Q61.58125 123.787506 61.925 124.318756Q62.26875 124.83438 62.45625 125.58438Q62.64375 126.33438 62.64375 127.61563Q62.64375 129.13126 62.33125 130.05313Q62.034374 130.975 61.409374 131.49063Q60.8 131.99063 59.846874 131.99063Q58.6125 131.99063 57.89375 131.1Q57.05 130.0375 57.05 127.61563ZM58.128124 127.61563Q58.128124 129.725 58.628124 130.42813Q59.128124 131.13126 59.846874 131.13126Q60.58125 131.13126 61.065624 130.42813Q61.565624 129.725 61.565624 127.61563Q61.565624 125.49063 61.065624 124.80313Q60.58125 124.100006 59.83125 124.100006Q59.1125 124.100006 58.675 124.70938Q58.128124 125.49063 58.128124 127.61563Z" fill-rule="nonzero"/><path fill="#000000" d="M19.05 27.284374L20.1125 27.14375Q20.284374 28.034374 20.721874 28.440624Q21.159374 28.83125 21.784374 28.83125Q22.534374 28.83125 23.05 28.315624Q23.565624 27.8 23.565624 27.034374Q23.565624 26.315624 23.08125 25.846874Q22.6125 25.3625 21.878124 25.3625Q21.58125 25.3625 21.128124 25.4875L21.253124 24.55Q21.3625 24.565624 21.425 24.565624Q22.096874 24.565624 22.628124 24.221874Q23.175 23.8625 23.175 23.128124Q23.175 22.55 22.784374 22.175Q22.39375 21.784374 21.76875 21.784374Q21.159374 21.784374 20.7375 22.175Q20.33125 22.565624 20.221874 23.33125L19.159374 23.14375Q19.346874 22.096874 20.034374 21.51875Q20.721874 20.925 21.7375 20.925Q22.440624 20.925 23.034374 21.2375Q23.628124 21.534374 23.940624 22.05Q24.253124 22.565624 24.253124 23.159374Q24.253124 23.70625 23.95625 24.175Q23.659374 24.628124 23.08125 24.89375Q23.83125 25.065624 24.253124 25.628124Q24.675 26.175 24.675 27.01875Q24.675 28.14375 23.846874 28.925Q23.034374 29.70625 21.784374 29.70625Q20.659374 29.70625 19.909374 29.034374Q19.159374 28.346874 19.05 27.284374ZM26.05 25.315624Q26.05 23.784374 26.3625 22.8625Q26.675 21.925 27.284374 21.425Q27.909374 20.925 28.846874 20.925Q29.534374 20.925 30.05 21.20625Q30.58125 21.4875 30.925 22.01875Q31.26875 22.534374 31.45625 23.284374Q31.64375 24.034374 31.64375 25.315624Q31.64375 26.83125 31.33125 27.753124Q31.034374 28.675 30.409374 29.190624Q29.8 29.690624 28.846874 29.690624Q27.6125 29.690624 26.89375 28.8Q26.05 27.7375 26.05 25.315624ZM27.128124 25.315624Q27.128124 27.425 27.628124 28.128124Q28.128124 28.83125 28.846874 28.83125Q29.58125 28.83125 30.065624 28.128124Q30.565624 27.425 30.565624 25.315624Q30.565624 23.190624 30.065624 22.503124Q29.58125 21.8 28.83125 21.8Q28.1125 21.8 27.675 22.409374Q27.128124 23.190624 27.128124 25.315624ZM33.64375 29.55L33.64375 28.346874L34.846874 28.346874L34.846874 29.55L33.64375 29.55ZM36.05 25.315624Q36.05 23.784374 36.3625 22.8625Q36.675 21.925 37.284374 21.425Q37.909374 20.925 38.846874 20.925Q39.534374 20.925 40.05 21.20625Q40.58125 21.4875 40.925 22.01875Q41.26875 22.534374 41.45625 23.284374Q41.64375 24.034374 41.64375 25.315624Q41.64375 26.83125 41.33125 27.753124Q41.034374 28.675 40.409374 29.190624Q39.8 29.690624 38.846874 29.690624Q37.6125 29.690624 36.89375 28.8Q36.05 27.7375 36.05 25.315624ZM37.128124 25.315624Q37.128124 27.425 37.628124 28.128124Q38.128124 28.83125 38.846874 28.83125Q39.58125 28.83125 40.065624 28.128124Q40.565624 27.425 40.565624 25.315624Q40.565624 23.190624 40.065624 22.503124Q39.58125 21.8 38.83125 21.8Q38.1125 21.8 37.675 22.409374Q37.128124 23.190624 37.128124 25.315624ZM43.05 25.315624Q43.05 23.784374 43.3625 22.8625Q43.675 21.925 44.284374 21.425Q44.909374 20.925 45.846874 20.925Q46.534374 20.925 47.05 21.20625Q47.58125 21.4875 47.925 22.01875Q48.26875 22.534374 48.45625 23.284374Q48.64375 24.034374 48.64375 25.315624Q48.64375 26.83125 48.33125 27.753124Q48.034374 28.675 47.409374 29.190624Q46.8 29.690624 45.846874 29.690624Q44.6125 29.690624 43.89375 28.8Q43.05 27.7375 43.05 25.315624ZM44.128124 25.315624Q44.128124 27.425 44.628124 28.128124Q45.128124 28.83125 45.846874 28.83125Q46.58125 28.83125 47.065624 28.128124Q47.565624 27.425 47.565624 25.315624Q47.565624 23.190624 47.065624 22.503124Q46.58125 21.8 45.83125 21.8Q45.1125 21.8 44.675 22.409374Q44.128124 23.190624 44.128124 25.315624ZM50.05 25.315624Q50.05 23.784374 50.3625 22.8625Q50.675 21.925 51.284374 21.425Q51.909374 20.925 52.846874 20.925Q53.534374 20.925 54.05 21.20625Q54.58125 21.4875 54.925 22.01875Q55.26875 22.534374 55.45625 23.284374Q55.64375 24.034374 55.64375 25.315624Q55.64375 26.83125 55.33125 27.753124Q55.034374 28.675 54.409374 29.190624Q53.8 29.690624 52.846874 29.690624Q51.6125 29.690624 50.89375 28.8Q50.05 27.7375 50.05 25.315624ZM51.128124 25.315624Q51.128124 27.425 51.628124 28.128124Q52.128124 28.83125 52.846874 28.83125Q53.58125 28.83125 54.065624 28.128124Q54.565624 27.425 54.565624 25.315624Q54.565624 23.190624 54.065624 22.503124Q53.58125 21.8 52.83125 21.8Q52.1125 21.8 51.675 22.409374Q51.128124 23.190624 51.128124 25.315624ZM57.05 25.315624Q57.05 23.784374 57.3625 22.8625Q57.675 21.925 58.284374 21.425Q58.909374 20.925 59.846874 20.925Q60.534374 20.925 61.05 21.20625Q61.58125 21.4875 61.925 22.01875Q62.26875 22.534374 62.45625 23.284374Q62.64375 24.034374 62.64375 25.315624Q62.64375 26.83125 62.33125 27.753124Q62.034374 28.675 61.409374 29.190624Q60.8 29.690624 59.846874 29.690624Q58.6125 29.690624 57.89375 28.8Q57.05 27.7375 57.05 25.315624ZM58.128124 25.315624Q58.128124 27.425 58.628124 28.128124Q59.128124 28.83125 59.846874 28.83125Q60.58125 28.83125 61.065624 28.128124Q61.565624 27.425 61.565624 25.315624Q61.565624 23.190624 61.065624 22.503124Q60.58125 21.8 59.83125 21.8Q59.1125 21.8 58.675 22.409374Q58.128124 23.190624 58.128124 25.315624Z" fill-rule="nonzero"/><path fill="#000000" d="M80.76945 347.2L81.87882 347.10626Q82.00382 347.91876 82.44132 348.325Q82.89445 348.73126 83.53507 348.73126Q84.28507 348.73126 84.81632 348.15314Q85.34757 347.575 85.34757 346.6375Q85.34757 345.73126 84.83195 345.21564Q84.33195 344.6844 83.50382 344.6844Q83.00382 344.6844 82.58195 344.91876Q82.1757 345.15314 81.94132 345.5125L80.95695 345.3875L81.78507 340.98126L86.06632 340.98126L86.06632 341.98126L82.62882 341.98126L82.1757 344.29376Q82.94132 343.7469 83.78507 343.7469Q84.91007 343.7469 85.6757 344.52814Q86.45695 345.3094 86.45695 346.54376Q86.45695 347.7 85.78507 348.5594Q84.95695 349.59064 83.53507 349.59064Q82.3632 349.59064 81.6132 348.9344Q80.87882 348.27814 80.76945 347.2Z" fill-rule="nonzero"/><path fill="#000000" d="M109.677086 349.45L108.63021 349.45L108.63021 342.73126Q108.239586 343.09064 107.614586 343.46564Q107.00521 343.825 106.520836 343.9969L106.520836 342.98126Q107.395836 342.5594 108.052086 341.98126Q108.72396 341.3875 109.00521 340.825L109.677086 340.825L109.677086 349.45ZM112.708336 345.21564Q112.708336 343.6844 113.020836 342.7625Q113.333336 341.825 113.94271 341.325Q114.56771 340.825 115.50521 340.825Q116.19271 340.825 116.708336 341.10626Q117.239586 341.3875 117.583336 341.91876Q117.927086 342.4344 118.114586 343.1844Q118.302086 343.9344 118.302086 345.21564Q118.302086 346.73126 117.989586 347.65314Q117.69271 348.575 117.06771 349.09064Q116.458336 349.59064 115.50521 349.59064Q114.270836 349.59064 113.552086 348.7Q112.708336 347.6375 112.708336 345.21564ZM113.78646 345.21564Q113.78646 347.325 114.28646 348.02814Q114.78646 348.73126 115.50521 348.73126Q116.239586 348.73126 116.72396 348.02814Q117.22396 347.325 117.22396 345.21564Q117.22396 343.09064 116.72396 342.40314Q116.239586 341.7 115.489586 341.7Q114.770836 341.7 114.333336 342.3094Q113.78646 343.09064 113.78646 345.21564Z" fill-rule="nonzero"/><path fill="#000000" d="M139.69409 348.4344L139.69409 349.45L134.00659 349.45Q134.00659 349.075 134.13159 348.71564Q134.35034 348.1375 134.81909 347.575Q135.30347 347.0125 136.20972 346.27814Q137.61597 345.1219 138.10034 344.45Q138.60034 343.77814 138.60034 343.1844Q138.60034 342.5594 138.14722 342.1375Q137.69409 341.7 136.97534 341.7Q136.20972 341.7 135.75659 342.15314Q135.30347 342.60626 135.28784 343.41876L134.20972 343.3094Q134.31909 342.09064 135.03784 341.46564Q135.77222 340.825 137.00659 340.825Q138.24097 340.825 138.95972 341.5125Q139.67847 342.2 139.67847 343.21564Q139.67847 343.73126 139.45972 344.23126Q139.25659 344.71564 138.75659 345.27814Q138.27222 345.825 137.14722 346.77814Q136.19409 347.575 135.91284 347.8719Q135.64722 348.15314 135.47534 348.4344L139.69409 348.4344ZM141.14722 345.21564Q141.14722 343.6844 141.45972 342.7625Q141.77222 341.825 142.38159 341.325Q143.00659 340.825 143.94409 340.825Q144.63159 340.825 145.14722 341.10626Q145.67847 341.3875 146.02222 341.91876Q146.36597 342.4344 146.55347 343.1844Q146.74097 343.9344 146.74097 345.21564Q146.74097 346.73126 146.42847 347.65314Q146.13159 348.575 145.50659 349.09064Q144.89722 349.59064 143.94409 349.59064Q142.70972 349.59064 141.99097 348.7Q141.14722 347.6375 141.14722 345.21564ZM142.22534 345.21564Q142.22534 347.325 142.72534 348.02814Q143.22534 348.73126 143.94409 348.73126Q144.67847 348.73126 145.16284 348.02814Q145.66284 347.325 145.66284 345.21564Q145.66284 343.09064 145.16284 342.40314Q144.67847 341.7 143.92847 341.7Q143.20972 341.7 142.77222 342.3094Q142.22534 343.09064 142.22534 345.21564Z" fill-rule="nonzero"/><path fill="#000000" d="M162.5861 347.1844L163.6486 347.04376Q163.82048 347.9344 164.25798 348.34064Q164.69548 348.73126 165.32048 348.73126Q166.07048 348.73126 166.5861 348.21564Q167.10173 347.7 167.10173 346.9344Q167.10173 346.21564 166.61736 345.7469Q166.1486 345.2625 165.41423 345.2625Q165.11736 345.2625 164.66423 345.3875L164.78923 344.45Q164.8986 344.46564 164.9611 344.46564Q165.63298 344.46564 166.16423 344.1219Q166.7111 343.7625 166.7111 343.02814Q166.7111 342.45 166.32048 342.075Q165.92986 341.6844 165.30486 341.6844Q164.69548 341.6844 164.2736 342.075Q163.86736 342.46564 163.75798 343.23126L162.69548 343.04376Q162.88298 341.9969 163.57048 341.41876Q164.25798 340.825 165.2736 340.825Q165.97673 340.825 166.57048 341.1375Q167.16423 341.4344 167.47673 341.95Q167.78923 342.46564 167.78923 343.0594Q167.78923 343.60626 167.49236 344.075Q167.19548 344.52814 166.61736 344.79376Q167.36736 344.96564 167.78923 345.52814Q168.2111 346.075 168.2111 346.91876Q168.2111 348.04376 167.38298 348.825Q166.57048 349.60626 165.32048 349.60626Q164.19548 349.60626 163.44548 348.9344Q162.69548 348.2469 162.5861 347.1844ZM169.5861 345.21564Q169.5861 343.6844 169.8986 342.7625Q170.2111 341.825 170.82048 341.325Q171.44548 340.825 172.38298 340.825Q173.07048 340.825 173.5861 341.10626Q174.11736 341.3875 174.4611 341.91876Q174.80486 342.4344 174.99236 343.1844Q175.17986 343.9344 175.17986 345.21564Q175.17986 346.73126 174.86736 347.65314Q174.57048 348.575 173.94548 349.09064Q173.3361 349.59064 172.38298 349.59064Q171.1486 349.59064 170.42986 348.7Q169.5861 347.6375 169.5861 345.21564ZM170.66423 345.21564Q170.66423 347.325 171.16423 348.02814Q171.66423 348.73126 172.38298 348.73126Q173.11736 348.73126 173.60173 348.02814Q174.10173 347.325 174.10173 345.21564Q174.10173 343.09064 173.60173 342.40314Q173.11736 341.7 172.36736 341.7Q171.6486 341.7 171.2111 342.3094Q170.66423 343.09064 170.66423 345.21564Z" fill-rule="nonzero"/><path fill="#000000" d="M191.025 347.1844L192.0875 347.04376Q192.25937 347.9344 192.69687 348.34064Q193.13437 348.73126 193.75937 348.73126Q194.50937 348.73126 195.025 348.21564Q195.54062 347.7 195.54062 346.9344Q195.54062 346.21564 195.05624 345.7469Q194.5875 345.2625 193.85312 345.2625Q193.55624 345.2625 193.10312 345.3875L193.22812 344.45Q193.3375 344.46564 193.4 344.46564Q194.07187 344.46564 194.60312 344.1219Q195.15 343.7625 195.15 343.02814Q195.15 342.45 194.75937 342.075Q194.36874 341.6844 193.74374 341.6844Q193.13437 341.6844 192.7125 342.075Q192.30624 342.46564 192.19687 343.23126L191.13437 343.04376Q191.32187 341.9969 192.00937 341.41876Q192.69687 340.825 193.7125 340.825Q194.41562 340.825 195.00937 341.1375Q195.60312 341.4344 195.91562 341.95Q196.22812 342.46564 196.22812 343.0594Q196.22812 343.60626 195.93124 344.075Q195.63437 344.52814 195.05624 344.79376Q195.80624 344.96564 196.22812 345.52814Q196.65 346.075 196.65 346.91876Q196.65 348.04376 195.82187 348.825Q195.00937 349.60626 193.75937 349.60626Q192.63437 349.60626 191.88437 348.9344Q191.13437 348.2469 191.025 347.1844ZM198.025 347.1844L199.0875 347.04376Q199.25937 347.9344 199.69687 348.34064Q200.13437 348.73126 200.75937 348.73126Q201.50937 348.73126 202.025 348.21564Q202.54062 347.7 202.54062 346.9344Q202.54062 346.21564 202.05624 345.7469Q201.5875 345.2625 200.85312 345.2625Q200.55624 345.2625 200.10312 345.3875L200.22812 344.45Q200.3375 344.46564 200.4 344.46564Q201.07187 344.46564 201.60312 344.1219Q202.15 343.7625 202.15 343.02814Q202.15 342.45 201.75937 342.075Q201.36874 341.6844 200.74374 341.6844Q200.13437 341.6844 199.7125 342.075Q199.30624 342.46564 199.19687 343.23126L198.13437 343.04376Q198.32187 341.9969 199.00937 341.41876Q199.69687 340.825 200.7125 340.825Q201.41562 340.825 202.00937 341.1375Q202.60312 341.4344 202.91562 341.95Q203.22812 342.46564 203.22812 343.0594Q203.22812 343.60626 202.93124 344.075Q202.63437 344.52814 202.05624 344.79376Q202.80624 344.96564 203.22812 345.52814Q203.65 346.075 203.65 346.91876Q203.65 348.04376 202.82187 348.825Q202.00937 349.60626 200.75937 349.60626Q199.63437 349.60626 198.88437 348.9344Q198.13437 348.2469 198.025 347.1844Z" fill-rule="nonzero"/><path fill="#000000" d="M222.83888 349.45L222.83888 347.3875L219.12013 347.3875L219.12013 346.41876L223.042 340.85626L223.90138 340.85626L223.90138 346.41876L225.05763 346.41876L225.05763 347.3875L223.90138 347.3875L223.90138 349.45L222.83888 349.45ZM222.83888 346.41876L222.83888 342.5594L220.15138 346.41876L222.83888 346.41876ZM226.46388 345.21564Q226.46388 343.6844 226.77638 342.7625Q227.08888 341.825 227.69826 341.325Q228.32326 340.825 229.26076 340.825Q229.94826 340.825 230.46388 341.10626Q230.99513 341.3875 231.33888 341.91876Q231.68263 342.4344 231.87013 343.1844Q232.05763 343.9344 232.05763 345.21564Q232.05763 346.73126 231.74513 347.65314Q231.44826 348.575 230.82326 349.09064Q230.21388 349.59064 229.26076 349.59064Q228.02638 349.59064 227.30763 348.7Q226.46388 347.6375 226.46388 345.21564ZM227.542 345.21564Q227.542 347.325 228.042 348.02814Q228.542 348.73126 229.26076 348.73126Q229.99513 348.73126 230.4795 348.02814Q230.9795 347.325 230.9795 345.21564Q230.9795 343.09064 230.4795 342.40314Q229.99513 341.7 229.24513 341.7Q228.52638 341.7 228.08888 342.3094Q227.542 343.09064 227.542 345.21564Z" fill-rule="nonzero"/><path fill="#000000" d="M247.90277 347.2L249.01215 347.10626Q249.13715 347.91876 249.57465 348.325Q250.02777 348.73126 250.6684 348.73126Q251.4184 348.73126 251.94965 348.15314Q252.4809 347.575 252.4809 346.6375Q252.4809 345.73126 251.96527 345.21564Q251.46527 344.6844 250.63715 344.6844Q250.13715 344.6844 249.71527 344.91876Q249.30902 345.15314 249.07465 345.5125L248.09027 345.3875L248.9184 340.98126L253.19965 340.98126L253.19965 341.98126L249.76215 341.98126L249.30902 344.29376Q250.07465 343.7469 250.9184 343.7469Q252.0434 343.7469 252.80902 344.52814Q253.59027 345.3094 253.59027 346.54376Q253.59027 347.7 252.9184 348.5594Q252.09027 349.59064 250.6684 349.59064Q249.49652 349.59064 248.74652 348.9344Q248.01215 348.27814 247.90277 347.2ZM254.90277 345.21564Q254.90277 343.6844 255.21527 342.7625Q255.52777 341.825 256.13715 341.325Q256.76215 340.825 257.69965 340.825Q258.38715 340.825 258.90277 341.10626Q259.43402 341.3875 259.77777 341.91876Q260.12152 342.4344 260.30902 343.1844Q260.49652 343.9344 260.49652 345.21564Q260.49652 346.73126 260.18402 347.65314Q259.88715 348.575 259.26215 349.09064Q258.65277 349.59064 257.69965 349.59064Q256.46527 349.59064 255.74652 348.7Q254.90277 347.6375 254.90277 345.21564ZM255.9809 345.21564Q255.9809 347.325 256.4809 348.02814Q256.9809 348.73126 257.69965 348.73126Q258.43402 348.73126 258.9184 348.02814Q259.4184 347.325 259.4184 345.21564Q259.4184 343.09064 258.9184 342.40314Q258.43402 341.7 257.68402 341.7Q256.96527 341.7 256.52777 342.3094Q255.9809 343.09064 255.9809 345.21564Z" fill-rule="nonzero"/><path fill="#000000" d="M281.81042 342.96564L280.76355 343.04376Q280.62292 342.41876 280.37292 342.1375Q279.93542 341.6844 279.31042 341.6844Q278.81042 341.6844 278.4198 341.96564Q277.93542 342.34064 277.63855 343.04376Q277.3573 343.73126 277.34167 345.0125Q277.71667 344.4344 278.26355 344.15314Q278.82605 343.8719 279.43542 343.8719Q280.4823 343.8719 281.21667 344.65314Q281.96667 345.4344 281.96667 346.65314Q281.96667 347.46564 281.6073 348.16876Q281.26355 348.85626 280.65417 349.23126Q280.0448 349.59064 279.27917 349.59064Q277.95105 349.59064 277.12292 348.6219Q276.2948 347.65314 276.2948 345.4344Q276.2948 342.9344 277.21667 341.8094Q278.01355 340.825 279.37292 340.825Q280.38855 340.825 281.02917 341.40314Q281.68542 341.96564 281.81042 342.96564ZM277.51355 346.66876Q277.51355 347.21564 277.7323 347.71564Q277.96667 348.2 278.37292 348.46564Q278.7948 348.73126 279.26355 348.73126Q279.9198 348.73126 280.40417 348.2Q280.88855 347.65314 280.88855 346.73126Q280.88855 345.84064 280.40417 345.325Q279.93542 344.8094 279.21667 344.8094Q278.49792 344.8094 277.99792 345.325Q277.51355 345.84064 277.51355 346.66876ZM283.34167 345.21564Q283.34167 343.6844 283.65417 342.7625Q283.96667 341.825 284.57605 341.325Q285.20105 340.825 286.13855 340.825Q286.82605 340.825 287.34167 341.10626Q287.87292 341.3875 288.21667 341.91876Q288.56042 342.4344 288.74792 343.1844Q288.93542 343.9344 288.93542 345.21564Q288.93542 346.73126 288.62292 347.65314Q288.32605 348.575 287.70105 349.09064Q287.09167 349.59064 286.13855 349.59064Q284.90417 349.59064 284.18542 348.7Q283.34167 347.6375 283.34167 345.21564ZM284.4198 345.21564Q284.4198 347.325 284.9198 348.02814Q285.4198 348.73126 286.13855 348.73126Q286.87292 348.73126 287.3573 348.02814Q287.8573 347.325 287.8573 345.21564Q287.8573 343.09064 287.3573 342.40314Q286.87292 341.7 286.12292 341.7Q285.40417 341.7 284.96667 342.3094Q284.4198 343.09064 284.4198 345.21564Z" fill-rule="nonzero"/><path fill="#000000" d="M310.2493 342.96564L309.20242 343.04376Q309.0618 342.41876 308.8118 342.1375Q308.3743 341.6844 307.7493 341.6844Q307.2493 341.6844 306.85867 341.96564Q306.3743 342.34064 306.07742 343.04376Q305.79617 343.73126 305.78055 345.0125Q306.15555 344.4344 306.70242 344.15314Q307.26492 343.8719 307.8743 343.8719Q308.92117 343.8719 309.65555 344.65314Q310.40555 345.4344 310.40555 346.65314Q310.40555 347.46564 310.04617 348.16876Q309.70242 348.85626 309.09305 349.23126Q308.48367 349.59064 307.71805 349.59064Q306.38992 349.59064 305.5618 348.6219Q304.73367 347.65314 304.73367 345.4344Q304.73367 342.9344 305.65555 341.8094Q306.45242 340.825 307.8118 340.825Q308.82742 340.825 309.46805 341.40314Q310.1243 341.96564 310.2493 342.96564ZM305.95242 346.66876Q305.95242 347.21564 306.17117 347.71564Q306.40555 348.2 306.8118 348.46564Q307.23367 348.73126 307.70242 348.73126Q308.35867 348.73126 308.84305 348.2Q309.32742 347.65314 309.32742 346.73126Q309.32742 345.84064 308.84305 345.325Q308.3743 344.8094 307.65555 344.8094Q306.9368 344.8094 306.4368 345.325Q305.95242 345.84064 305.95242 346.66876ZM311.84305 341.98126L311.84305 340.96564L317.40555 340.96564L317.40555 341.79376Q316.59305 342.66876 315.78055 344.1219Q314.98367 345.5594 314.54617 347.09064Q314.21805 348.16876 314.13992 349.45L313.04617 349.45Q313.0618 348.4344 313.4368 346.9969Q313.82742 345.5594 314.53055 344.23126Q315.2493 342.90314 316.0618 341.98126L311.84305 341.98126Z" fill-rule="nonzero"/><path fill="#000000" d="M333.28195 341.98126L333.28195 340.96564L338.84445 340.96564L338.84445 341.79376Q338.03195 342.66876 337.21945 344.1219Q336.42258 345.5594 335.98508 347.09064Q335.65695 348.16876 335.57883 349.45L334.48508 349.45Q334.5007 348.4344 334.8757 346.9969Q335.26633 345.5594 335.96945 344.23126Q336.6882 342.90314 337.5007 341.98126L333.28195 341.98126ZM340.21945 345.21564Q340.21945 343.6844 340.53195 342.7625Q340.84445 341.825 341.45383 341.325Q342.07883 340.825 343.01633 340.825Q343.70383 340.825 344.21945 341.10626Q344.7507 341.3875 345.09445 341.91876Q345.4382 342.4344 345.6257 343.1844Q345.8132 343.9344 345.8132 345.21564Q345.8132 346.73126 345.5007 347.65314Q345.20383 348.575 344.57883 349.09064Q343.96945 349.59064 343.01633 349.59064Q341.78195 349.59064 341.0632 348.7Q340.21945 347.6375 340.21945 345.21564ZM341.29758 345.21564Q341.29758 347.325 341.79758 348.02814Q342.29758 348.73126 343.01633 348.73126Q343.7507 348.73126 344.23508 348.02814Q344.73508 347.325 344.73508 345.21564Q344.73508 343.09064 344.23508 342.40314Q343.7507 341.7 343.0007 341.7Q342.28195 341.7 341.84445 342.3094Q341.29758 343.09064 341.29758 345.21564Z" fill-rule="nonzero"/><path fill="#000000" d="M363.28333 344.79376Q362.62708 344.54376 362.29895 344.10626Q361.98645 343.65314 361.98645 343.04376Q361.98645 342.10626 362.65833 341.46564Q363.34583 340.825 364.4552 340.825Q365.5802 340.825 366.2677 341.48126Q366.9552 342.1375 366.9552 343.075Q366.9552 343.66876 366.6427 344.10626Q366.3302 344.54376 365.68958 344.79376Q366.48645 345.04376 366.8927 345.6219Q367.29895 346.2 367.29895 346.9969Q367.29895 348.09064 366.5177 348.84064Q365.75208 349.59064 364.47083 349.59064Q363.2052 349.59064 362.42395 348.84064Q361.6427 348.09064 361.6427 346.96564Q361.6427 346.1219 362.06458 345.5594Q362.50208 344.9969 363.28333 344.79376ZM363.06458 342.9969Q363.06458 343.60626 363.4552 343.9969Q363.86145 344.3875 364.48645 344.3875Q365.09583 344.3875 365.48645 344.0125Q365.87708 343.6219 365.87708 343.0594Q365.87708 342.48126 365.47083 342.09064Q365.06458 341.6844 364.47083 341.6844Q363.86145 341.6844 363.4552 342.075Q363.06458 342.46564 363.06458 342.9969ZM362.73645 346.96564Q362.73645 347.41876 362.93958 347.84064Q363.15833 348.2625 363.5802 348.4969Q364.00208 348.73126 364.48645 348.73126Q365.23645 348.73126 365.72083 348.2469Q366.22083 347.7625 366.22083 347.0125Q366.22083 346.2469 365.72083 345.7469Q365.22083 345.2469 364.4552 345.2469Q363.7052 345.2469 363.22083 345.7469Q362.73645 346.23126 362.73645 346.96564ZM368.65833 345.21564Q368.65833 343.6844 368.97083 342.7625Q369.28333 341.825 369.8927 341.325Q370.5177 340.825 371.4552 340.825Q372.1427 340.825 372.65833 341.10626Q373.18958 341.3875 373.53333 341.91876Q373.87708 342.4344 374.06458 343.1844Q374.25208 343.9344 374.25208 345.21564Q374.25208 346.73126 373.93958 347.65314Q373.6427 348.575 373.0177 349.09064Q372.40833 349.59064 371.4552 349.59064Q370.22083 349.59064 369.50208 348.7Q368.65833 347.6375 368.65833 345.21564ZM369.73645 345.21564Q369.73645 347.325 370.23645 348.02814Q370.73645 348.73126 371.4552 348.73126Q372.18958 348.73126 372.67395 348.02814Q373.17395 347.325 373.17395 345.21564Q373.17395 343.09064 372.67395 342.40314Q372.18958 341.7 371.43958 341.7Q370.72083 341.7 370.28333 342.3094Q369.73645 343.09064 369.73645 345.21564Z" fill-rule="nonzero"/><path fill="#000000" d="M390.25348 347.46564L391.2691 347.3719Q391.3941 348.09064 391.75348 348.41876Q392.12848 348.73126 392.69098 348.73126Q393.17535 348.73126 393.53473 348.5125Q393.90973 348.27814 394.1441 347.91876Q394.37848 347.54376 394.53473 346.91876Q394.69098 346.27814 394.69098 345.6219Q394.69098 345.54376 394.69098 345.40314Q394.37848 345.90314 393.8316 346.23126Q393.28473 346.54376 392.6441 346.54376Q391.56598 346.54376 390.8316 345.77814Q390.09723 344.9969 390.09723 343.73126Q390.09723 342.41876 390.86285 341.6219Q391.6441 340.825 392.80035 340.825Q393.62848 340.825 394.31598 341.27814Q395.0191 341.73126 395.37848 342.575Q395.73785 343.40314 395.73785 344.98126Q395.73785 346.6219 395.37848 347.60626Q395.03473 348.575 394.31598 349.09064Q393.61285 349.59064 392.67535 349.59064Q391.65973 349.59064 391.0191 349.04376Q390.37848 348.48126 390.25348 347.46564ZM394.56598 343.66876Q394.56598 342.7625 394.0816 342.23126Q393.61285 341.7 392.92535 341.7Q392.22223 341.7 391.69098 342.27814Q391.17535 342.84064 391.17535 343.7625Q391.17535 344.575 391.67535 345.09064Q392.17535 345.60626 392.8941 345.60626Q393.62848 345.60626 394.09723 345.09064Q394.56598 344.575 394.56598 343.66876ZM397.09723 345.21564Q397.09723 343.6844 397.40973 342.7625Q397.72223 341.825 398.3316 341.325Q398.9566 340.825 399.8941 340.825Q400.5816 340.825 401.09723 341.10626Q401.62848 341.3875 401.97223 341.91876Q402.31598 342.4344 402.50348 343.1844Q402.69098 343.9344 402.69098 345.21564Q402.69098 346.73126 402.37848 347.65314Q402.0816 348.575 401.4566 349.09064Q400.84723 349.59064 399.8941 349.59064Q398.65973 349.59064 397.94098 348.7Q397.09723 347.6375 397.09723 345.21564ZM398.17535 345.21564Q398.17535 347.325 398.67535 348.02814Q399.17535 348.73126 399.8941 348.73126Q400.62848 348.73126 401.11285 348.02814Q401.61285 347.325 401.61285 345.21564Q401.61285 343.09064 401.11285 342.40314Q400.62848 341.7 399.87848 341.7Q399.15973 341.7 398.72223 342.3094Q398.17535 343.09064 398.17535 345.21564Z" fill-rule="nonzero"/><path fill="#000000" d="M419.00485 349.45L417.95798 349.45L417.95798 342.73126Q417.56735 343.09064 416.94235 343.46564Q416.33298 343.825 415.8486 343.9969L415.8486 342.98126Q416.7236 342.5594 417.37985 341.98126Q418.05173 341.3875 418.33298 340.825L419.00485 340.825L419.00485 349.45ZM422.0361 345.21564Q422.0361 343.6844 422.3486 342.7625Q422.6611 341.825 423.27048 341.325Q423.89548 340.825 424.83298 340.825Q425.52048 340.825 426.0361 341.10626Q426.56735 341.3875 426.9111 341.91876Q427.25485 342.4344 427.44235 343.1844Q427.62985 343.9344 427.62985 345.21564Q427.62985 346.73126 427.31735 347.65314Q427.02048 348.575 426.39548 349.09064Q425.7861 349.59064 424.83298 349.59064Q423.5986 349.59064 422.87985 348.7Q422.0361 347.6375 422.0361 345.21564ZM423.11423 345.21564Q423.11423 347.325 423.61423 348.02814Q424.11423 348.73126 424.83298 348.73126Q425.56735 348.73126 426.05173 348.02814Q426.55173 347.325 426.55173 345.21564Q426.55173 343.09064 426.05173 342.40314Q425.56735 341.7 424.81735 341.7Q424.0986 341.7 423.6611 342.3094Q423.11423 343.09064 423.11423 345.21564ZM429.0361 345.21564Q429.0361 343.6844 429.3486 342.7625Q429.6611 341.825 430.27048 341.325Q430.89548 340.825 431.83298 340.825Q432.52048 340.825 433.0361 341.10626Q433.56735 341.3875 433.9111 341.91876Q434.25485 342.4344 434.44235 343.1844Q434.62985 343.9344 434.62985 345.21564Q434.62985 346.73126 434.31735 347.65314Q434.02048 348.575 433.39548 349.09064Q432.7861 349.59064 431.83298 349.59064Q430.5986 349.59064 429.87985 348.7Q429.0361 347.6375 429.0361 345.21564ZM430.11423 345.21564Q430.11423 347.325 430.61423 348.02814Q431.11423 348.73126 431.83298 348.73126Q432.56735 348.73126 433.05173 348.02814Q433.55173 347.325 433.55173 345.21564Q433.55173 343.09064 433.05173 342.40314Q432.56735 341.7 431.81735 341.7Q431.0986 341.7 430.6611 342.3094Q430.11423 343.09064 430.11423 345.21564Z" fill-rule="nonzero"/><path fill="#000000" d="M447.44376 349.45L446.39688 349.45L446.39688 342.73126Q446.00626 343.09064 445.38126 343.46564Q444.77188 343.825 444.2875 343.9969L444.2875 342.98126Q445.1625 342.5594 445.81876 341.98126Q446.49063 341.3875 446.77188 340.825L447.44376 340.825L447.44376 349.45ZM456.02188 348.4344L456.02188 349.45L450.33438 349.45Q450.33438 349.075 450.45938 348.71564Q450.67813 348.1375 451.14688 347.575Q451.63126 347.0125 452.5375 346.27814Q453.94376 345.1219 454.42813 344.45Q454.92813 343.77814 454.92813 343.1844Q454.92813 342.5594 454.475 342.1375Q454.02188 341.7 453.30313 341.7Q452.5375 341.7 452.08438 342.15314Q451.63126 342.60626 451.61563 343.41876L450.5375 343.3094Q450.64688 342.09064 451.36563 341.46564Q452.1 340.825 453.33438 340.825Q454.56876 340.825 455.2875 341.5125Q456.00626 342.2 456.00626 343.21564Q456.00626 343.73126 455.7875 344.23126Q455.58438 344.71564 455.08438 345.27814Q454.6 345.825 453.475 346.77814Q452.52188 347.575 452.24063 347.8719Q451.975 348.15314 451.80313 348.4344L456.02188 348.4344ZM457.475 345.21564Q457.475 343.6844 457.7875 342.7625Q458.1 341.825 458.70938 341.325Q459.33438 340.825 460.27188 340.825Q460.95938 340.825 461.475 341.10626Q462.00626 341.3875 462.35 341.91876Q462.69376 342.4344 462.88126 343.1844Q463.06876 343.9344 463.06876 345.21564Q463.06876 346.73126 462.75626 347.65314Q462.45938 348.575 461.83438 349.09064Q461.225 349.59064 460.27188 349.59064Q459.0375 349.59064 458.31876 348.7Q457.475 347.6375 457.475 345.21564ZM458.55313 345.21564Q458.55313 347.325 459.05313 348.02814Q459.55313 348.73126 460.27188 348.73126Q461.00626 348.73126 461.49063 348.02814Q461.99063 347.325 461.99063 345.21564Q461.99063 343.09064 461.49063 342.40314Q461.00626 341.7 460.25626 341.7Q459.5375 341.7 459.1 342.3094Q458.55313 343.09064 458.55313 345.21564Z" fill-rule="nonzero"/><path fill="#000000" d="M475.88263 349.45L474.83575 349.45L474.83575 342.73126Q474.44513 343.09064 473.82013 343.46564Q473.21075 343.825 472.72638 343.9969L472.72638 342.98126Q473.60138 342.5594 474.25763 341.98126Q474.9295 341.3875 475.21075 340.825L475.88263 340.825L475.88263 349.45ZM478.91388 347.1844L479.97638 347.04376Q480.14825 347.9344 480.58575 348.34064Q481.02325 348.73126 481.64825 348.73126Q482.39825 348.73126 482.91388 348.21564Q483.4295 347.7 483.4295 346.9344Q483.4295 346.21564 482.94513 345.7469Q482.47638 345.2625 481.742 345.2625Q481.44513 345.2625 480.992 345.3875L481.117 344.45Q481.22638 344.46564 481.28888 344.46564Q481.96075 344.46564 482.492 344.1219Q483.03888 343.7625 483.03888 343.02814Q483.03888 342.45 482.64825 342.075Q482.25763 341.6844 481.63263 341.6844Q481.02325 341.6844 480.60138 342.075Q480.19513 342.46564 480.08575 343.23126L479.02325 343.04376Q479.21075 341.9969 479.89825 341.41876Q480.58575 340.825 481.60138 340.825Q482.3045 340.825 482.89825 341.1375Q483.492 341.4344 483.8045 341.95Q484.117 342.46564 484.117 343.0594Q484.117 343.60626 483.82013 344.075Q483.52325 344.52814 482.94513 344.79376Q483.69513 344.96564 484.117 345.52814Q484.53888 346.075 484.53888 346.91876Q484.53888 348.04376 483.71075 348.825Q482.89825 349.60626 481.64825 349.60626Q480.52325 349.60626 479.77325 348.9344Q479.02325 348.2469 478.91388 347.1844ZM485.91388 347.1844L486.97638 347.04376Q487.14825 347.9344 487.58575 348.34064Q488.02325 348.73126 488.64825 348.73126Q489.39825 348.73126 489.91388 348.21564Q490.4295 347.7 490.4295 346.9344Q490.4295 346.21564 489.94513 345.7469Q489.47638 345.2625 488.742 345.2625Q488.44513 345.2625 487.992 345.3875L488.117 344.45Q488.22638 344.46564 488.28888 344.46564Q488.96075 344.46564 489.492 344.1219Q490.03888 343.7625 490.03888 343.02814Q490.03888 342.45 489.64825 342.075Q489.25763 341.6844 488.63263 341.6844Q488.02325 341.6844 487.60138 342.075Q487.19513 342.46564 487.08575 343.23126L486.02325 343.04376Q486.21075 341.9969 486.89825 341.41876Q487.58575 340.825 488.60138 340.825Q489.3045 340.825 489.89825 341.1375Q490.492 341.4344 490.8045 341.95Q491.117 342.46564 491.117 343.0594Q491.117 343.60626 490.82013 344.075Q490.52325 344.52814 489.94513 344.79376Q490.69513 344.96564 491.117 345.52814Q491.53888 346.075 491.53888 346.91876Q491.53888 348.04376 490.71075 348.825Q489.89825 349.60626 488.64825 349.60626Q487.52325 349.60626 486.77325 348.9344Q486.02325 348.2469 485.91388 347.1844Z" fill-rule="nonzero"/><path fill="#000000" d="M504.32153 349.45L503.27466 349.45L503.27466 342.73126Q502.88403 343.09064 502.25903 343.46564Q501.64966 343.825 501.16528 343.9969L501.16528 342.98126Q502.04028 342.5594 502.69653 341.98126Q503.3684 341.3875 503.64966 340.825L504.32153 340.825L504.32153 349.45ZM510.72778 349.45L510.72778 347.3875L507.00903 347.3875L507.00903 346.41876L510.9309 340.85626L511.79028 340.85626L511.79028 346.41876L512.94653 346.41876L512.94653 347.3875L511.79028 347.3875L511.79028 349.45L510.72778 349.45ZM510.72778 346.41876L510.72778 342.5594L508.04028 346.41876L510.72778 346.41876ZM514.3528 345.21564Q514.3528 343.6844 514.6653 342.7625Q514.9778 341.825 515.58716 341.325Q516.21216 340.825 517.14966 340.825Q517.83716 340.825 518.3528 341.10626Q518.88403 341.3875 519.2278 341.91876Q519.57153 342.4344 519.75903 343.1844Q519.94653 343.9344 519.94653 345.21564Q519.94653 346.73126 519.63403 347.65314Q519.33716 348.575 518.71216 349.09064Q518.1028 349.59064 517.14966 349.59064Q515.9153 349.59064 515.19653 348.7Q514.3528 347.6375 514.3528 345.21564ZM515.4309 345.21564Q515.4309 347.325 515.9309 348.02814Q516.4309 348.73126 517.14966 348.73126Q517.88403 348.73126 518.3684 348.02814Q518.8684 347.325 518.8684 345.21564Q518.8684 343.09064 518.3684 342.40314Q517.88403 341.7 517.13403 341.7Q516.4153 341.7 515.9778 342.3094Q515.4309 343.09064 515.4309 345.21564Z" fill-rule="nonzero"/><path fill="#000000" d="M532.76044 349.45L531.71356 349.45L531.71356 342.73126Q531.32294 343.09064 530.69794 343.46564Q530.08856 343.825 529.6042 343.9969L529.6042 342.98126Q530.4792 342.5594 531.13544 341.98126Q531.8073 341.3875 532.08856 340.825L532.76044 340.825L532.76044 349.45ZM541.26044 342.96564L540.21356 343.04376Q540.07294 342.41876 539.82294 342.1375Q539.38544 341.6844 538.76044 341.6844Q538.26044 341.6844 537.8698 341.96564Q537.38544 342.34064 537.08856 343.04376Q536.8073 343.73126 536.7917 345.0125Q537.1667 344.4344 537.71356 344.15314Q538.27606 343.8719 538.88544 343.8719Q539.9323 343.8719 540.6667 344.65314Q541.4167 345.4344 541.4167 346.65314Q541.4167 347.46564 541.0573 348.16876Q540.71356 348.85626 540.1042 349.23126Q539.4948 349.59064 538.7292 349.59064Q537.40106 349.59064 536.57294 348.6219Q535.7448 347.65314 535.7448 345.4344Q535.7448 342.9344 536.6667 341.8094Q537.46356 340.825 538.82294 340.825Q539.83856 340.825 540.4792 341.40314Q541.13544 341.96564 541.26044 342.96564ZM536.96356 346.66876Q536.96356 347.21564 537.1823 347.71564Q537.4167 348.2 537.82294 348.46564Q538.2448 348.73126 538.71356 348.73126Q539.3698 348.73126 539.8542 348.2Q540.33856 347.65314 540.33856 346.73126Q540.33856 345.84064 539.8542 345.325Q539.38544 344.8094 538.6667 344.8094Q537.94794 344.8094 537.44794 345.325Q536.96356 345.84064 536.96356 346.66876ZM542.8542 341.98126L542.8542 340.96564L548.4167 340.96564L548.4167 341.79376Q547.6042 342.66876 546.7917 344.1219Q545.9948 345.5594 545.5573 347.09064Q545.2292 348.16876 545.15106 349.45L544.0573 349.45Q544.07294 348.4344 544.44794 346.9969Q544.83856 345.5594 545.5417 344.23126Q546.26044 342.90314 547.07294 341.98126L542.8542 341.98126Z" fill-rule="nonzero"/><path fill="#000000" d="M562.7774 348.4344L562.7774 349.45L557.0899 349.45Q557.0899 349.075 557.2149 348.71564Q557.43365 348.1375 557.9024 347.575Q558.3868 347.0125 559.293 346.27814Q560.6993 345.1219 561.18365 344.45Q561.68365 343.77814 561.68365 343.1844Q561.68365 342.5594 561.2305 342.1375Q560.7774 341.7 560.05865 341.7Q559.293 341.7 558.8399 342.15314Q558.3868 342.60626 558.37115 343.41876L557.293 343.3094Q557.4024 342.09064 558.12115 341.46564Q558.8555 340.825 560.0899 340.825Q561.3243 340.825 562.043 341.5125Q562.7618 342.2 562.7618 343.21564Q562.7618 343.73126 562.543 344.23126Q562.3399 344.71564 561.8399 345.27814Q561.3555 345.825 560.2305 346.77814Q559.2774 347.575 558.99615 347.8719Q558.7305 348.15314 558.55865 348.4344L562.7774 348.4344ZM564.2305 345.21564Q564.2305 343.6844 564.543 342.7625Q564.8555 341.825 565.4649 341.325Q566.0899 340.825 567.0274 340.825Q567.7149 340.825 568.2305 341.10626Q568.7618 341.3875 569.1055 341.91876Q569.4493 342.4344 569.6368 343.1844Q569.8243 343.9344 569.8243 345.21564Q569.8243 346.73126 569.5118 347.65314Q569.2149 348.575 568.5899 349.09064Q567.9805 349.59064 567.0274 349.59064Q565.793 349.59064 565.0743 348.7Q564.2305 347.6375 564.2305 345.21564ZM565.30865 345.21564Q565.30865 347.325 565.80865 348.02814Q566.30865 348.73126 567.0274 348.73126Q567.7618 348.73126 568.24615 348.02814Q568.74615 347.325 568.74615 345.21564Q568.74615 343.09064 568.24615 342.40314Q567.7618 341.7 567.0118 341.7Q566.293 341.7 565.8555 342.3094Q565.30865 343.09064 565.30865 345.21564ZM571.2305 345.21564Q571.2305 343.6844 571.543 342.7625Q571.8555 341.825 572.4649 341.325Q573.0899 340.825 574.0274 340.825Q574.7149 340.825 575.2305 341.10626Q575.7618 341.3875 576.1055 341.91876Q576.4493 342.4344 576.6368 343.1844Q576.8243 343.9344 576.8243 345.21564Q576.8243 346.73126 576.5118 347.65314Q576.2149 348.575 575.5899 349.09064Q574.9805 349.59064 574.0274 349.59064Q572.793 349.59064 572.0743 348.7Q571.2305 347.6375 571.2305 345.21564ZM572.30865 345.21564Q572.30865 347.325 572.80865 348.02814Q573.30865 348.73126 574.0274 348.73126Q574.7618 348.73126 575.24615 348.02814Q575.74615 347.325 575.74615 345.21564Q575.74615 343.09064 575.24615 342.40314Q574.7618 341.7 574.0118 341.7Q573.293 341.7 572.8555 342.3094Q572.30865 343.09064 572.30865 345.21564Z" fill-rule="nonzero"/></svg>